{"glyphs":{"0":{"ha":667,"x_min":53,"x_max":614,"o":"m 472 704 q 333 855 468 852 q 195 704 197 852 l 195 285 q 333 134 197 135 q 472 285 468 135 l 472 704 m 53 713 q 140 924 54 850 q 333 997 221 997 q 529 924 448 997 q 614 713 611 850 l 614 277 q 529 66 611 140 q 333 -8 448 -7 q 140 66 221 -7 q 53 277 54 140 l 53 713 z "},"1":{"ha":667,"x_min":129,"x_max":411,"o":"m 129 736 l 129 736 l 129 886 l 269 989 l 411 989 l 411 0 l 269 0 l 269 839 l 129 736 z "},"2":{"ha":667,"x_min":45,"x_max":608,"o":"m 45 134 l 431 616 q 461 671 453 646 q 467 715 467 694 q 432 812 467 771 q 330 855 396 854 q 233 818 272 855 q 186 713 193 781 l 45 713 q 127 917 50 836 q 319 997 205 996 q 526 916 447 996 q 608 714 607 836 q 549 541 608 616 l 231 142 l 608 142 l 608 0 l 45 0 l 45 134 z "},"3":{"ha":667,"x_min":18,"x_max":599,"o":"m 244 572 l 293 572 q 406 612 366 572 q 446 713 446 651 q 404 815 444 775 q 301 855 364 854 q 218 826 256 855 q 165 736 179 797 l 24 736 q 113 921 35 846 q 296 997 189 996 q 510 911 431 996 q 587 715 586 828 q 567 606 587 659 q 482 511 543 553 q 572 414 545 471 q 599 294 599 357 q 513 75 597 155 q 298 -8 429 -7 q 119 57 197 -8 q 18 245 41 122 l 160 245 q 214 165 179 196 q 307 134 249 134 q 412 176 370 134 q 457 290 456 216 q 412 407 456 366 q 304 447 370 447 l 244 447 l 244 572 z "},"4":{"ha":667,"x_min":17,"x_max":650,"o":"m 17 281 l 347 989 l 505 989 l 171 281 l 429 281 l 429 565 l 571 565 l 571 281 l 650 281 l 650 147 l 571 147 l 571 0 l 429 0 l 429 147 l 17 147 l 17 281 z "},"5":{"ha":667,"x_min":52,"x_max":615,"o":"m 69 989 l 596 989 l 596 847 l 203 847 l 203 623 l 203 623 q 361 677 272 677 q 465 657 418 676 q 538 606 510 636 q 597 511 579 565 q 611 440 607 482 q 615 335 615 397 q 602 187 615 239 q 554 97 587 136 q 469 26 525 58 q 340 -8 415 -7 q 157 52 240 -8 q 52 249 72 113 l 193 249 q 335 134 216 135 q 416 154 386 134 q 457 205 446 174 q 472 275 469 237 q 473 346 473 311 q 447 484 475 431 q 403 524 432 509 q 330 536 374 536 q 260 518 292 536 q 203 454 228 500 l 69 454 l 69 989 z "},"6":{"ha":667,"x_min":50,"x_max":627,"o":"m 515 999 q 509 984 516 999 q 490 945 502 970 q 461 887 477 920 q 427 819 445 854 q 390 746 409 783 q 354 676 372 709 q 323 616 337 643 q 299 572 309 589 q 343 586 319 584 q 401 587 368 589 q 483 571 448 586 q 543 534 517 556 q 584 484 568 511 q 610 430 601 456 q 624 381 620 404 q 627 346 627 359 q 627 331 627 342 q 627 307 627 320 q 627 280 627 294 q 626 257 627 267 q 622 232 625 252 q 608 185 618 212 q 580 126 598 157 q 532 66 562 94 q 459 18 502 38 q 357 -7 416 -3 q 248 1 296 -13 q 166 39 201 14 q 109 97 132 64 q 72 165 85 130 q 55 231 59 199 q 53 286 50 263 q 62 345 57 319 q 73 395 66 371 q 87 441 79 418 q 106 492 96 465 q 121 524 109 498 q 152 587 134 549 q 192 669 170 624 q 237 760 214 713 q 355 999 290 867 l 515 999 m 487 275 q 485 332 487 301 q 470 392 483 363 q 427 440 456 420 q 342 465 397 460 q 295 459 316 467 q 258 439 274 452 q 230 409 241 426 q 210 376 218 393 q 199 346 202 360 q 195 325 195 332 q 196 287 195 308 q 200 246 197 267 q 213 206 204 225 q 238 172 222 186 q 280 147 254 157 q 343 138 305 138 q 396 145 374 137 q 435 167 419 154 q 461 197 451 180 q 477 229 471 213 q 485 257 483 244 q 487 275 487 269 z "},"7":{"ha":667,"x_min":71,"x_max":633,"o":"m 71 989 l 633 989 l 633 847 l 298 0 l 140 0 l 475 847 l 212 847 l 212 704 l 71 704 l 71 989 z "},"8":{"ha":667,"x_min":32,"x_max":635,"o":"m 192 714 q 236 610 193 646 q 333 572 278 572 q 432 610 390 572 q 475 714 473 646 q 432 821 473 785 q 333 855 390 855 q 236 821 278 855 q 192 714 193 785 m 32 289 q 149 511 33 432 q 79 600 104 550 q 50 711 50 647 q 134 916 52 835 q 333 997 211 996 q 536 916 457 996 q 616 711 615 835 q 590 600 616 647 q 518 511 562 550 q 635 289 633 432 q 547 75 633 155 q 333 -8 460 -7 q 122 75 207 -7 q 32 289 33 155 m 174 290 q 222 179 175 222 q 333 134 268 134 q 446 179 400 134 q 493 290 492 222 q 446 403 492 359 q 333 447 400 446 q 222 403 268 446 q 174 290 175 359 z "},"9":{"ha":667,"x_min":36,"x_max":609,"o":"m 146 0 q 158 25 146 0 q 190 89 170 50 q 234 176 210 128 q 282 271 258 224 q 327 357 306 318 q 360 419 347 397 q 316 405 340 408 q 258 404 291 403 q 180 420 214 406 q 122 458 146 435 q 81 508 98 480 q 55 561 65 535 q 41 610 45 587 q 37 646 37 633 q 36 661 37 650 q 36 685 36 671 q 36 711 36 698 q 38 734 37 725 q 42 759 39 739 q 56 805 46 778 q 85 863 66 832 q 133 921 103 894 q 205 968 162 948 q 307 993 248 987 q 416 985 369 998 q 497 948 463 972 q 553 891 531 924 q 588 825 576 859 q 605 760 601 791 q 606 706 609 728 q 597 647 602 673 q 586 597 593 621 q 572 550 580 573 q 553 500 564 527 q 538 467 550 492 q 508 406 526 442 q 469 325 490 370 q 425 236 448 281 q 309 0 373 130 l 146 0 m 177 716 q 180 658 177 690 q 196 598 182 626 q 237 550 209 570 q 317 527 266 530 q 364 533 343 526 q 401 554 385 541 q 430 583 418 567 q 449 615 441 600 q 460 645 457 631 q 464 667 464 659 q 463 705 463 684 q 459 747 463 726 q 446 789 455 769 q 421 824 437 809 q 379 847 405 839 q 316 854 354 856 q 247 833 274 852 q 205 791 220 814 q 183 746 189 768 q 177 716 177 724 z "},"\u0000":{"ha":0,"x_min":0,"x_max":0,"o":""}," ":{"ha":333,"x_min":0,"x_max":0,"o":""},"\r":{"ha":333,"x_min":0,"x_max":0,"o":""},"!":{"ha":358,"x_min":90,"x_max":268,"o":"m 90 989 l 268 989 l 214 244 l 143 244 l 90 989 m 109 142 l 250 142 l 250 0 l 109 0 l 109 142 z "},"\"":{"ha":463,"x_min":86,"x_max":376,"o":"m 86 989 l 195 989 l 195 745 l 86 745 l 86 989 m 268 989 l 376 989 l 376 745 l 268 745 l 268 989 z "},"#":{"ha":667,"x_min":4,"x_max":663,"o":"m 416 594 l 281 594 l 250 395 l 386 395 l 416 594 m 376 302 l 240 302 l 197 0 l 89 0 l 132 302 l 4 302 l 4 395 l 142 395 l 172 594 l 45 594 l 45 686 l 182 686 l 225 989 l 333 989 l 290 686 l 427 686 l 469 989 l 578 989 l 534 686 l 663 686 l 663 594 l 525 594 l 494 395 l 622 395 l 622 302 l 485 302 l 441 0 l 333 0 l 376 302 z "},"$":{"ha":667,"x_min":11,"x_max":625,"o":"m 109 227 q 189 160 143 186 q 297 125 233 132 l 297 435 q 56 713 50 497 q 297 997 60 962 l 297 1095 l 368 1095 l 368 997 q 603 904 498 996 l 522 799 l 522 799 q 368 864 454 857 l 368 568 q 622 282 625 507 q 553 89 621 165 q 368 -8 485 9 l 368 -158 l 297 -158 l 297 -8 q 143 29 216 -7 q 11 123 69 66 l 109 227 m 297 864 q 228 823 257 859 q 207 779 215 806 q 197 715 197 753 q 220 636 197 668 q 297 585 241 603 l 297 585 l 297 864 m 368 125 q 457 183 432 142 q 481 283 481 224 q 458 368 481 332 q 368 418 435 404 l 368 125 z "},"%":{"ha":721,"x_min":71,"x_max":650,"o":"m 468 139 q 519 71 468 71 q 571 139 571 71 l 571 214 q 519 282 571 282 q 468 214 468 282 l 468 139 m 389 224 q 431 329 390 296 q 519 361 468 361 q 611 329 572 361 q 650 224 648 296 l 650 129 q 640 68 650 93 q 611 25 631 41 q 519 -8 572 -8 q 431 25 468 -8 q 389 129 390 57 l 389 224 m 71 860 q 113 965 72 932 q 201 997 150 997 q 293 965 254 997 q 332 860 330 932 l 332 765 q 322 704 332 729 q 293 661 313 677 q 201 628 254 628 q 113 661 150 628 q 71 765 72 693 l 71 860 m 150 775 q 201 707 150 707 q 253 775 253 707 l 253 850 q 201 918 253 918 q 150 850 150 918 l 150 775 m 549 989 l 640 989 l 172 0 l 81 0 l 549 989 z "},"&":{"ha":900,"x_min":54,"x_max":901,"o":"m 286 778 q 309 715 286 747 q 359 651 328 682 l 359 651 q 456 709 428 679 q 481 778 481 741 q 454 846 481 818 q 383 872 427 872 q 315 846 342 872 q 286 778 286 818 m 643 100 q 514 24 583 54 q 367 -8 446 -7 q 142 83 225 -5 q 54 296 56 171 q 243 585 56 481 q 186 675 207 627 q 161 772 161 722 q 222 930 161 865 q 383 997 282 996 q 545 930 485 996 q 606 772 604 865 q 440 551 608 635 l 651 297 l 651 297 q 737 463 709 374 l 737 463 l 864 412 q 810 301 843 357 q 734 199 777 244 l 901 0 l 734 0 l 643 100 m 322 490 q 179 297 178 406 q 235 170 180 220 q 362 117 288 117 q 561 204 458 115 l 322 490 z "},"’":{"ha":333,"x_min":96,"x_max":237,"o":"m 96 989 l 237 989 l 237 847 l 96 745 l 96 745 l 96 989 z "},"(":{"ha":386,"x_min":83,"x_max":358,"o":"m 302 -142 q 83 424 83 121 q 302 989 83 728 l 358 989 q 225 424 227 726 q 358 -142 227 121 l 302 -142 z "},")":{"ha":386,"x_min":28,"x_max":302,"o":"m 83 989 q 302 424 302 728 q 83 -142 302 121 l 28 -142 q 161 424 158 121 q 28 989 158 726 l 83 989 z "},"*":{"ha":489,"x_min":50,"x_max":439,"o":"m 92 648 l 92 648 l 50 713 l 165 783 l 50 854 l 92 918 l 92 918 l 203 854 l 203 854 l 203 989 l 286 989 l 286 854 l 286 854 l 397 918 l 397 918 l 439 854 l 323 783 l 439 713 l 397 648 l 397 648 l 286 713 l 286 713 l 286 578 l 203 578 l 203 713 l 92 648 z "},"+":{"ha":833,"x_min":65,"x_max":768,"o":"m 362 703 l 471 703 l 471 406 l 768 406 l 768 297 l 471 297 l 471 0 l 362 0 l 362 297 l 65 297 l 65 406 l 362 406 l 362 703 z "},",":{"ha":333,"x_min":96,"x_max":237,"o":"m 96 142 l 237 142 l 237 0 l 96 -103 l 96 -103 l 96 142 z "},"-":{"ha":565,"x_min":74,"x_max":492,"o":"m 74 456 l 492 456 l 492 314 l 74 314 l 74 456 z "},"­":{"ha":565,"x_min":74,"x_max":492,"o":"m 74 456 l 492 456 l 492 314 l 74 314 l 74 456 z "},".":{"ha":333,"x_min":96,"x_max":237,"o":"m 96 142 l 237 142 l 237 0 l 96 0 l 96 142 z "},"/":{"ha":463,"x_min":11,"x_max":452,"o":"m 343 997 l 452 997 l 119 -8 l 11 -8 l 343 997 z "},":":{"ha":333,"x_min":96,"x_max":237,"o":"m 96 457 l 237 457 l 237 315 l 96 315 l 96 457 m 96 142 l 237 142 l 237 0 l 96 0 l 96 142 z "},";":{"ha":333,"x_min":96,"x_max":237,"o":"m 96 142 l 237 142 l 237 0 l 96 -103 l 96 -103 l 96 142 m 96 457 l 237 457 l 237 315 l 96 315 l 96 457 z "},"<":{"ha":833,"x_min":65,"x_max":768,"o":"m 65 401 l 768 714 l 768 714 l 768 597 l 191 351 l 768 106 l 768 -11 l 768 -11 l 65 301 l 65 401 z "},"=":{"ha":833,"x_min":65,"x_max":768,"o":"m 65 545 l 768 545 l 768 436 l 65 436 l 65 545 m 65 267 l 768 267 l 768 158 l 65 158 l 65 267 z "},">":{"ha":833,"x_min":65,"x_max":768,"o":"m 65 106 l 643 351 l 65 597 l 65 714 l 65 714 l 768 401 l 768 301 l 65 -11 l 65 -11 l 65 106 z "},"?":{"ha":643,"x_min":40,"x_max":571,"o":"m 235 335 q 241 407 235 375 q 271 468 249 437 l 395 640 q 429 732 429 689 q 391 823 428 790 q 310 855 354 855 q 221 822 256 855 q 182 704 182 787 l 40 704 l 40 732 q 119 921 41 847 q 302 997 196 996 q 489 926 411 996 q 571 730 570 854 q 526 585 570 643 l 400 411 q 376 323 375 375 l 376 244 l 235 244 l 235 335 m 235 142 l 376 142 l 376 0 l 235 0 l 235 142 z "},"@":{"ha":1111,"x_min":53,"x_max":1058,"o":"m 364 414 q 399 322 364 357 q 484 285 431 285 q 570 315 529 285 q 637 387 608 343 q 700 570 699 481 q 669 656 700 619 q 587 693 637 692 q 498 667 539 693 q 428 597 457 640 q 364 414 364 507 m 764 747 l 855 747 l 745 387 q 730 317 730 349 q 762 277 729 278 q 828 306 794 277 q 888 376 860 332 q 950 575 947 469 q 847 802 949 715 q 579 889 747 888 q 272 772 380 886 q 161 497 161 659 q 278 216 163 326 q 586 100 390 101 q 794 135 709 100 q 936 229 879 167 l 1027 229 q 570 -8 875 -4 q 201 135 345 -5 q 53 500 54 273 q 203 859 56 724 q 572 997 347 994 q 917 882 778 996 q 1058 582 1055 768 q 946 301 1054 407 q 742 193 840 195 q 631 282 647 193 l 628 282 q 562 221 603 248 q 453 193 522 193 q 313 257 367 195 q 256 404 256 317 q 347 664 257 549 q 587 785 437 782 q 745 676 692 786 l 747 676 l 764 747 z "},"A":{"ha":847,"x_min":1,"x_max":846,"o":"m 568 354 l 425 786 l 422 786 l 279 354 l 568 354 m 611 221 l 236 221 l 160 0 l 1 0 l 361 989 l 486 989 l 846 0 l 688 0 l 611 221 z "},"B":{"ha":847,"x_min":104,"x_max":795,"o":"m 104 989 l 488 989 q 707 916 633 987 q 781 724 781 843 q 751 607 782 663 q 707 557 736 581 q 635 511 677 532 l 635 509 q 757 424 715 488 q 795 281 795 358 q 715 78 794 153 q 521 0 637 0 l 104 0 l 104 989 m 254 439 l 254 142 l 485 142 q 607 187 568 143 q 646 290 646 231 q 607 395 646 351 q 485 439 568 437 l 254 439 m 254 855 l 254 572 l 471 572 q 591 615 553 572 q 631 714 631 654 q 591 815 631 774 q 471 855 553 854 l 254 855 z "},"C":{"ha":772,"x_min":71,"x_max":771,"o":"m 771 277 q 647 65 739 139 q 424 -8 553 -8 q 229 49 307 -5 q 114 170 150 101 q 94 212 103 192 q 81 265 86 233 q 71 494 71 325 q 81 725 71 667 q 114 819 92 783 q 229 941 150 888 q 424 997 307 996 q 657 912 567 996 q 771 704 747 828 l 612 704 q 546 806 594 764 q 424 847 496 846 q 333 826 371 846 q 271 775 294 806 q 232 693 241 743 q 221 494 221 640 q 232 297 221 349 q 271 214 241 245 q 333 164 294 183 q 424 142 371 142 q 612 277 550 142 l 771 277 z "},"D":{"ha":875,"x_min":104,"x_max":804,"o":"m 104 989 l 450 989 q 751 822 651 987 q 797 705 787 766 q 804 494 804 644 q 793 272 804 335 q 777 215 787 240 q 749 164 765 191 q 628 49 705 94 q 440 0 551 0 l 104 0 l 104 989 m 254 142 l 433 142 q 616 228 559 142 q 648 309 642 260 q 654 489 654 357 q 648 673 654 618 q 610 764 640 729 q 433 847 547 850 l 254 847 l 254 142 z "},"E":{"ha":772,"x_min":104,"x_max":736,"o":"m 104 989 l 736 989 l 736 847 l 254 847 l 254 565 l 665 565 l 665 432 l 254 432 l 254 142 l 736 142 l 736 0 l 104 0 l 104 989 z "},"F":{"ha":746,"x_min":104,"x_max":736,"o":"m 104 989 l 736 989 l 736 847 l 254 847 l 254 555 l 665 555 l 665 422 l 254 422 l 254 0 l 104 0 l 104 989 z "},"G":{"ha":847,"x_min":71,"x_max":777,"o":"m 425 545 l 777 545 l 777 343 q 675 94 774 195 q 424 -8 575 -5 q 229 49 307 -5 q 114 170 150 101 q 94 212 103 192 q 81 265 86 233 q 71 494 71 325 q 81 725 71 667 q 114 819 92 783 q 229 941 150 888 q 424 997 307 996 q 657 912 567 996 q 771 704 747 828 l 612 704 q 546 806 594 764 q 424 847 496 846 q 333 826 371 846 q 271 775 294 806 q 232 693 241 743 q 221 494 221 640 q 232 297 221 349 q 271 214 241 245 q 333 164 294 183 q 424 142 371 142 q 568 201 511 142 q 627 351 625 258 l 627 403 l 425 403 l 425 545 z "},"H":{"ha":900,"x_min":104,"x_max":795,"o":"m 646 432 l 254 432 l 254 0 l 104 0 l 104 989 l 254 989 l 254 565 l 646 565 l 646 989 l 795 989 l 795 0 l 646 0 l 646 432 z "},"I":{"ha":358,"x_min":104,"x_max":254,"o":"m 104 989 l 254 989 l 254 0 l 104 0 l 104 989 z "},"J":{"ha":668,"x_min":1,"x_max":575,"o":"m 122 208 q 176 163 143 180 q 254 142 210 142 q 368 183 314 140 q 410 239 395 204 q 425 322 425 272 l 425 989 l 575 989 l 575 307 q 477 77 572 158 q 258 -8 383 -7 q 1 121 86 -4 l 122 208 l 122 208 z "},"K":{"ha":875,"x_min":104,"x_max":875,"o":"m 104 989 l 254 989 l 254 479 l 257 479 l 664 989 l 842 989 l 525 599 l 875 0 l 697 0 l 428 484 l 428 484 l 254 301 l 254 0 l 104 0 l 104 989 z "},"L":{"ha":772,"x_min":104,"x_max":736,"o":"m 104 989 l 254 989 l 254 142 l 736 142 l 736 0 l 104 0 l 104 989 z "},"M":{"ha":1053,"x_min":104,"x_max":949,"o":"m 104 989 l 245 989 l 529 345 l 529 345 l 807 989 l 949 989 l 949 0 l 799 0 l 799 616 l 795 616 l 589 142 l 464 142 l 257 616 l 254 616 l 254 0 l 104 0 l 104 989 z "},"N":{"ha":950,"x_min":104,"x_max":846,"o":"m 104 989 l 245 989 l 693 286 l 696 286 l 696 989 l 846 989 l 846 0 l 704 0 l 257 703 l 254 703 l 254 0 l 104 0 l 104 989 z "},"O":{"ha":847,"x_min":71,"x_max":777,"o":"m 71 494 q 81 725 71 667 q 114 819 92 783 q 229 941 150 888 q 424 997 307 996 q 621 941 542 996 q 733 819 699 888 q 768 725 758 783 q 777 494 777 667 q 768 265 777 325 q 733 170 758 205 q 621 49 699 101 q 424 -8 542 -5 q 229 49 307 -5 q 114 170 150 101 q 94 212 103 192 q 81 265 86 233 q 71 494 71 325 m 221 494 q 232 297 221 349 q 271 214 241 245 q 333 164 294 183 q 424 142 371 142 q 517 164 477 142 q 576 214 554 183 q 616 297 606 245 q 627 494 627 349 q 616 693 627 640 q 576 775 606 743 q 517 826 554 806 q 424 847 477 846 q 333 826 371 846 q 271 775 294 806 q 232 693 241 743 q 221 494 221 640 z "},"P":{"ha":823,"x_min":104,"x_max":791,"o":"m 254 528 l 476 528 q 602 579 559 529 q 642 688 642 628 q 625 771 642 737 q 578 819 608 802 q 471 847 532 848 l 254 847 l 254 528 m 104 989 l 463 989 q 575 978 521 989 q 685 920 629 964 q 761 825 732 886 q 791 684 791 765 q 714 484 791 574 q 482 386 635 389 l 254 386 l 254 0 l 104 0 l 104 989 z "},"Q":{"ha":847,"x_min":71,"x_max":871,"o":"m 408 277 l 497 379 l 497 379 l 612 288 l 612 288 q 627 494 627 338 q 616 693 627 640 q 576 775 606 743 q 517 826 554 806 q 424 847 477 846 q 333 826 371 846 q 271 775 294 806 q 232 693 241 743 q 221 494 221 640 q 232 297 221 349 q 271 214 241 245 q 333 164 294 183 q 424 142 371 142 q 534 176 493 142 l 408 277 m 657 78 q 424 -8 570 -5 q 229 49 307 -5 q 114 170 150 101 q 94 212 103 192 q 81 265 86 233 q 71 494 71 325 q 81 725 71 667 q 114 819 92 783 q 229 941 150 888 q 424 997 307 996 q 621 941 542 996 q 733 819 699 888 q 768 725 758 783 q 777 494 777 667 q 770 279 777 340 q 741 184 761 218 l 871 81 l 782 -22 l 782 -22 l 657 78 z "},"R":{"ha":847,"x_min":104,"x_max":828,"o":"m 254 555 l 481 555 q 607 604 565 557 q 648 713 648 648 q 599 825 647 790 q 489 855 561 855 l 254 855 l 254 555 m 104 989 l 490 989 q 692 924 614 989 q 790 713 786 850 q 599 439 787 511 l 828 0 l 650 0 l 446 422 l 254 422 l 254 0 l 104 0 l 104 989 z "},"S":{"ha":797,"x_min":18,"x_max":743,"o":"m 117 240 q 397 142 235 143 q 593 279 590 144 q 464 412 594 390 q 333 431 404 420 q 139 525 205 452 q 71 708 71 600 q 157 917 71 838 q 393 997 240 996 q 714 895 578 993 l 631 771 l 631 771 q 386 847 519 844 q 271 812 317 847 q 221 705 222 777 q 254 628 221 663 q 361 579 288 593 q 472 564 401 572 q 677 464 611 545 q 743 279 743 385 q 396 -8 736 -4 q 18 127 176 -8 l 117 240 l 117 240 z "},"T":{"ha":694,"x_min":1,"x_max":693,"o":"m 272 855 l 1 855 l 1 989 l 693 989 l 693 855 l 422 855 l 422 0 l 272 0 l 272 855 z "},"U":{"ha":875,"x_min":86,"x_max":789,"o":"m 86 989 l 236 989 l 236 351 q 294 197 237 250 q 437 142 350 142 q 582 197 525 142 q 639 351 637 250 l 639 989 l 789 989 l 789 335 q 688 87 786 179 q 437 -8 589 -7 q 189 87 289 -7 q 86 335 87 179 l 86 989 z "},"V":{"ha":772,"x_min":1,"x_max":771,"o":"m 1 989 l 160 989 l 385 236 l 387 236 l 612 989 l 771 989 l 444 0 l 328 0 l 1 989 z "},"W":{"ha":1156,"x_min":16,"x_max":1140,"o":"m 16 989 l 174 989 l 329 286 l 332 286 l 524 989 l 632 989 l 823 286 l 826 286 l 982 989 l 1140 989 l 893 0 l 768 0 l 579 713 l 576 713 l 387 0 l 262 0 l 16 989 z "},"X":{"ha":745,"x_min":-14,"x_max":758,"o":"m 155 0 l -14 0 l 289 507 l 5 989 l 175 989 l 372 646 l 372 646 l 570 989 l 739 989 l 456 507 l 758 0 l 589 0 l 372 368 l 155 0 z "},"Y":{"ha":694,"x_min":-21,"x_max":715,"o":"m 277 407 l -21 989 l 138 989 l 347 550 l 347 550 l 557 989 l 715 989 l 418 407 l 418 0 l 277 0 l 277 407 z "},"Z":{"ha":721,"x_min":45,"x_max":676,"o":"m 45 125 l 493 855 l 62 855 l 62 989 l 676 989 l 676 876 l 227 142 l 676 142 l 676 0 l 45 0 l 45 125 z "},"[":{"ha":386,"x_min":100,"x_max":357,"o":"m 100 989 l 357 989 l 357 897 l 225 897 l 225 -50 l 357 -50 l 357 -142 l 100 -142 l 100 989 z "},"\\":{"ha":463,"x_min":11,"x_max":452,"o":"m 11 997 l 119 997 l 452 -8 l 343 -8 l 11 997 z "},"]":{"ha":386,"x_min":29,"x_max":286,"o":"m 161 897 l 29 897 l 29 989 l 286 989 l 286 -142 l 29 -142 l 29 -50 l 161 -50 l 161 897 z "},"^":{"ha":833,"x_min":69,"x_max":764,"o":"m 371 989 l 463 989 l 764 393 l 647 393 l 416 872 l 416 872 l 186 393 l 69 393 l 371 989 z "},"_":{"ha":694,"x_min":0,"x_max":694,"o":"m 0 -104 l 694 -104 l 694 -174 l 0 -174 l 0 -104 z "},"‘":{"ha":333,"x_min":96,"x_max":237,"o":"m 96 886 l 237 989 l 237 989 l 237 745 l 96 745 l 96 886 z "},"a":{"ha":694,"x_min":36,"x_max":603,"o":"m 461 62 l 458 62 q 397 9 439 26 q 285 -8 357 -8 q 103 54 167 -7 q 36 207 36 114 q 94 354 36 296 q 265 415 153 414 l 461 415 l 461 489 q 317 579 463 582 q 233 568 264 579 q 183 525 201 555 l 183 525 l 72 610 q 310 713 153 715 q 522 663 443 714 q 603 481 602 610 l 603 0 l 461 0 l 461 62 m 461 298 l 292 298 q 170 214 168 296 q 201 153 170 178 q 302 125 232 125 q 428 146 391 123 q 461 248 461 168 l 461 298 z "},"b":{"ha":721,"x_min":92,"x_max":654,"o":"m 92 989 l 233 989 l 233 629 l 233 629 q 318 690 272 667 q 415 713 361 713 q 604 621 545 709 q 644 533 633 587 q 654 353 654 479 q 644 174 654 228 q 604 83 633 117 q 528 18 575 43 q 415 -8 481 -7 q 233 74 304 -5 l 233 74 l 233 0 l 92 0 l 92 989 m 372 571 q 297 551 325 571 q 254 500 268 532 q 237 431 241 468 q 233 353 233 393 q 237 277 233 315 q 254 205 241 237 q 297 154 268 174 q 372 134 325 134 q 452 153 422 134 q 493 203 481 172 q 511 275 507 235 q 513 353 513 313 q 511 435 513 395 q 493 504 507 472 q 452 554 481 536 q 372 571 422 571 z "},"c":{"ha":616,"x_min":37,"x_max":610,"o":"m 610 114 q 501 28 564 61 q 357 -8 439 -7 q 138 77 232 -8 q 37 351 40 161 q 138 629 40 543 q 357 713 232 714 q 501 679 439 711 q 610 590 564 646 l 505 497 l 505 497 q 362 571 452 568 q 179 351 182 574 q 362 134 182 130 q 505 207 452 135 l 505 207 l 610 114 z "},"d":{"ha":721,"x_min":92,"x_max":654,"o":"m 513 74 q 330 -8 443 -5 q 221 18 267 -7 q 142 83 174 43 q 103 174 113 117 q 92 353 92 228 q 103 533 92 479 q 142 621 113 587 q 330 713 201 709 q 431 690 385 713 q 513 629 473 667 l 513 629 l 513 989 l 654 989 l 654 0 l 513 0 l 513 74 m 374 571 q 297 554 323 571 q 254 504 268 536 q 237 435 241 472 q 233 353 233 395 q 237 275 233 313 q 254 203 241 235 q 297 153 268 172 q 374 134 323 134 q 453 154 424 134 q 493 205 482 174 q 511 277 507 237 q 513 353 513 315 q 511 431 513 393 q 493 500 507 468 q 453 551 482 532 q 374 571 424 571 z "},"e":{"ha":694,"x_min":57,"x_max":637,"o":"m 199 298 q 248 170 199 214 q 367 125 293 125 q 521 193 453 125 l 521 193 l 623 106 q 370 -8 515 -9 q 261 8 314 -8 q 210 32 235 17 q 160 64 183 45 q 87 174 115 103 q 57 350 57 241 q 83 524 57 454 q 151 635 110 594 q 245 694 193 676 q 347 713 297 713 q 551 633 468 711 q 637 415 636 554 l 637 298 l 199 298 m 496 415 q 452 539 493 497 q 347 579 411 579 q 243 539 283 579 q 199 415 203 497 l 496 415 z "},"f":{"ha":386,"x_min":43,"x_max":397,"o":"m 114 596 l 43 596 l 43 704 l 114 704 l 114 797 q 170 945 114 897 q 306 989 224 989 l 397 989 l 397 855 l 317 855 q 256 797 253 857 l 256 704 l 397 704 l 397 596 l 256 596 l 256 0 l 114 0 l 114 596 z "},"g":{"ha":721,"x_min":66,"x_max":629,"o":"m 488 74 q 306 -8 418 -5 q 192 21 237 -7 q 119 78 144 47 q 79 163 92 113 q 66 351 66 212 q 79 543 66 493 q 119 627 92 593 q 192 686 144 660 q 306 713 237 711 q 488 629 411 713 l 488 629 l 488 704 l 629 704 l 629 17 q 538 -216 627 -142 q 323 -293 448 -293 q 79 -175 180 -290 l 189 -87 l 189 -87 q 252 -130 216 -113 q 326 -151 288 -150 q 443 -111 399 -151 q 488 1 486 -71 l 488 74 m 208 351 q 214 240 208 271 q 236 187 218 208 q 279 153 250 168 q 349 134 307 134 q 418 153 390 134 q 460 187 446 168 q 484 240 477 208 q 488 351 488 271 q 484 465 488 433 q 460 517 477 497 q 418 554 446 536 q 349 571 390 570 q 279 554 307 570 q 236 517 250 536 q 214 465 218 497 q 208 351 208 433 z "},"h":{"ha":746,"x_min":92,"x_max":654,"o":"m 92 989 l 233 989 l 233 629 l 236 629 q 419 713 306 713 q 579 651 507 713 q 654 468 651 589 l 654 0 l 513 0 l 513 419 q 473 532 513 493 q 374 571 435 571 q 273 532 313 571 q 233 419 233 493 l 233 0 l 92 0 l 92 989 z "},"i":{"ha":333,"x_min":96,"x_max":237,"o":"m 96 704 l 237 704 l 237 0 l 96 0 l 96 704 m 96 989 l 237 989 l 237 847 l 96 847 l 96 989 z "},"j":{"ha":358,"x_min":-9,"x_max":252,"o":"m 110 704 l 252 704 l 252 -87 q 195 -229 250 -176 q 46 -285 138 -283 l -9 -285 l -9 -151 l 31 -151 q 110 -77 109 -151 l 110 704 m 110 989 l 252 989 l 252 847 l 110 847 l 110 989 z "},"k":{"ha":721,"x_min":92,"x_max":709,"o":"m 92 989 l 233 989 l 233 374 l 236 374 l 507 704 l 676 704 l 433 429 l 709 0 l 532 0 l 345 329 l 345 329 l 233 203 l 233 0 l 92 0 l 92 989 z "},"l":{"ha":358,"x_min":92,"x_max":335,"o":"m 92 989 l 233 989 l 233 182 q 286 134 233 134 l 335 134 l 335 0 l 272 0 q 144 39 195 0 q 92 171 92 78 l 92 989 z "},"m":{"ha":1183,"x_min":100,"x_max":1083,"o":"m 100 704 l 241 704 l 241 629 l 244 629 q 428 713 314 713 q 546 688 501 711 q 627 621 590 661 l 627 621 q 848 713 709 714 q 1008 651 936 713 q 1083 468 1080 589 l 1083 0 l 941 0 l 941 419 q 903 532 941 493 q 803 571 864 571 q 703 532 742 571 q 663 419 663 493 l 663 0 l 521 0 l 521 419 q 482 532 521 493 q 382 571 443 571 q 282 532 321 571 q 241 419 241 493 l 241 0 l 100 0 l 100 704 z "},"n":{"ha":746,"x_min":92,"x_max":654,"o":"m 92 704 l 233 704 l 233 629 l 236 629 q 419 713 306 713 q 579 651 507 713 q 654 468 651 589 l 654 0 l 513 0 l 513 419 q 473 532 513 493 q 374 571 435 571 q 273 532 313 571 q 233 419 233 493 l 233 0 l 92 0 l 92 704 z "},"o":{"ha":694,"x_min":57,"x_max":637,"o":"m 57 353 q 75 524 57 464 q 134 622 94 582 q 215 685 163 657 q 347 713 267 711 q 482 685 431 711 q 561 622 533 657 q 621 524 603 582 q 637 353 637 464 q 621 183 637 241 q 561 82 603 125 q 528 52 547 66 q 482 22 510 35 q 347 -8 431 -7 q 215 22 267 -7 q 134 82 163 49 q 75 183 94 125 q 57 353 57 241 m 496 351 q 489 461 496 427 q 461 519 482 494 q 415 557 446 543 q 347 571 386 571 q 281 557 311 571 q 233 519 252 543 q 207 461 215 494 q 199 353 199 427 q 207 245 199 279 q 233 184 215 211 q 281 149 252 164 q 347 134 311 134 q 415 149 386 134 q 461 184 446 164 q 489 245 482 211 q 496 351 496 279 z "},"p":{"ha":721,"x_min":92,"x_max":654,"o":"m 92 704 l 233 704 l 233 631 l 233 631 q 415 713 304 709 q 604 621 545 709 q 644 533 633 587 q 654 351 654 479 q 644 172 654 227 q 604 83 633 118 q 528 18 575 43 q 415 -8 481 -7 q 318 16 361 -8 q 233 75 272 37 l 233 75 l 233 -285 l 92 -285 l 92 704 m 372 134 q 452 153 422 134 q 493 203 481 172 q 511 273 507 235 q 513 351 513 311 q 511 433 513 393 q 493 504 507 473 q 452 554 481 536 q 372 571 422 571 q 297 551 325 571 q 254 500 268 532 q 237 431 241 468 q 233 351 233 391 q 237 277 233 314 q 254 205 241 237 q 297 154 268 174 q 372 134 325 134 z "},"q":{"ha":721,"x_min":66,"x_max":629,"o":"m 488 75 q 406 16 448 37 q 306 -8 359 -8 q 196 18 241 -7 q 117 83 149 43 q 78 172 87 118 q 66 351 66 227 q 78 533 66 479 q 117 621 87 587 q 306 713 176 709 q 488 631 418 709 l 488 631 l 488 704 l 629 704 l 629 -285 l 488 -285 l 488 75 m 349 134 q 428 154 399 134 q 468 205 457 174 q 486 277 482 237 q 488 351 488 314 q 486 431 488 391 q 468 500 482 468 q 428 551 457 532 q 349 571 399 571 q 272 554 298 571 q 229 504 243 536 q 212 433 216 473 q 208 351 208 393 q 212 273 208 311 q 229 203 216 235 q 272 153 243 172 q 349 134 298 134 z "},"r":{"ha":541,"x_min":92,"x_max":567,"o":"m 92 704 l 233 704 l 233 629 l 236 629 q 419 713 306 713 q 567 659 504 711 l 464 536 l 464 536 q 371 571 419 571 q 278 536 317 571 q 233 424 235 501 l 233 0 l 92 0 l 92 704 z "},"s":{"ha":667,"x_min":14,"x_max":615,"o":"m 113 215 q 335 125 199 125 q 435 149 396 125 q 473 215 473 172 q 450 268 473 253 q 387 285 427 283 l 262 296 q 118 355 174 304 q 60 496 61 406 q 136 659 61 604 q 322 713 210 713 q 410 707 371 713 q 482 688 448 700 q 599 616 547 661 l 511 514 l 511 514 q 425 562 471 543 q 322 579 380 579 q 229 555 256 579 q 201 494 201 532 q 222 453 200 471 q 294 428 243 433 l 411 419 q 570 353 521 411 q 615 208 615 296 q 532 50 614 106 q 323 -8 450 -7 q 14 118 151 -8 l 113 215 l 113 215 z "},"t":{"ha":386,"x_min":29,"x_max":345,"o":"m 100 918 l 241 918 l 241 704 l 345 704 l 345 596 l 241 596 l 241 186 q 292 134 240 132 l 345 134 l 345 0 l 271 0 q 149 46 196 0 q 100 174 100 90 l 100 596 l 29 596 l 29 704 l 100 704 l 100 918 z "},"u":{"ha":746,"x_min":92,"x_max":654,"o":"m 92 704 l 233 704 l 233 285 q 273 174 233 214 q 374 134 313 134 q 473 174 435 134 q 513 285 513 214 l 513 704 l 654 704 l 654 0 l 513 0 l 513 75 l 510 75 q 328 -8 440 -8 q 170 56 240 -7 q 92 236 93 117 l 92 704 z "},"v":{"ha":616,"x_min":-8,"x_max":625,"o":"m -8 704 l 142 704 l 307 211 l 310 211 l 475 704 l 625 704 l 367 0 l 250 0 l -8 704 z "},"w":{"ha":1003,"x_min":3,"x_max":1000,"o":"m 503 493 l 500 493 l 353 0 l 228 0 l 3 704 l 153 704 l 288 211 l 290 211 l 450 704 l 553 704 l 713 211 l 715 211 l 850 704 l 1000 704 l 775 0 l 650 0 l 503 493 z "},"x":{"ha":667,"x_min":14,"x_max":652,"o":"m 24 704 l 193 704 l 333 476 l 333 476 l 473 704 l 643 704 l 412 359 l 652 0 l 484 0 l 333 235 l 333 235 l 183 0 l 14 0 l 254 359 l 24 704 z "},"y":{"ha":616,"x_min":-9,"x_max":627,"o":"m -9 704 l 140 704 l 307 211 l 310 211 l 476 704 l 627 704 l 323 -146 q 243 -256 294 -225 q 125 -285 191 -285 l 78 -285 l 78 -151 l 119 -151 q 171 -136 147 -151 q 204 -90 195 -121 l 243 28 l -9 704 z "},"z":{"ha":616,"x_min":46,"x_max":571,"o":"m 46 113 l 399 579 l 65 579 l 65 704 l 571 704 l 571 591 l 218 134 l 571 134 l 571 0 l 46 0 l 46 113 z "},"{":{"ha":386,"x_min":20,"x_max":382,"o":"m 20 469 q 68 484 47 469 q 101 519 89 496 q 127 636 127 568 l 127 835 q 170 949 129 908 q 264 989 208 989 l 382 989 l 382 897 l 314 897 q 267 863 281 896 q 253 782 253 828 l 253 603 q 240 526 253 557 q 208 472 228 493 q 144 425 168 431 l 144 422 q 174 411 155 420 q 208 379 192 400 q 240 325 228 358 q 253 243 253 292 l 253 65 q 267 -12 253 21 q 314 -50 281 -49 l 382 -50 l 382 -142 l 264 -142 q 170 -100 208 -140 q 127 12 129 -60 l 127 208 q 101 328 127 281 q 20 378 74 376 l 20 469 z "},"|":{"ha":309,"x_min":100,"x_max":208,"o":"m 100 997 l 208 997 l 208 -8 l 100 -8 l 100 997 z "},"}":{"ha":386,"x_min":4,"x_max":367,"o":"m 4 -50 l 72 -50 q 119 -12 106 -49 q 134 65 134 21 l 134 244 q 149 323 134 290 q 180 378 161 357 q 241 422 221 419 l 241 425 q 216 439 233 429 q 180 469 200 448 q 149 524 161 490 q 134 604 134 557 l 134 782 q 119 863 134 828 q 72 897 106 896 l 4 897 l 4 989 l 122 989 q 220 949 180 989 q 258 835 257 908 l 258 639 q 288 521 258 568 q 367 469 315 473 l 367 378 q 288 329 315 376 q 258 211 258 282 l 258 12 q 220 -100 257 -60 q 122 -142 180 -140 l 4 -142 l 4 -50 z "},"~":{"ha":833,"x_min":96,"x_max":737,"o":"m 96 332 q 160 415 118 378 q 269 453 201 452 q 346 440 306 453 q 424 407 383 427 q 500 374 463 389 q 565 357 538 357 q 636 390 607 358 q 688 457 665 419 l 688 457 l 737 370 q 675 289 715 323 q 564 249 635 250 q 490 264 528 249 q 410 294 452 278 q 335 328 371 313 q 268 345 297 343 q 199 314 228 343 q 146 245 171 283 l 146 245 l 96 332 z "},"¡":{"ha":358,"x_min":90,"x_max":268,"o":"m 144 460 l 215 460 l 268 -285 l 90 -285 l 144 460 m 109 704 l 250 704 l 250 562 l 109 562 l 109 704 z "},"¢":{"ha":667,"x_min":47,"x_max":619,"o":"m 338 571 q 189 351 191 555 q 338 134 191 150 l 338 571 m 338 -8 q 138 86 221 0 q 47 351 49 172 q 138 619 49 533 q 338 713 221 705 l 338 839 l 393 839 l 393 713 q 619 590 541 692 l 515 497 l 515 497 q 393 571 473 553 l 393 134 q 515 207 473 151 l 515 207 l 619 114 q 393 -8 541 14 l 393 -135 l 338 -135 l 338 -8 z "},"£":{"ha":667,"x_min":40,"x_max":652,"o":"m 40 509 l 117 509 q 68 717 66 619 q 143 924 69 850 q 326 997 214 996 q 534 918 467 996 q 602 713 602 840 l 460 713 q 336 864 452 864 q 210 714 212 861 q 258 509 211 602 l 482 509 l 482 416 l 293 416 q 318 294 317 353 q 275 144 317 218 q 351 135 306 142 q 431 125 396 125 q 498 136 463 125 q 565 171 533 146 l 565 171 l 652 61 q 551 7 604 22 q 452 -8 498 -8 q 321 5 406 -7 q 180 20 235 18 q 58 -8 125 20 l 58 125 q 160 153 106 151 q 184 271 183 214 q 175 339 184 301 q 151 416 164 376 l 40 416 l 40 509 z "},"∕":{"ha":232,"x_min":-229,"x_max":461,"o":"m 370 1013 l 461 1013 l -138 -24 l -229 -24 l 370 1013 z "},"¥":{"ha":667,"x_min":-20,"x_max":686,"o":"m 267 222 l 58 222 l 58 314 l 267 314 l 267 407 l 248 444 l 58 444 l 58 536 l 203 536 l -20 989 l 130 989 l 333 550 l 333 550 l 536 989 l 686 989 l 464 536 l 608 536 l 608 444 l 419 444 l 400 407 l 400 314 l 608 314 l 608 222 l 400 222 l 400 0 l 267 0 l 267 222 z "},"ƒ":{"ha":667,"x_min":3,"x_max":602,"o":"m 254 519 l 135 519 l 151 628 l 273 628 l 311 839 q 396 965 330 932 q 538 997 461 997 q 602 989 570 997 l 581 857 q 521 864 550 864 q 444 799 457 864 l 415 628 l 541 628 l 524 519 l 396 519 l 297 -57 q 236 -196 285 -149 q 86 -244 187 -244 q 3 -232 45 -244 l 26 -104 q 90 -111 52 -110 q 155 -58 146 -111 l 254 519 z "},"§":{"ha":667,"x_min":62,"x_max":604,"o":"m 216 -14 q 252 -98 221 -66 q 336 -134 281 -132 q 415 -104 385 -134 q 446 -25 446 -77 q 420 50 447 25 q 306 100 393 74 l 253 118 q 101 214 140 155 q 64 374 62 269 q 90 519 62 465 q 200 607 117 572 q 109 772 106 663 q 175 935 110 872 q 333 996 237 994 q 496 939 431 996 q 564 757 562 879 l 439 757 q 412 840 439 808 q 333 871 386 871 q 258 843 282 869 q 233 783 233 817 q 265 718 233 739 q 376 669 297 694 q 547 582 492 639 q 603 390 603 526 q 582 257 604 310 q 472 161 557 205 q 558 89 534 136 q 579 -17 579 43 q 505 -199 578 -132 q 326 -267 433 -265 q 163 -197 231 -265 q 92 -14 93 -132 l 216 -14 m 333 227 q 437 277 412 229 q 461 385 463 313 q 456 457 461 433 q 432 498 448 481 q 395 529 419 517 q 333 541 370 541 q 235 498 262 538 q 212 457 218 481 q 205 385 205 433 q 229 277 204 313 q 269 243 241 258 q 333 227 294 227 z "},"¤":{"ha":667,"x_min":21,"x_max":646,"o":"m 89 323 q 36 494 37 386 q 89 667 37 602 l 21 734 l 94 807 l 94 807 l 163 739 l 163 739 q 335 793 227 790 q 505 741 440 791 l 505 741 l 574 807 l 574 807 l 646 734 l 579 667 q 633 494 631 602 q 579 322 631 386 l 646 254 l 574 182 l 574 182 l 505 250 l 505 250 q 335 196 440 197 q 239 212 283 196 q 163 250 193 228 l 163 250 l 94 182 l 94 182 l 21 254 l 89 323 m 144 494 q 197 350 144 403 q 335 296 249 296 q 473 350 422 296 q 525 494 525 403 q 335 693 519 689 q 144 494 149 689 z "},"'":{"ha":333,"x_min":113,"x_max":221,"o":"m 113 989 l 221 989 l 221 745 l 113 745 l 113 989 z "},"“":{"ha":463,"x_min":53,"x_max":410,"o":"m 268 886 l 410 989 l 410 989 l 410 745 l 268 745 l 268 886 m 53 886 l 195 989 l 195 989 l 195 745 l 53 745 l 53 886 z "},"«":{"ha":667,"x_min":65,"x_max":602,"o":"m 349 524 l 207 385 l 349 245 l 349 104 l 349 104 l 65 385 l 349 665 l 349 524 m 602 524 l 460 385 l 602 245 l 602 104 l 602 104 l 318 385 l 602 665 l 602 524 z "},"‹":{"ha":411,"x_min":64,"x_max":347,"o":"m 64 385 l 347 665 l 347 665 l 347 524 l 205 385 l 347 245 l 347 104 l 347 104 l 64 385 z "},"›":{"ha":411,"x_min":64,"x_max":347,"o":"m 64 245 l 205 385 l 64 524 l 64 665 l 64 665 l 347 385 l 64 104 l 64 104 l 64 245 z "},"":{"ha":721,"x_min":43,"x_max":625,"o":"m 114 596 l 43 596 l 43 704 l 114 704 l 114 797 q 170 945 114 897 q 306 989 224 989 l 397 989 l 397 855 l 317 855 q 256 797 253 857 l 256 704 l 397 704 l 397 596 l 256 596 l 256 0 l 114 0 l 114 596 m 484 704 l 625 704 l 625 0 l 484 0 l 484 704 m 484 989 l 625 989 l 625 847 l 484 847 l 484 989 z "},"":{"ha":746,"x_min":43,"x_max":726,"o":"m 114 596 l 43 596 l 43 704 l 114 704 l 114 797 q 170 945 114 897 q 306 989 224 989 l 397 989 l 397 855 l 317 855 q 256 797 253 857 l 256 704 l 397 704 l 397 596 l 256 596 l 256 0 l 114 0 l 114 596 m 484 989 l 625 989 l 625 182 q 677 134 625 134 l 726 134 l 726 0 l 664 0 q 536 39 586 0 q 484 171 484 78 l 484 989 z "},"–":{"ha":694,"x_min":0,"x_max":694,"o":"m 0 452 l 694 452 l 694 318 l 0 318 l 0 452 z "},"†":{"ha":667,"x_min":31,"x_max":636,"o":"m 267 542 l 31 542 l 31 650 l 267 650 l 267 989 l 400 989 l 400 650 l 636 650 l 636 542 l 400 542 l 400 -257 l 267 -257 l 267 542 z "},"‡":{"ha":667,"x_min":31,"x_max":636,"o":"m 267 583 l 31 583 l 31 692 l 267 692 l 267 989 l 400 989 l 400 692 l 636 692 l 636 583 l 400 583 l 400 149 l 636 149 l 636 40 l 400 40 l 400 -257 l 267 -257 l 267 40 l 31 40 l 31 149 l 267 149 l 267 583 z "},"∙":{"ha":333,"x_min":74,"x_max":260,"o":"m 74 406 q 101 472 74 446 q 167 498 127 498 q 233 472 207 498 q 260 406 260 446 q 233 340 260 367 q 167 313 207 313 q 101 340 127 313 q 74 406 74 367 z "},"¶":{"ha":833,"x_min":66,"x_max":675,"o":"m 358 464 q 150 541 229 465 q 66 722 68 611 q 383 989 72 990 l 675 989 l 675 -257 l 567 -257 l 567 897 l 467 897 l 467 -257 l 358 -257 l 358 464 z "},"•":{"ha":694,"x_min":100,"x_max":594,"o":"m 100 494 q 174 669 101 600 q 347 742 243 741 q 522 669 453 741 q 594 494 593 600 q 522 321 593 390 q 347 248 453 249 q 174 321 243 249 q 100 494 101 390 z "},"‚":{"ha":333,"x_min":96,"x_max":237,"o":"m 96 142 l 237 142 l 237 0 l 96 -103 l 96 -103 l 96 142 z "},"„":{"ha":463,"x_min":53,"x_max":410,"o":"m 53 142 l 195 142 l 195 0 l 53 -103 l 53 -103 l 53 142 m 268 142 l 410 142 l 410 0 l 268 -103 l 268 -103 l 268 142 z "},"”":{"ha":463,"x_min":53,"x_max":410,"o":"m 53 989 l 195 989 l 195 847 l 53 745 l 53 745 l 53 989 m 268 989 l 410 989 l 410 847 l 268 745 l 268 745 l 268 989 z "},"»":{"ha":667,"x_min":65,"x_max":602,"o":"m 318 245 l 460 385 l 318 524 l 318 665 l 318 665 l 602 385 l 318 104 l 318 104 l 318 245 m 65 245 l 207 385 l 65 524 l 65 665 l 65 665 l 349 385 l 65 104 l 65 104 l 65 245 z "},"…":{"ha":1389,"x_min":161,"x_max":1227,"o":"m 161 142 l 302 142 l 302 0 l 161 0 l 161 142 m 623 142 l 765 142 l 765 0 l 623 0 l 623 142 m 1086 142 l 1227 142 l 1227 0 l 1086 0 l 1086 142 z "},"‰":{"ha":1054,"x_min":68,"x_max":986,"o":"m 725 224 q 766 329 726 296 q 855 361 804 361 q 947 329 908 361 q 986 224 985 296 l 986 129 q 977 68 986 93 q 947 25 966 41 q 855 -8 908 -8 q 766 25 804 -8 q 725 129 726 57 l 725 224 m 804 139 q 855 71 804 71 q 907 139 907 71 l 907 214 q 855 282 907 282 q 804 214 804 282 l 804 139 m 465 139 q 517 71 465 71 q 568 139 568 71 l 568 214 q 517 282 568 282 q 465 214 465 282 l 465 139 m 386 224 q 428 329 387 296 q 517 361 465 361 q 608 329 570 361 q 647 224 646 296 l 647 129 q 637 68 647 93 q 608 25 628 41 q 517 -8 570 -8 q 428 25 465 -8 q 386 129 387 57 l 386 224 m 68 860 q 110 965 69 932 q 199 997 147 997 q 290 965 252 997 q 329 860 328 932 l 329 765 q 319 704 329 729 q 290 661 310 677 q 199 628 252 628 q 110 661 147 628 q 68 765 69 693 l 68 860 m 147 775 q 199 707 147 707 q 250 775 250 707 l 250 850 q 199 918 250 918 q 147 850 147 918 l 147 775 m 546 989 l 637 989 l 170 0 l 78 0 l 546 989 z "},"¿":{"ha":643,"x_min":72,"x_max":603,"o":"m 267 460 l 408 460 l 408 370 q 403 300 408 330 q 372 236 395 268 l 249 64 q 214 -28 214 17 q 254 -117 215 -85 q 333 -151 292 -150 q 424 -117 387 -151 q 461 0 460 -82 l 603 0 l 603 -28 q 525 -215 602 -142 q 340 -293 450 -292 q 155 -220 235 -292 q 72 -26 74 -149 q 117 119 72 61 l 243 293 q 267 380 268 329 l 267 460 m 267 704 l 408 704 l 408 562 l 267 562 l 267 704 z "},"`":{"ha":333,"x_min":-40,"x_max":273,"o":"m -40 997 l 146 997 l 273 794 l 157 794 l -40 997 z "},"´":{"ha":333,"x_min":60,"x_max":374,"o":"m 187 997 l 374 997 l 176 794 l 60 794 l 187 997 z "},"ˆ":{"ha":333,"x_min":-60,"x_max":393,"o":"m 74 794 l -60 794 l 87 997 l 245 997 l 393 794 l 260 794 l 167 913 l 74 794 z "},"˜":{"ha":333,"x_min":-81,"x_max":414,"o":"m -81 808 q -28 926 -69 882 q 77 969 12 969 q 127 962 103 969 q 176 945 153 956 q 224 926 201 933 q 265 917 244 917 q 306 929 286 916 q 330 978 323 941 l 414 978 q 368 867 404 912 q 261 817 332 818 q 210 826 236 817 q 157 843 182 833 q 61 868 104 867 q 25 857 46 868 q 3 808 3 843 l -81 808 z "},"¯":{"ha":333,"x_min":-33,"x_max":367,"o":"m -33 935 l 367 935 l 367 843 l -33 843 l -33 935 z "},"˘":{"ha":333,"x_min":-52,"x_max":396,"o":"m 32 997 q 81 918 46 941 q 172 895 117 895 q 261 917 224 893 q 313 997 300 939 l 396 997 q 332 859 389 909 q 172 803 275 803 q 16 859 72 803 q -52 997 -43 909 l 32 997 z "},"˙":{"ha":333,"x_min":92,"x_max":241,"o":"m 92 964 l 241 964 l 241 814 l 92 814 l 92 964 z "},"¨":{"ha":333,"x_min":-31,"x_max":364,"o":"m 214 964 l 364 964 l 364 814 l 214 814 l 214 964 m -31 964 l 119 964 l 119 814 l -31 814 l -31 964 z "},"˚":{"ha":333,"x_min":24,"x_max":310,"o":"m 24 917 q 66 1019 24 979 q 167 1060 107 1058 q 269 1019 229 1058 q 310 917 309 979 q 269 817 309 857 q 167 774 229 774 q 66 817 107 774 q 24 917 24 857 m 79 917 q 106 855 79 880 q 167 829 130 829 q 229 855 205 829 q 254 917 253 880 q 229 979 253 956 q 167 1004 205 1003 q 106 979 130 1003 q 79 917 79 956 z "},"¸":{"ha":333,"x_min":7,"x_max":318,"o":"m 216 0 l 155 -83 l 158 -83 q 196 -78 174 -78 q 286 -109 254 -78 q 318 -183 318 -139 q 268 -281 317 -250 q 147 -314 218 -314 q 7 -281 79 -313 l 32 -222 q 129 -243 79 -241 q 210 -184 207 -243 q 191 -146 210 -158 q 142 -134 171 -134 q 89 -149 115 -132 l 58 -122 l 146 0 l 216 0 z "},"˛":{"ha":333,"x_min":29,"x_max":298,"o":"m 298 -281 q 244 -303 279 -292 q 164 -314 210 -314 q 111 -305 136 -314 q 68 -279 86 -296 q 40 -238 50 -262 q 29 -184 29 -214 q 39 -127 29 -153 q 66 -79 49 -101 q 106 -38 83 -57 q 155 0 129 -18 l 227 0 q 160 -86 183 -43 q 138 -175 138 -130 q 143 -202 138 -189 q 158 -223 149 -214 q 179 -238 167 -233 q 205 -243 191 -243 q 279 -222 252 -243 l 298 -281 z "},"ˇ":{"ha":333,"x_min":-60,"x_max":393,"o":"m -60 997 l 74 997 l 167 878 l 167 878 l 260 997 l 393 997 l 245 794 l 87 794 l -60 997 z "},"—":{"ha":1389,"x_min":0,"x_max":1389,"o":"m 0 452 l 1389 452 l 1389 318 l 0 318 l 0 452 z "},"Æ":{"ha":1259,"x_min":-16,"x_max":1223,"o":"m 591 221 l 262 221 l 143 0 l -16 0 l 522 989 l 1223 989 l 1223 847 l 742 847 l 742 565 l 1153 565 l 1153 432 l 742 432 l 742 142 l 1223 142 l 1223 0 l 591 0 l 591 221 m 591 354 l 591 855 l 589 855 l 333 354 l 591 354 z "},"ª":{"ha":452,"x_min":8,"x_max":415,"o":"m 307 610 l 304 610 q 193 564 277 564 q 52 603 94 564 q 8 689 8 640 q 47 787 8 749 q 151 826 83 826 l 307 826 l 307 851 q 277 899 306 890 q 212 905 248 905 q 142 900 163 905 q 110 873 121 892 l 110 873 l 37 935 q 107 986 66 972 q 208 997 146 997 q 415 859 411 1002 l 415 570 l 307 570 l 307 610 m 307 743 l 196 743 q 117 697 118 745 q 126 679 117 688 q 146 665 134 671 q 203 656 172 656 q 290 669 269 656 q 307 718 309 684 l 307 743 z "},"Ł":{"ha":772,"x_min":3,"x_max":736,"o":"m 3 262 l 3 262 l 3 387 l 104 464 l 104 989 l 254 989 l 254 570 l 254 570 l 469 725 l 469 725 l 469 600 l 254 444 l 254 142 l 736 142 l 736 0 l 104 0 l 104 339 l 3 262 z "},"Ø":{"ha":847,"x_min":71,"x_max":777,"o":"m 163 103 q 114 170 132 139 q 94 212 103 192 q 81 265 86 233 q 71 494 71 325 q 81 725 71 667 q 114 819 92 783 q 229 941 150 888 q 424 997 307 996 q 627 936 545 996 l 627 936 l 694 1058 l 694 1058 l 758 1023 l 684 888 q 733 819 715 854 q 768 725 758 783 q 777 494 777 667 q 768 265 777 325 q 733 170 758 205 q 621 49 699 101 q 424 -8 542 -5 q 220 56 301 -7 l 220 56 l 150 -69 l 150 -69 l 86 -35 l 163 103 m 551 802 q 424 847 503 846 q 333 826 371 846 q 271 775 294 806 q 232 693 241 743 q 221 494 221 640 q 227 333 221 386 q 245 253 232 279 l 245 253 l 551 802 m 294 191 q 424 142 340 143 q 517 164 477 142 q 576 214 554 183 q 616 297 606 245 q 627 494 627 349 q 622 660 627 607 q 600 739 616 713 l 600 739 l 294 191 z "},"Œ":{"ha":1286,"x_min":71,"x_max":1250,"o":"m 221 494 q 232 297 221 349 q 271 214 241 245 q 333 164 294 183 q 424 142 371 142 q 517 164 477 142 q 576 214 554 183 q 616 297 606 245 q 627 494 627 349 q 616 693 627 640 q 576 775 606 743 q 517 826 554 806 q 424 847 477 846 q 333 826 371 846 q 271 775 294 806 q 232 693 241 743 q 221 494 221 640 m 627 78 q 534 16 591 39 q 424 -8 477 -8 q 229 49 307 -5 q 114 170 150 101 q 94 212 103 192 q 81 265 86 233 q 71 494 71 325 q 81 725 71 667 q 114 819 92 783 q 229 941 150 888 q 424 997 307 996 q 534 978 482 997 q 627 912 587 958 l 627 912 l 627 989 l 1247 989 l 1247 847 l 777 847 l 777 565 l 1177 565 l 1177 432 l 777 432 l 777 142 l 1250 142 l 1250 0 l 627 0 l 627 78 z "},"º":{"ha":452,"x_min":21,"x_max":431,"o":"m 21 781 q 31 876 21 843 q 65 936 39 909 q 227 997 125 997 q 386 936 326 997 q 422 876 412 909 q 431 781 431 843 q 422 686 431 718 q 386 625 412 652 q 225 564 326 564 q 65 625 125 564 q 31 686 39 652 q 21 781 21 718 m 129 781 q 150 689 126 715 q 225 656 175 656 q 301 689 277 656 q 319 726 315 707 q 322 781 322 745 q 301 872 323 846 q 227 905 277 904 q 150 872 175 904 q 134 838 136 857 q 129 781 129 818 z "},"æ":{"ha":1080,"x_min":26,"x_max":1023,"o":"m 62 610 q 300 713 143 715 q 529 623 465 714 l 529 623 q 619 689 562 665 q 733 713 675 713 q 937 633 854 711 q 1023 415 1022 554 l 1023 298 l 585 298 q 633 170 585 214 q 753 125 679 125 q 907 193 839 125 l 907 193 l 1010 106 q 755 -8 901 -9 q 621 16 680 -8 q 510 100 559 39 l 510 100 q 410 17 469 40 q 286 -8 349 -8 q 101 47 174 -7 q 26 207 28 103 q 82 351 26 290 q 237 415 135 414 l 452 415 l 452 489 q 307 579 453 582 q 224 568 254 579 q 174 525 192 555 l 174 525 l 62 610 m 282 298 q 160 214 158 296 q 192 153 160 178 q 293 125 222 125 q 418 146 382 123 q 452 248 452 168 l 452 298 l 282 298 m 882 415 q 838 539 879 497 q 733 579 797 579 q 629 539 669 579 q 585 415 589 497 l 882 415 z "},"ı":{"ha":333,"x_min":96,"x_max":237,"o":"m 96 704 l 237 704 l 237 0 l 96 0 l 96 704 z "},"ł":{"ha":358,"x_min":0,"x_max":335,"o":"m 0 357 l 0 357 l 0 460 l 92 532 l 92 989 l 233 989 l 233 640 l 233 640 l 325 713 l 325 713 l 325 610 l 233 538 l 233 182 q 279 134 235 134 l 335 134 l 335 0 l 272 0 q 144 39 195 0 q 92 171 92 78 l 92 429 l 0 357 z "},"ø":{"ha":694,"x_min":56,"x_max":637,"o":"m 420 553 q 347 571 389 571 q 281 557 311 571 q 233 519 252 543 q 207 461 215 494 q 199 353 199 427 q 204 260 199 292 q 221 205 208 227 l 221 205 l 420 553 m 144 72 q 74 189 92 121 q 57 353 56 257 q 75 524 57 464 q 134 622 94 582 q 215 685 163 657 q 347 713 267 711 q 493 676 437 711 l 554 782 l 554 782 l 615 746 l 550 633 q 618 530 597 590 q 633 456 629 500 q 637 353 637 412 q 621 183 637 241 q 561 82 603 125 q 528 52 547 66 q 482 22 510 35 q 347 -8 431 -7 q 203 29 257 -7 l 203 29 l 140 -78 l 140 -78 l 79 -41 l 144 72 m 273 153 q 347 134 307 134 q 415 149 386 134 q 461 184 446 164 q 489 245 482 211 q 496 351 496 279 q 492 447 496 414 q 473 500 486 479 l 473 500 l 273 153 z "},"œ":{"ha":1133,"x_min":57,"x_max":1076,"o":"m 1076 298 l 637 298 q 686 170 637 214 q 806 125 732 125 q 960 193 892 125 l 960 193 l 1063 106 q 808 -8 954 -9 q 568 104 636 -4 l 568 104 q 347 -8 490 -5 q 215 22 267 -7 q 134 82 163 49 q 75 183 94 125 q 57 353 57 241 q 75 524 57 464 q 134 622 94 582 q 215 685 163 657 q 347 713 267 711 q 568 603 481 711 l 568 603 q 786 713 654 711 q 990 633 907 711 q 1076 415 1075 554 l 1076 298 m 496 351 q 489 468 496 432 q 461 528 482 503 q 415 565 446 551 q 347 579 386 579 q 281 565 311 579 q 233 528 252 551 q 207 468 215 503 q 199 353 199 433 q 207 237 199 272 q 233 176 215 203 q 281 140 252 155 q 347 125 311 125 q 415 140 386 125 q 461 176 446 155 q 489 237 482 203 q 496 351 496 272 m 935 415 q 890 539 932 497 q 786 579 850 579 q 682 539 722 579 q 637 415 642 497 l 935 415 z "},"ß":{"ha":746,"x_min":89,"x_max":657,"o":"m 355 669 l 440 669 q 494 687 473 669 q 515 751 515 705 q 484 833 515 810 q 385 855 452 855 q 313 850 342 855 q 266 834 284 845 q 239 806 248 823 q 231 766 231 789 l 231 0 l 89 0 l 89 766 q 112 868 90 825 q 173 940 134 911 q 266 983 212 968 q 385 997 320 997 q 495 980 445 996 q 581 935 545 964 q 636 861 616 905 q 657 762 656 818 q 555 606 656 647 q 657 452 657 564 l 657 200 q 643 122 656 158 q 603 59 629 85 q 542 16 578 32 q 461 0 506 1 l 374 0 l 374 134 l 424 134 q 495 150 474 134 q 515 207 515 165 l 515 454 q 497 515 515 495 q 437 536 478 536 l 355 536 l 355 669 z "},"÷":{"ha":833,"x_min":65,"x_max":768,"o":"m 65 406 l 768 406 l 768 297 l 65 297 l 65 406 m 323 639 q 351 705 323 679 q 416 732 378 732 q 484 705 457 732 q 510 639 510 679 q 484 574 510 600 q 416 546 457 546 q 351 574 378 546 q 323 639 323 600 m 323 64 q 351 130 323 104 q 416 157 378 157 q 484 130 457 157 q 510 64 510 104 q 484 -1 510 25 q 416 -29 457 -28 q 351 -1 378 -28 q 323 64 323 25 z "},"¾":{"ha":1002,"x_min":7,"x_max":957,"o":"m 775 1013 l 867 1013 l 268 -24 l 176 -24 l 775 1013 m 522 186 l 737 590 l 854 590 l 643 186 l 794 186 l 794 339 l 911 339 l 911 186 l 957 186 l 957 86 l 911 86 l 911 0 l 794 0 l 794 86 l 522 86 l 522 186 m 158 750 l 203 750 q 277 772 249 750 q 302 826 302 791 q 281 878 302 857 q 221 897 257 897 q 163 880 189 897 q 127 825 138 863 l 11 825 q 72 949 20 901 q 208 997 123 996 q 366 946 311 996 q 419 828 419 896 q 406 762 419 794 q 349 705 390 730 q 410 647 391 682 q 427 575 427 614 q 368 443 425 493 q 211 393 311 393 q 7 559 41 391 l 123 559 q 218 493 144 494 q 285 515 258 493 q 310 572 309 536 q 281 636 309 612 q 210 659 253 659 l 158 659 l 158 750 z "},"¼":{"ha":1002,"x_min":71,"x_max":957,"o":"m 733 1013 l 825 1013 l 227 -24 l 135 -24 l 733 1013 m 522 186 l 737 590 l 854 590 l 643 186 l 794 186 l 794 339 l 911 339 l 911 186 l 957 186 l 957 86 l 911 86 l 911 0 l 794 0 l 794 86 l 522 86 l 522 186 m 71 814 l 71 814 l 71 930 l 163 991 l 279 991 l 279 399 l 163 399 l 163 875 l 71 814 z "},"¹":{"ha":433,"x_min":71,"x_max":279,"o":"m 71 814 l 71 814 l 71 930 l 163 991 l 279 991 l 279 399 l 163 399 l 163 875 l 71 814 z "},"×":{"ha":833,"x_min":93,"x_max":741,"o":"m 342 351 l 93 599 l 170 676 l 170 676 l 416 428 l 416 428 l 663 676 l 663 676 l 741 599 l 492 351 l 741 106 l 663 29 l 663 29 l 416 278 l 416 278 l 170 29 l 170 29 l 93 106 l 342 351 z "},"®":{"ha":1111,"x_min":53,"x_max":1058,"o":"m 465 545 l 534 545 q 643 557 597 543 q 689 627 688 572 q 648 694 688 677 q 557 709 610 709 l 465 709 l 465 545 m 366 802 l 587 802 q 789 627 789 803 q 746 501 787 541 q 639 456 703 463 l 807 215 l 690 215 l 522 453 l 465 453 l 465 215 l 366 215 l 366 802 m 53 494 q 201 851 56 708 q 555 997 342 994 q 912 851 770 994 q 1058 494 1055 708 q 912 140 1055 281 q 555 -8 770 -5 q 201 140 342 -5 q 53 494 56 281 m 161 494 q 275 207 163 317 q 555 92 383 93 q 839 207 729 93 q 950 494 949 317 q 839 785 949 675 q 555 897 729 896 q 275 785 383 896 q 161 494 163 675 z "},"Þ":{"ha":823,"x_min":104,"x_max":791,"o":"m 254 355 l 479 355 q 549 371 519 355 q 599 408 578 386 q 642 515 642 457 q 599 623 642 575 q 477 675 555 673 l 254 675 l 254 355 m 104 989 l 254 989 l 254 817 l 482 817 q 714 721 635 814 q 791 515 791 629 q 714 311 791 401 q 482 214 635 216 l 254 214 l 254 0 l 104 0 l 104 989 z "},"¦":{"ha":309,"x_min":100,"x_max":208,"o":"m 100 368 l 208 368 l 208 -8 l 100 -8 l 100 368 m 100 997 l 208 997 l 208 621 l 100 621 l 100 997 z "},"Ð":{"ha":875,"x_min":0,"x_max":804,"o":"m 104 432 l 0 432 l 0 565 l 104 565 l 104 989 l 450 989 q 751 822 651 987 q 797 705 787 766 q 804 494 804 644 q 793 272 804 335 q 777 215 787 240 q 749 164 765 191 q 628 49 705 94 q 440 0 551 0 l 104 0 l 104 432 m 443 565 l 443 432 l 254 432 l 254 142 l 433 142 q 616 228 559 142 q 648 309 642 260 q 654 489 654 357 q 648 673 654 618 q 610 764 640 729 q 433 847 547 850 l 254 847 l 254 565 l 443 565 z "},"½":{"ha":1002,"x_min":71,"x_max":957,"o":"m 699 1013 l 790 1013 l 192 -24 l 100 -24 l 699 1013 m 565 100 l 810 361 q 840 428 840 390 q 821 479 840 460 q 764 498 800 498 q 686 412 693 497 l 570 412 q 625 549 570 497 q 760 599 676 597 q 903 550 848 597 q 957 428 956 500 q 949 372 957 399 q 912 317 939 346 l 707 100 l 957 100 l 957 0 l 565 0 l 565 100 m 71 814 l 71 814 l 71 930 l 163 991 l 279 991 l 279 399 l 163 399 l 163 875 l 71 814 z "},"−":{"ha":833,"x_min":65,"x_max":768,"o":"m 65 406 l 768 406 l 768 297 l 65 297 l 65 406 z "},"ç":{"ha":616,"x_min":37,"x_max":610,"o":"m 332 -8 q 127 85 214 -1 q 37 351 39 171 q 138 629 40 543 q 357 713 232 714 q 501 679 439 711 q 610 590 564 646 l 505 497 l 505 497 q 362 571 452 568 q 179 351 182 574 q 362 134 182 130 q 505 207 452 135 l 505 207 l 610 114 q 404 -7 532 20 l 346 -83 l 349 -83 q 386 -78 364 -78 q 476 -109 444 -78 q 509 -183 509 -139 q 458 -281 507 -250 q 338 -314 408 -314 q 197 -281 269 -313 l 222 -222 q 319 -243 269 -241 q 400 -184 397 -243 q 380 -146 400 -158 q 332 -134 361 -134 q 279 -149 306 -132 l 249 -122 l 332 -8 z "},"ð":{"ha":694,"x_min":57,"x_max":644,"o":"m 496 351 q 489 461 496 427 q 461 519 482 494 q 415 557 446 543 q 347 571 386 571 q 281 557 311 571 q 233 519 252 543 q 207 461 215 494 q 199 353 199 427 q 207 245 199 279 q 233 184 215 211 q 281 149 252 164 q 347 134 311 134 q 415 149 386 134 q 461 184 446 164 q 489 245 482 211 q 496 351 496 279 m 208 826 l 323 886 q 200 943 272 920 l 244 1047 l 244 1047 q 447 950 370 1010 l 447 950 l 591 1025 l 591 1025 l 644 949 l 519 883 q 621 688 599 793 q 637 375 639 582 q 625 193 639 252 q 561 82 610 134 q 528 52 547 66 q 482 22 510 35 q 347 -8 431 -7 q 215 22 267 -7 q 134 82 163 49 q 75 183 94 125 q 57 353 57 241 q 75 524 57 464 q 134 622 94 582 q 212 685 163 657 q 335 713 262 711 q 416 700 376 713 q 486 650 454 686 l 489 652 q 401 822 467 758 l 401 822 l 261 750 l 261 750 l 208 826 z "},"±":{"ha":833,"x_min":65,"x_max":768,"o":"m 362 393 l 65 393 l 65 501 l 362 501 l 362 703 l 471 703 l 471 501 l 768 501 l 768 393 l 471 393 l 471 192 l 362 192 l 362 393 m 65 109 l 768 109 l 768 0 l 65 0 l 65 109 z "},"Ç":{"ha":772,"x_min":71,"x_max":771,"o":"m 403 -8 q 222 54 294 1 q 114 170 150 107 q 94 212 103 192 q 81 265 86 233 q 71 494 71 325 q 81 725 71 667 q 114 819 92 783 q 229 941 150 888 q 424 997 307 996 q 657 912 567 996 q 771 704 747 828 l 612 704 q 546 806 594 764 q 424 847 496 846 q 333 826 371 846 q 271 775 294 806 q 232 693 241 743 q 221 494 221 640 q 232 297 221 349 q 271 214 241 245 q 333 164 294 183 q 424 142 371 142 q 612 277 550 142 l 771 277 q 475 -5 707 26 l 416 -83 l 419 -83 q 457 -78 435 -78 q 547 -109 515 -78 q 579 -183 579 -139 q 529 -281 578 -250 q 408 -314 479 -314 q 268 -281 340 -313 l 293 -222 q 390 -243 340 -241 q 471 -184 468 -243 q 452 -146 471 -158 q 403 -134 432 -134 q 350 -149 376 -132 l 319 -122 l 403 -8 z "},"þ":{"ha":721,"x_min":92,"x_max":654,"o":"m 92 989 l 233 989 l 233 631 l 233 631 q 415 713 304 709 q 604 621 545 709 q 644 533 633 587 q 654 351 654 479 q 644 172 654 227 q 604 83 633 118 q 528 18 575 43 q 415 -8 481 -7 q 318 16 361 -8 q 233 75 272 37 l 233 75 l 233 -285 l 92 -285 l 92 989 m 372 134 q 452 153 422 134 q 493 203 481 172 q 511 273 507 235 q 513 351 513 311 q 511 433 513 393 q 493 504 507 473 q 452 554 481 536 q 372 571 422 571 q 297 551 325 571 q 254 500 268 532 q 237 431 241 468 q 233 351 233 391 q 237 277 233 314 q 254 205 241 237 q 297 154 268 174 q 372 134 325 134 z "},"©":{"ha":1111,"x_min":53,"x_max":1058,"o":"m 828 407 q 574 174 781 176 q 350 267 431 175 q 268 494 268 354 q 347 726 268 639 q 570 815 425 814 q 743 760 673 815 q 828 589 814 704 l 728 589 q 675 680 717 646 q 571 715 632 715 q 428 652 479 714 q 376 497 376 590 q 431 343 376 408 q 574 273 484 275 q 677 311 635 273 q 728 407 718 347 l 828 407 m 53 494 q 201 851 56 708 q 555 997 342 994 q 912 851 770 994 q 1058 494 1055 708 q 912 140 1055 281 q 555 -8 770 -5 q 201 140 342 -5 q 53 494 56 281 m 161 494 q 275 207 163 317 q 555 92 383 93 q 839 207 729 93 q 950 494 949 317 q 839 785 949 675 q 555 897 729 896 q 275 785 383 896 q 161 494 163 675 z "},"¬":{"ha":833,"x_min":65,"x_max":768,"o":"m 660 436 l 65 436 l 65 545 l 768 545 l 768 150 l 660 150 l 660 436 z "},"²":{"ha":433,"x_min":21,"x_max":412,"o":"m 21 498 l 265 760 q 296 826 296 789 q 277 878 296 859 q 220 897 256 897 q 142 811 149 896 l 25 811 q 81 947 25 896 q 215 997 132 996 q 358 949 304 996 q 412 826 411 899 q 404 771 412 797 q 368 715 395 745 l 163 498 l 412 498 l 412 399 l 21 399 l 21 498 z "},"³":{"ha":433,"x_min":7,"x_max":427,"o":"m 158 750 l 203 750 q 277 772 249 750 q 302 826 302 791 q 281 878 302 857 q 221 897 257 897 q 163 880 189 897 q 127 825 138 863 l 11 825 q 72 949 20 901 q 208 997 123 996 q 366 946 311 996 q 419 828 419 896 q 406 762 419 794 q 349 705 390 730 q 410 647 391 682 q 427 575 427 614 q 368 443 425 493 q 211 393 311 393 q 7 559 41 391 l 123 559 q 218 493 144 494 q 285 515 258 493 q 310 572 309 536 q 281 636 309 612 q 210 659 253 659 l 158 659 l 158 750 z "},"™":{"ha":1375,"x_min":56,"x_max":1270,"o":"m 228 889 l 56 889 l 56 989 l 509 989 l 509 889 l 336 889 l 336 416 l 228 416 l 228 889 m 1161 880 l 1158 880 l 975 416 l 904 416 l 722 880 l 720 880 l 720 416 l 611 416 l 611 989 l 781 989 l 940 567 l 940 567 l 1100 989 l 1270 989 l 1270 416 l 1161 416 l 1161 880 z "},"°":{"ha":555,"x_min":79,"x_max":476,"o":"m 79 799 q 138 940 81 884 q 278 997 195 996 q 419 940 364 996 q 476 799 475 884 q 419 659 475 715 q 278 600 364 602 q 138 659 195 602 q 79 799 81 715 m 150 799 q 189 709 150 745 q 278 671 224 671 q 370 709 333 671 q 406 799 404 745 q 370 890 404 854 q 278 926 333 925 q 189 890 224 925 q 150 799 150 854 z "},"µ":{"ha":746,"x_min":92,"x_max":654,"o":"m 92 704 l 233 704 l 233 285 q 273 174 233 214 q 374 134 313 134 q 473 174 435 134 q 513 285 513 214 l 513 704 l 654 704 l 654 0 l 513 0 l 513 75 l 510 75 q 328 -8 440 -8 q 233 12 279 -8 l 233 -285 l 92 -285 l 92 704 z "},"ÿ":{"ha":616,"x_min":-9,"x_max":627,"o":"m -9 704 l 140 704 l 307 211 l 310 211 l 476 704 l 627 704 l 323 -146 q 243 -256 294 -225 q 125 -285 191 -285 l 78 -285 l 78 -151 l 119 -151 q 171 -136 147 -151 q 204 -90 195 -121 l 243 28 l -9 704 m 359 964 l 509 964 l 509 814 l 359 814 l 359 964 m 115 964 l 264 964 l 264 814 l 115 814 l 115 964 z "},"ý":{"ha":616,"x_min":-9,"x_max":627,"o":"m -9 704 l 140 704 l 307 211 l 310 211 l 476 704 l 627 704 l 323 -146 q 243 -256 294 -225 q 125 -285 191 -285 l 78 -285 l 78 -151 l 119 -151 q 171 -136 147 -151 q 204 -90 195 -121 l 243 28 l -9 704 m 335 997 l 522 997 l 324 794 l 208 794 l 335 997 z "},"ù":{"ha":746,"x_min":92,"x_max":654,"o":"m 92 704 l 233 704 l 233 285 q 273 174 233 214 q 374 134 313 134 q 473 174 435 134 q 513 285 513 214 l 513 704 l 654 704 l 654 0 l 513 0 l 513 75 l 510 75 q 328 -8 440 -8 q 170 56 240 -7 q 92 236 93 117 l 92 704 m 160 997 l 346 997 l 473 794 l 357 794 l 160 997 z "},"ü":{"ha":746,"x_min":92,"x_max":654,"o":"m 92 704 l 233 704 l 233 285 q 273 174 233 214 q 374 134 313 134 q 473 174 435 134 q 513 285 513 214 l 513 704 l 654 704 l 654 0 l 513 0 l 513 75 l 510 75 q 328 -8 440 -8 q 170 56 240 -7 q 92 236 93 117 l 92 704 m 415 964 l 566 964 l 566 814 l 415 814 l 415 964 m 171 964 l 321 964 l 321 814 l 171 814 l 171 964 z "},"û":{"ha":746,"x_min":92,"x_max":654,"o":"m 92 704 l 233 704 l 233 285 q 273 174 233 214 q 374 134 313 134 q 473 174 435 134 q 513 285 513 214 l 513 704 l 654 704 l 654 0 l 513 0 l 513 75 l 510 75 q 328 -8 440 -8 q 170 56 240 -7 q 92 236 93 117 l 92 704 m 275 794 l 141 794 l 288 997 l 446 997 l 594 794 l 460 794 l 368 913 l 275 794 z "},"ú":{"ha":746,"x_min":92,"x_max":654,"o":"m 92 704 l 233 704 l 233 285 q 273 174 233 214 q 374 134 313 134 q 473 174 435 134 q 513 285 513 214 l 513 704 l 654 704 l 654 0 l 513 0 l 513 75 l 510 75 q 328 -8 440 -8 q 170 56 240 -7 q 92 236 93 117 l 92 704 m 391 997 l 578 997 l 380 794 l 264 794 l 391 997 z "},"š":{"ha":667,"x_min":14,"x_max":615,"o":"m 113 215 q 335 125 199 125 q 435 149 396 125 q 473 215 473 172 q 450 268 473 253 q 387 285 427 283 l 262 296 q 118 355 174 304 q 60 496 61 406 q 136 659 61 604 q 322 713 210 713 q 410 707 371 713 q 482 688 448 700 q 599 616 547 661 l 511 514 l 511 514 q 425 562 471 543 q 322 579 380 579 q 229 555 256 579 q 201 494 201 532 q 222 453 200 471 q 294 428 243 433 l 411 419 q 570 353 521 411 q 615 208 615 296 q 532 50 614 106 q 323 -8 450 -7 q 14 118 151 -8 l 113 215 l 113 215 m 109 997 l 243 997 l 336 878 l 336 878 l 429 997 l 562 997 l 414 794 l 256 794 l 109 997 z "},"õ":{"ha":694,"x_min":57,"x_max":637,"o":"m 57 353 q 75 524 57 464 q 134 622 94 582 q 215 685 163 657 q 347 713 267 711 q 482 685 431 711 q 561 622 533 657 q 621 524 603 582 q 637 353 637 464 q 621 183 637 241 q 561 82 603 125 q 528 52 547 66 q 482 22 510 35 q 347 -8 431 -7 q 215 22 267 -7 q 134 82 163 49 q 75 183 94 125 q 57 353 57 241 m 496 351 q 489 461 496 427 q 461 519 482 494 q 415 557 446 543 q 347 571 386 571 q 281 557 311 571 q 233 519 252 543 q 207 461 215 494 q 199 353 199 427 q 207 245 199 279 q 233 184 215 211 q 281 149 252 164 q 347 134 311 134 q 415 149 386 134 q 461 184 446 164 q 489 245 482 211 q 496 351 496 279 m 100 808 q 153 926 112 882 q 258 969 193 969 q 309 962 284 969 q 357 945 334 956 q 405 926 382 933 q 446 917 425 917 q 487 929 467 916 q 511 978 505 941 l 595 978 q 549 867 585 912 q 442 817 513 818 q 391 826 417 817 q 338 843 363 833 q 242 868 286 867 q 206 857 227 868 q 184 808 184 843 l 100 808 z "},"ò":{"ha":694,"x_min":57,"x_max":637,"o":"m 57 353 q 75 524 57 464 q 134 622 94 582 q 215 685 163 657 q 347 713 267 711 q 482 685 431 711 q 561 622 533 657 q 621 524 603 582 q 637 353 637 464 q 621 183 637 241 q 561 82 603 125 q 528 52 547 66 q 482 22 510 35 q 347 -8 431 -7 q 215 22 267 -7 q 134 82 163 49 q 75 183 94 125 q 57 353 57 241 m 496 351 q 489 461 496 427 q 461 519 482 494 q 415 557 446 543 q 347 571 386 571 q 281 557 311 571 q 233 519 252 543 q 207 461 215 494 q 199 353 199 427 q 207 245 199 279 q 233 184 215 211 q 281 149 252 164 q 347 134 311 134 q 415 149 386 134 q 461 184 446 164 q 489 245 482 211 q 496 351 496 279 m 143 997 l 329 997 l 456 794 l 340 794 l 143 997 z "},"ö":{"ha":694,"x_min":57,"x_max":637,"o":"m 57 353 q 75 524 57 464 q 134 622 94 582 q 215 685 163 657 q 347 713 267 711 q 482 685 431 711 q 561 622 533 657 q 621 524 603 582 q 637 353 637 464 q 621 183 637 241 q 561 82 603 125 q 528 52 547 66 q 482 22 510 35 q 347 -8 431 -7 q 215 22 267 -7 q 134 82 163 49 q 75 183 94 125 q 57 353 57 241 m 496 351 q 489 461 496 427 q 461 519 482 494 q 415 557 446 543 q 347 571 386 571 q 281 557 311 571 q 233 519 252 543 q 207 461 215 494 q 199 353 199 427 q 207 245 199 279 q 233 184 215 211 q 281 149 252 164 q 347 134 311 134 q 415 149 386 134 q 461 184 446 164 q 489 245 482 211 q 496 351 496 279 m 397 964 l 547 964 l 547 814 l 397 814 l 397 964 m 153 964 l 302 964 l 302 814 l 153 814 l 153 964 z "},"ô":{"ha":694,"x_min":57,"x_max":637,"o":"m 57 353 q 75 524 57 464 q 134 622 94 582 q 215 685 163 657 q 347 713 267 711 q 482 685 431 711 q 561 622 533 657 q 621 524 603 582 q 637 353 637 464 q 621 183 637 241 q 561 82 603 125 q 528 52 547 66 q 482 22 510 35 q 347 -8 431 -7 q 215 22 267 -7 q 134 82 163 49 q 75 183 94 125 q 57 353 57 241 m 496 351 q 489 461 496 427 q 461 519 482 494 q 415 557 446 543 q 347 571 386 571 q 281 557 311 571 q 233 519 252 543 q 207 461 215 494 q 199 353 199 427 q 207 245 199 279 q 233 184 215 211 q 281 149 252 164 q 347 134 311 134 q 415 149 386 134 q 461 184 446 164 q 489 245 482 211 q 496 351 496 279 m 256 794 l 123 794 l 270 997 l 428 997 l 576 794 l 442 794 l 349 913 l 256 794 z "},"ó":{"ha":694,"x_min":57,"x_max":637,"o":"m 57 353 q 75 524 57 464 q 134 622 94 582 q 215 685 163 657 q 347 713 267 711 q 482 685 431 711 q 561 622 533 657 q 621 524 603 582 q 637 353 637 464 q 621 183 637 241 q 561 82 603 125 q 528 52 547 66 q 482 22 510 35 q 347 -8 431 -7 q 215 22 267 -7 q 134 82 163 49 q 75 183 94 125 q 57 353 57 241 m 496 351 q 489 461 496 427 q 461 519 482 494 q 415 557 446 543 q 347 571 386 571 q 281 557 311 571 q 233 519 252 543 q 207 461 215 494 q 199 353 199 427 q 207 245 199 279 q 233 184 215 211 q 281 149 252 164 q 347 134 311 134 q 415 149 386 134 q 461 184 446 164 q 489 245 482 211 q 496 351 496 279 m 373 997 l 559 997 l 362 794 l 245 794 l 373 997 z "},"ñ":{"ha":746,"x_min":92,"x_max":654,"o":"m 92 704 l 233 704 l 233 629 l 236 629 q 419 713 306 713 q 579 651 507 713 q 654 468 651 589 l 654 0 l 513 0 l 513 419 q 473 532 513 493 q 374 571 435 571 q 273 532 313 571 q 233 419 233 493 l 233 0 l 92 0 l 92 704 m 127 808 q 180 926 138 882 q 284 969 220 969 q 335 962 311 969 q 384 945 360 956 q 431 926 409 933 q 473 917 452 917 q 513 929 494 916 q 538 978 531 941 l 621 978 q 576 867 612 912 q 469 817 539 818 q 417 826 444 817 q 364 843 389 833 q 269 868 312 867 q 233 857 254 868 q 210 808 210 843 l 127 808 z "},"ì":{"ha":333,"x_min":-45,"x_max":268,"o":"m 96 704 l 237 704 l 237 0 l 96 0 l 96 704 m -45 997 l 140 997 l 268 794 l 151 794 l -45 997 z "},"ï":{"ha":333,"x_min":-34,"x_max":361,"o":"m 96 704 l 237 704 l 237 0 l 96 0 l 96 704 m 210 964 l 361 964 l 361 814 l 210 814 l 210 964 m -34 964 l 116 964 l 116 814 l -34 814 l -34 964 z "},"î":{"ha":333,"x_min":-64,"x_max":389,"o":"m 96 704 l 237 704 l 237 0 l 96 0 l 96 704 m 69 794 l -64 794 l 83 997 l 241 997 l 389 794 l 255 794 l 162 913 l 69 794 z "},"í":{"ha":333,"x_min":59,"x_max":373,"o":"m 96 704 l 237 704 l 237 0 l 96 0 l 96 704 m 186 997 l 373 997 l 176 794 l 59 794 l 186 997 z "},"è":{"ha":694,"x_min":57,"x_max":637,"o":"m 199 298 q 248 170 199 214 q 367 125 293 125 q 521 193 453 125 l 521 193 l 623 106 q 370 -8 515 -9 q 261 8 314 -8 q 210 32 235 17 q 160 64 183 45 q 87 174 115 103 q 57 350 57 241 q 83 524 57 454 q 151 635 110 594 q 245 694 193 676 q 347 713 297 713 q 551 633 468 711 q 637 415 636 554 l 637 298 l 199 298 m 496 415 q 452 539 493 497 q 347 579 411 579 q 243 539 283 579 q 199 415 203 497 l 496 415 m 143 997 l 329 997 l 456 794 l 340 794 l 143 997 z "},"ë":{"ha":694,"x_min":57,"x_max":637,"o":"m 199 298 q 248 170 199 214 q 367 125 293 125 q 521 193 453 125 l 521 193 l 623 106 q 370 -8 515 -9 q 261 8 314 -8 q 210 32 235 17 q 160 64 183 45 q 87 174 115 103 q 57 350 57 241 q 83 524 57 454 q 151 635 110 594 q 245 694 193 676 q 347 713 297 713 q 551 633 468 711 q 637 415 636 554 l 637 298 l 199 298 m 496 415 q 452 539 493 497 q 347 579 411 579 q 243 539 283 579 q 199 415 203 497 l 496 415 m 397 964 l 547 964 l 547 814 l 397 814 l 397 964 m 153 964 l 302 964 l 302 814 l 153 814 l 153 964 z "},"ê":{"ha":694,"x_min":57,"x_max":637,"o":"m 199 298 q 248 170 199 214 q 367 125 293 125 q 521 193 453 125 l 521 193 l 623 106 q 370 -8 515 -9 q 261 8 314 -8 q 210 32 235 17 q 160 64 183 45 q 87 174 115 103 q 57 350 57 241 q 83 524 57 454 q 151 635 110 594 q 245 694 193 676 q 347 713 297 713 q 551 633 468 711 q 637 415 636 554 l 637 298 l 199 298 m 496 415 q 452 539 493 497 q 347 579 411 579 q 243 539 283 579 q 199 415 203 497 l 496 415 m 256 794 l 123 794 l 270 997 l 428 997 l 576 794 l 442 794 l 349 913 l 256 794 z "},"é":{"ha":694,"x_min":57,"x_max":637,"o":"m 199 298 q 248 170 199 214 q 367 125 293 125 q 521 193 453 125 l 521 193 l 623 106 q 370 -8 515 -9 q 261 8 314 -8 q 210 32 235 17 q 160 64 183 45 q 87 174 115 103 q 57 350 57 241 q 83 524 57 454 q 151 635 110 594 q 245 694 193 676 q 347 713 297 713 q 551 633 468 711 q 637 415 636 554 l 637 298 l 199 298 m 496 415 q 452 539 493 497 q 347 579 411 579 q 243 539 283 579 q 199 415 203 497 l 496 415 m 373 997 l 559 997 l 362 794 l 245 794 l 373 997 z "},"ã":{"ha":694,"x_min":36,"x_max":603,"o":"m 461 62 l 458 62 q 397 9 439 26 q 285 -8 357 -8 q 103 54 167 -7 q 36 207 36 114 q 94 354 36 296 q 265 415 153 414 l 461 415 l 461 489 q 317 579 463 582 q 233 568 264 579 q 183 525 201 555 l 183 525 l 72 610 q 310 713 153 715 q 522 663 443 714 q 603 481 602 610 l 603 0 l 461 0 l 461 62 m 461 298 l 292 298 q 170 214 168 296 q 201 153 170 178 q 302 125 232 125 q 428 146 391 123 q 461 248 461 168 l 461 298 m 102 808 q 155 926 113 882 q 259 969 195 969 q 310 962 286 969 q 359 945 335 956 q 406 926 384 933 q 448 917 427 917 q 488 929 469 916 q 513 978 506 941 l 596 978 q 551 867 587 912 q 444 817 514 818 q 392 826 418 817 q 339 843 364 833 q 243 868 287 867 q 208 857 229 868 q 185 808 185 843 l 102 808 z "},"å":{"ha":694,"x_min":36,"x_max":603,"o":"m 461 62 l 458 62 q 397 9 439 26 q 285 -8 357 -8 q 103 54 167 -7 q 36 207 36 114 q 94 354 36 296 q 265 415 153 414 l 461 415 l 461 489 q 317 579 463 582 q 233 568 264 579 q 183 525 201 555 l 183 525 l 72 610 q 310 713 153 715 q 522 663 443 714 q 603 481 602 610 l 603 0 l 461 0 l 461 62 m 461 298 l 292 298 q 170 214 168 296 q 201 153 170 178 q 302 125 232 125 q 428 146 391 123 q 461 248 461 168 l 461 298 m 210 917 q 252 1019 210 979 q 353 1060 293 1058 q 455 1019 415 1058 q 496 917 494 979 q 455 817 494 857 q 353 774 415 774 q 252 817 293 774 q 210 917 210 857 m 265 917 q 292 855 265 880 q 353 829 316 829 q 415 855 391 829 q 440 917 439 880 q 415 979 439 956 q 353 1004 391 1003 q 292 979 316 1003 q 265 917 265 956 z "},"à":{"ha":694,"x_min":36,"x_max":603,"o":"m 461 62 l 458 62 q 397 9 439 26 q 285 -8 357 -8 q 103 54 167 -7 q 36 207 36 114 q 94 354 36 296 q 265 415 153 414 l 461 415 l 461 489 q 317 579 463 582 q 233 568 264 579 q 183 525 201 555 l 183 525 l 72 610 q 310 713 153 715 q 522 663 443 714 q 603 481 602 610 l 603 0 l 461 0 l 461 62 m 461 298 l 292 298 q 170 214 168 296 q 201 153 170 178 q 302 125 232 125 q 428 146 391 123 q 461 248 461 168 l 461 298 m 144 997 l 330 997 l 457 794 l 340 794 l 144 997 z "},"ä":{"ha":694,"x_min":36,"x_max":603,"o":"m 461 62 l 458 62 q 397 9 439 26 q 285 -8 357 -8 q 103 54 167 -7 q 36 207 36 114 q 94 354 36 296 q 265 415 153 414 l 461 415 l 461 489 q 317 579 463 582 q 233 568 264 579 q 183 525 201 555 l 183 525 l 72 610 q 310 713 153 715 q 522 663 443 714 q 603 481 602 610 l 603 0 l 461 0 l 461 62 m 461 298 l 292 298 q 170 214 168 296 q 201 153 170 178 q 302 125 232 125 q 428 146 391 123 q 461 248 461 168 l 461 298 m 397 964 l 548 964 l 548 814 l 397 814 l 397 964 m 153 964 l 303 964 l 303 814 l 153 814 l 153 964 z "},"â":{"ha":694,"x_min":36,"x_max":603,"o":"m 461 62 l 458 62 q 397 9 439 26 q 285 -8 357 -8 q 103 54 167 -7 q 36 207 36 114 q 94 354 36 296 q 265 415 153 414 l 461 415 l 461 489 q 317 579 463 582 q 233 568 264 579 q 183 525 201 555 l 183 525 l 72 610 q 310 713 153 715 q 522 663 443 714 q 603 481 602 610 l 603 0 l 461 0 l 461 62 m 461 298 l 292 298 q 170 214 168 296 q 201 153 170 178 q 302 125 232 125 q 428 146 391 123 q 461 248 461 168 l 461 298 m 257 794 l 123 794 l 271 997 l 429 997 l 576 794 l 443 794 l 350 913 l 257 794 z "},"á":{"ha":694,"x_min":36,"x_max":603,"o":"m 461 62 l 458 62 q 397 9 439 26 q 285 -8 357 -8 q 103 54 167 -7 q 36 207 36 114 q 94 354 36 296 q 265 415 153 414 l 461 415 l 461 489 q 317 579 463 582 q 233 568 264 579 q 183 525 201 555 l 183 525 l 72 610 q 310 713 153 715 q 522 663 443 714 q 603 481 602 610 l 603 0 l 461 0 l 461 62 m 461 298 l 292 298 q 170 214 168 296 q 201 153 170 178 q 302 125 232 125 q 428 146 391 123 q 461 248 461 168 l 461 298 m 374 997 l 560 997 l 363 794 l 246 794 l 374 997 z "},"Ÿ":{"ha":694,"x_min":-21,"x_max":715,"o":"m 277 407 l -21 989 l 138 989 l 347 550 l 347 550 l 557 989 l 715 989 l 418 407 l 418 0 l 277 0 l 277 407 m 399 1206 l 550 1206 l 550 1057 l 399 1057 l 399 1206 m 155 1206 l 305 1206 l 305 1057 l 155 1057 l 155 1206 z "},"Ý":{"ha":694,"x_min":-21,"x_max":715,"o":"m 277 407 l -21 989 l 138 989 l 347 550 l 347 550 l 557 989 l 715 989 l 418 407 l 418 0 l 277 0 l 277 407 m 376 1240 l 562 1240 l 365 1037 l 248 1037 l 376 1240 z "},"Ù":{"ha":875,"x_min":86,"x_max":789,"o":"m 86 989 l 236 989 l 236 351 q 294 197 237 250 q 437 142 350 142 q 582 197 525 142 q 639 351 637 250 l 639 989 l 789 989 l 789 335 q 688 87 786 179 q 437 -8 589 -7 q 189 87 289 -7 q 86 335 87 179 l 86 989 m 235 1240 l 421 1240 l 549 1037 l 432 1037 l 235 1240 z "},"Ü":{"ha":875,"x_min":86,"x_max":789,"o":"m 86 989 l 236 989 l 236 351 q 294 197 237 250 q 437 142 350 142 q 582 197 525 142 q 639 351 637 250 l 639 989 l 789 989 l 789 335 q 688 87 786 179 q 437 -8 589 -7 q 189 87 289 -7 q 86 335 87 179 l 86 989 m 489 1206 l 640 1206 l 640 1057 l 489 1057 l 489 1206 m 245 1206 l 395 1206 l 395 1057 l 245 1057 l 245 1206 z "},"Û":{"ha":875,"x_min":86,"x_max":789,"o":"m 86 989 l 236 989 l 236 351 q 294 197 237 250 q 437 142 350 142 q 582 197 525 142 q 639 351 637 250 l 639 989 l 789 989 l 789 335 q 688 87 786 179 q 437 -8 589 -7 q 189 87 289 -7 q 86 335 87 179 l 86 989 m 348 1037 l 214 1037 l 361 1240 l 519 1240 l 667 1037 l 534 1037 l 441 1156 l 348 1037 z "},"Ú":{"ha":875,"x_min":86,"x_max":789,"o":"m 86 989 l 236 989 l 236 351 q 294 197 237 250 q 437 142 350 142 q 582 197 525 142 q 639 351 637 250 l 639 989 l 789 989 l 789 335 q 688 87 786 179 q 437 -8 589 -7 q 189 87 289 -7 q 86 335 87 179 l 86 989 m 465 1240 l 652 1240 l 454 1037 l 338 1037 l 465 1240 z "},"Š":{"ha":797,"x_min":18,"x_max":743,"o":"m 117 240 q 397 142 235 143 q 593 279 590 144 q 464 412 594 390 q 333 431 404 420 q 139 525 205 452 q 71 708 71 600 q 157 917 71 838 q 393 997 240 996 q 714 895 578 993 l 631 771 l 631 771 q 386 847 519 844 q 271 812 317 847 q 221 705 222 777 q 254 628 221 663 q 361 579 288 593 q 472 564 401 572 q 677 464 611 545 q 743 279 743 385 q 396 -8 736 -4 q 18 127 176 -8 l 117 240 l 117 240 m 177 1240 l 311 1240 l 404 1120 l 404 1120 l 496 1240 l 630 1240 l 482 1037 l 324 1037 l 177 1240 z "},"Õ":{"ha":847,"x_min":71,"x_max":777,"o":"m 71 494 q 81 725 71 667 q 114 819 92 783 q 229 941 150 888 q 424 997 307 996 q 621 941 542 996 q 733 819 699 888 q 768 725 758 783 q 777 494 777 667 q 768 265 777 325 q 733 170 758 205 q 621 49 699 101 q 424 -8 542 -5 q 229 49 307 -5 q 114 170 150 101 q 94 212 103 192 q 81 265 86 233 q 71 494 71 325 m 221 494 q 232 297 221 349 q 271 214 241 245 q 333 164 294 183 q 424 142 371 142 q 517 164 477 142 q 576 214 554 183 q 616 297 606 245 q 627 494 627 349 q 616 693 627 640 q 576 775 606 743 q 517 826 554 806 q 424 847 477 846 q 333 826 371 846 q 271 775 294 806 q 232 693 241 743 q 221 494 221 640 m 180 1051 q 233 1169 191 1124 q 337 1212 273 1212 q 388 1205 363 1212 q 437 1187 413 1198 q 484 1169 462 1176 q 526 1160 505 1160 q 566 1172 547 1158 q 591 1221 584 1184 l 674 1221 q 629 1109 665 1155 q 522 1059 592 1061 q 470 1069 496 1059 q 417 1086 442 1076 q 321 1111 365 1109 q 286 1100 307 1111 q 263 1051 263 1086 l 180 1051 z "},"Ò":{"ha":847,"x_min":71,"x_max":777,"o":"m 71 494 q 81 725 71 667 q 114 819 92 783 q 229 941 150 888 q 424 997 307 996 q 621 941 542 996 q 733 819 699 888 q 768 725 758 783 q 777 494 777 667 q 768 265 777 325 q 733 170 758 205 q 621 49 699 101 q 424 -8 542 -5 q 229 49 307 -5 q 114 170 150 101 q 94 212 103 192 q 81 265 86 233 q 71 494 71 325 m 221 494 q 232 297 221 349 q 271 214 241 245 q 333 164 294 183 q 424 142 371 142 q 517 164 477 142 q 576 214 554 183 q 616 297 606 245 q 627 494 627 349 q 616 693 627 640 q 576 775 606 743 q 517 826 554 806 q 424 847 477 846 q 333 826 371 846 q 271 775 294 806 q 232 693 241 743 q 221 494 221 640 m 221 1240 l 407 1240 l 534 1037 l 418 1037 l 221 1240 z "},"Ö":{"ha":847,"x_min":71,"x_max":777,"o":"m 71 494 q 81 725 71 667 q 114 819 92 783 q 229 941 150 888 q 424 997 307 996 q 621 941 542 996 q 733 819 699 888 q 768 725 758 783 q 777 494 777 667 q 768 265 777 325 q 733 170 758 205 q 621 49 699 101 q 424 -8 542 -5 q 229 49 307 -5 q 114 170 150 101 q 94 212 103 192 q 81 265 86 233 q 71 494 71 325 m 221 494 q 232 297 221 349 q 271 214 241 245 q 333 164 294 183 q 424 142 371 142 q 517 164 477 142 q 576 214 554 183 q 616 297 606 245 q 627 494 627 349 q 616 693 627 640 q 576 775 606 743 q 517 826 554 806 q 424 847 477 846 q 333 826 371 846 q 271 775 294 806 q 232 693 241 743 q 221 494 221 640 m 475 1206 l 625 1206 l 625 1057 l 475 1057 l 475 1206 m 231 1206 l 380 1206 l 380 1057 l 231 1057 l 231 1206 z "},"Ô":{"ha":847,"x_min":71,"x_max":777,"o":"m 71 494 q 81 725 71 667 q 114 819 92 783 q 229 941 150 888 q 424 997 307 996 q 621 941 542 996 q 733 819 699 888 q 768 725 758 783 q 777 494 777 667 q 768 265 777 325 q 733 170 758 205 q 621 49 699 101 q 424 -8 542 -5 q 229 49 307 -5 q 114 170 150 101 q 94 212 103 192 q 81 265 86 233 q 71 494 71 325 m 221 494 q 232 297 221 349 q 271 214 241 245 q 333 164 294 183 q 424 142 371 142 q 517 164 477 142 q 576 214 554 183 q 616 297 606 245 q 627 494 627 349 q 616 693 627 640 q 576 775 606 743 q 517 826 554 806 q 424 847 477 846 q 333 826 371 846 q 271 775 294 806 q 232 693 241 743 q 221 494 221 640 m 334 1037 l 200 1037 l 347 1240 l 505 1240 l 653 1037 l 519 1037 l 427 1156 l 334 1037 z "},"Ó":{"ha":847,"x_min":71,"x_max":777,"o":"m 71 494 q 81 725 71 667 q 114 819 92 783 q 229 941 150 888 q 424 997 307 996 q 621 941 542 996 q 733 819 699 888 q 768 725 758 783 q 777 494 777 667 q 768 265 777 325 q 733 170 758 205 q 621 49 699 101 q 424 -8 542 -5 q 229 49 307 -5 q 114 170 150 101 q 94 212 103 192 q 81 265 86 233 q 71 494 71 325 m 221 494 q 232 297 221 349 q 271 214 241 245 q 333 164 294 183 q 424 142 371 142 q 517 164 477 142 q 576 214 554 183 q 616 297 606 245 q 627 494 627 349 q 616 693 627 640 q 576 775 606 743 q 517 826 554 806 q 424 847 477 846 q 333 826 371 846 q 271 775 294 806 q 232 693 241 743 q 221 494 221 640 m 451 1240 l 637 1240 l 440 1037 l 323 1037 l 451 1240 z "},"Ñ":{"ha":950,"x_min":104,"x_max":846,"o":"m 104 989 l 245 989 l 693 286 l 696 286 l 696 989 l 846 989 l 846 0 l 704 0 l 257 703 l 254 703 l 254 0 l 104 0 l 104 989 m 231 1051 q 284 1169 243 1124 q 389 1212 324 1212 q 439 1205 415 1212 q 488 1187 465 1198 q 536 1169 513 1176 q 577 1160 556 1160 q 618 1172 598 1158 q 642 1221 635 1184 l 726 1221 q 680 1109 716 1155 q 573 1059 644 1061 q 522 1069 548 1059 q 469 1086 494 1076 q 373 1111 416 1109 q 337 1100 358 1111 q 315 1051 315 1086 l 231 1051 z "},"Ì":{"ha":358,"x_min":-32,"x_max":281,"o":"m 104 989 l 254 989 l 254 0 l 104 0 l 104 989 m -32 1240 l 154 1240 l 281 1037 l 165 1037 l -32 1240 z "},"Ï":{"ha":358,"x_min":-21,"x_max":374,"o":"m 104 989 l 254 989 l 254 0 l 104 0 l 104 989 m 223 1206 l 374 1206 l 374 1057 l 223 1057 l 223 1206 m -21 1206 l 129 1206 l 129 1057 l -21 1057 l -21 1206 z "},"Î":{"ha":358,"x_min":-52,"x_max":401,"o":"m 104 989 l 254 989 l 254 0 l 104 0 l 104 989 m 82 1037 l -52 1037 l 96 1240 l 254 1240 l 401 1037 l 268 1037 l 175 1156 l 82 1037 z "},"Í":{"ha":358,"x_min":72,"x_max":386,"o":"m 104 989 l 254 989 l 254 0 l 104 0 l 104 989 m 199 1240 l 386 1240 l 189 1037 l 72 1037 l 199 1240 z "},"È":{"ha":772,"x_min":104,"x_max":736,"o":"m 104 989 l 736 989 l 736 847 l 254 847 l 254 565 l 665 565 l 665 432 l 254 432 l 254 142 l 736 142 l 736 0 l 104 0 l 104 989 m 224 1240 l 410 1240 l 538 1037 l 421 1037 l 224 1240 z "},"Ë":{"ha":772,"x_min":104,"x_max":736,"o":"m 104 989 l 736 989 l 736 847 l 254 847 l 254 565 l 665 565 l 665 432 l 254 432 l 254 142 l 736 142 l 736 0 l 104 0 l 104 989 m 478 1206 l 629 1206 l 629 1057 l 478 1057 l 478 1206 m 234 1206 l 384 1206 l 384 1057 l 234 1057 l 234 1206 z "},"Ê":{"ha":772,"x_min":104,"x_max":736,"o":"m 104 989 l 736 989 l 736 847 l 254 847 l 254 565 l 665 565 l 665 432 l 254 432 l 254 142 l 736 142 l 736 0 l 104 0 l 104 989 m 338 1037 l 204 1037 l 351 1240 l 509 1240 l 657 1037 l 524 1037 l 431 1156 l 338 1037 z "},"É":{"ha":772,"x_min":104,"x_max":736,"o":"m 104 989 l 736 989 l 736 847 l 254 847 l 254 565 l 665 565 l 665 432 l 254 432 l 254 142 l 736 142 l 736 0 l 104 0 l 104 989 m 454 1240 l 641 1240 l 444 1037 l 327 1037 l 454 1240 z "},"Ã":{"ha":847,"x_min":1,"x_max":846,"o":"m 568 354 l 425 786 l 422 786 l 279 354 l 568 354 m 611 221 l 236 221 l 160 0 l 1 0 l 361 989 l 486 989 l 846 0 l 688 0 l 611 221 m 182 1051 q 235 1169 193 1124 q 339 1212 275 1212 q 390 1205 366 1212 q 439 1187 415 1198 q 486 1169 464 1176 q 528 1160 507 1160 q 568 1172 549 1158 q 593 1221 586 1184 l 676 1221 q 631 1109 667 1155 q 524 1059 594 1061 q 472 1069 498 1059 q 419 1086 444 1076 q 323 1111 367 1109 q 288 1100 309 1111 q 265 1051 265 1086 l 182 1051 z "},"Å":{"ha":847,"x_min":1,"x_max":846,"o":"m 568 354 l 425 786 l 422 786 l 279 354 l 568 354 m 611 221 l 236 221 l 160 0 l 1 0 l 361 989 l 486 989 l 846 0 l 688 0 l 611 221 m 290 1160 q 332 1262 290 1222 q 433 1303 373 1301 q 535 1262 495 1301 q 576 1160 574 1222 q 535 1059 574 1100 q 433 1017 495 1017 q 332 1059 373 1017 q 290 1160 290 1100 m 345 1160 q 372 1098 345 1123 q 433 1072 396 1072 q 495 1098 471 1072 q 520 1160 519 1123 q 495 1222 519 1198 q 433 1247 471 1246 q 372 1222 396 1246 q 345 1160 345 1198 z "},"À":{"ha":847,"x_min":1,"x_max":846,"o":"m 568 354 l 425 786 l 422 786 l 279 354 l 568 354 m 611 221 l 236 221 l 160 0 l 1 0 l 361 989 l 486 989 l 846 0 l 688 0 l 611 221 m 222 1240 l 408 1240 l 536 1037 l 419 1037 l 222 1240 z "},"Ä":{"ha":847,"x_min":1,"x_max":846,"o":"m 568 354 l 425 786 l 422 786 l 279 354 l 568 354 m 611 221 l 236 221 l 160 0 l 1 0 l 361 989 l 486 989 l 846 0 l 688 0 l 611 221 m 478 1206 l 629 1206 l 629 1057 l 478 1057 l 478 1206 m 234 1206 l 384 1206 l 384 1057 l 234 1057 l 234 1206 z "},"Â":{"ha":847,"x_min":1,"x_max":846,"o":"m 568 354 l 425 786 l 422 786 l 279 354 l 568 354 m 611 221 l 236 221 l 160 0 l 1 0 l 361 989 l 486 989 l 846 0 l 688 0 l 611 221 m 337 1037 l 203 1037 l 351 1240 l 509 1240 l 656 1037 l 523 1037 l 430 1156 l 337 1037 z "},"Á":{"ha":847,"x_min":1,"x_max":846,"o":"m 568 354 l 425 786 l 422 786 l 279 354 l 568 354 m 611 221 l 236 221 l 160 0 l 1 0 l 361 989 l 486 989 l 846 0 l 688 0 l 611 221 m 454 1240 l 641 1240 l 444 1037 l 327 1037 l 454 1240 z "},"̀":{"ha":0,"x_min":-333,"x_max":-20,"o":"m -333 997 l -147 997 l -20 794 l -136 794 l -333 997 z "},"́":{"ha":0,"x_min":-333,"x_max":-19,"o":"m -205 997 l -19 997 l -216 794 l -333 794 l -205 997 z "},"̂":{"ha":0,"x_min":-333,"x_max":120,"o":"m -199 794 l -333 794 l -186 997 l -28 997 l 120 794 l -14 794 l -106 913 l -199 794 z "},"̃":{"ha":0,"x_min":-715,"x_max":-244,"o":"m -715 -170 q -667 -104 -699 -134 q -587 -74 -637 -75 q -531 -84 -560 -74 q -474 -111 -504 -95 q -418 -137 -446 -125 q -370 -151 -390 -151 q -318 -124 -339 -149 q -280 -71 -296 -101 l -280 -71 l -244 -140 q -290 -204 -260 -177 q -371 -236 -319 -235 q -425 -224 -397 -236 q -484 -200 -454 -213 q -539 -174 -513 -185 q -589 -160 -567 -161 q -639 -184 -618 -161 q -678 -239 -660 -209 l -715 -170 z "},"̄":{"ha":0,"x_min":-333,"x_max":67,"o":"m -333 935 l 67 935 l 67 843 l -333 843 l -333 935 z "},"̆":{"ha":0,"x_min":-333,"x_max":115,"o":"m -250 997 q -201 918 -235 941 q -109 895 -165 895 q -20 917 -58 893 q 31 997 18 939 l 115 997 q 50 859 107 909 q -109 803 -7 803 q -266 859 -210 803 q -333 997 -324 909 l -250 997 z "},"̇":{"ha":0,"x_min":-333,"x_max":-183,"o":"m -333 964 l -183 964 l -183 814 l -333 814 l -333 964 z "},"̈":{"ha":0,"x_min":-333,"x_max":62,"o":"m -89 964 l 62 964 l 62 814 l -89 814 l -89 964 m -333 964 l -183 964 l -183 814 l -333 814 l -333 964 z "},"̉":{"ha":0,"x_min":-491,"x_max":-208,"o":"m -387 795 q -384 824 -387 811 q -368 849 -380 837 l -302 920 q -283 957 -283 939 q -304 994 -284 981 q -347 1007 -323 1007 q -395 994 -376 1007 q -416 945 -416 979 l -491 945 l -491 957 q -449 1034 -490 1004 q -351 1065 -408 1064 q -252 1036 -293 1064 q -208 956 -209 1006 q -232 897 -209 920 l -299 826 q -312 790 -313 811 l -312 758 l -387 758 l -387 795 z "},"̊":{"ha":0,"x_min":-333,"x_max":-47,"o":"m -333 917 q -290 1019 -333 979 q -190 1060 -250 1058 q -87 1019 -127 1058 q -47 917 -48 979 q -87 817 -48 857 q -190 774 -127 774 q -290 817 -250 774 q -333 917 -333 857 m -277 917 q -251 855 -277 880 q -190 829 -227 829 q -127 855 -151 829 q -102 917 -104 880 q -127 979 -104 956 q -190 1004 -151 1003 q -251 979 -227 1003 q -277 917 -277 956 z "},"̋":{"ha":0,"x_min":-557,"x_max":9,"o":"m -440 794 l -557 794 l -429 997 l -243 997 l -440 794 m -188 794 l -304 794 l -176 997 l 9 997 l -188 794 z "},"̌":{"ha":0,"x_min":-333,"x_max":120,"o":"m -333 997 l -199 997 l -106 878 l -106 878 l -14 997 l 120 997 l -28 794 l -186 794 l -333 997 z "},"̏":{"ha":0,"x_min":-586,"x_max":-20,"o":"m -333 997 l -147 997 l -20 794 l -136 794 l -333 997 m -586 997 l -400 997 l -273 794 l -389 794 l -586 997 z "},"̑":{"ha":0,"x_min":-448,"x_max":0,"o":"m -448 803 q -380 941 -439 890 q -224 997 -324 997 q -64 941 -121 997 q 0 803 -7 890 l -83 803 q -135 883 -96 861 q -224 905 -172 907 q -315 882 -279 905 q -364 803 -350 859 l -448 803 z "},"̣":{"ha":0,"x_min":-333,"x_max":-191,"o":"m -333 -95 l -191 -95 l -191 -237 l -333 -237 l -333 -95 z "},"̤":{"ha":0,"x_min":-333,"x_max":62,"o":"m -89 -95 l 62 -95 l 62 -245 l -89 -245 l -89 -95 m -333 -95 l -183 -95 l -183 -245 l -333 -245 l -333 -95 z "},"̥":{"ha":0,"x_min":-333,"x_max":-47,"o":"m -333 -238 q -290 -136 -333 -176 q -190 -95 -250 -97 q -87 -136 -127 -97 q -47 -238 -48 -176 q -87 -338 -48 -298 q -190 -381 -127 -381 q -290 -338 -250 -381 q -333 -238 -333 -298 m -277 -238 q -251 -300 -277 -275 q -190 -326 -227 -326 q -127 -300 -151 -326 q -102 -238 -104 -275 q -127 -176 -104 -199 q -190 -151 -151 -152 q -251 -176 -227 -152 q -277 -238 -277 -199 z "},"̦":{"ha":0,"x_min":-334,"x_max":-192,"o":"m -334 -52 l -192 -52 l -192 -221 l -334 -323 l -334 -52 z "},"̧":{"ha":0,"x_min":-333,"x_max":-22,"o":"m -123 0 l -184 -83 l -182 -83 q -144 -78 -166 -78 q -54 -109 -85 -78 q -22 -183 -22 -139 q -72 -281 -23 -250 q -193 -314 -121 -314 q -333 -281 -260 -313 l -308 -222 q -211 -243 -260 -241 q -130 -184 -133 -243 q -149 -146 -130 -158 q -198 -134 -169 -134 q -251 -149 -224 -132 l -281 -122 l -194 0 l -123 0 z "},"̨":{"ha":0,"x_min":-333,"x_max":-64,"o":"m -64 -281 q -118 -302 -84 -293 q -198 -314 -151 -314 q -293 -279 -255 -313 q -333 -184 -333 -245 q -322 -123 -333 -150 q -294 -77 -311 -97 q -207 0 -259 -36 l -136 0 q -224 -175 -223 -85 q -204 -224 -224 -204 q -157 -243 -184 -243 q -83 -222 -111 -243 l -64 -281 z "},"̭":{"ha":0,"x_min":-333,"x_max":120,"o":"m -199 -298 l -333 -298 l -186 -95 l -28 -95 l 120 -298 l -14 -298 l -106 -178 l -199 -298 z "},"̮":{"ha":0,"x_min":-333,"x_max":115,"o":"m -250 -95 q -201 -174 -235 -151 q -109 -197 -165 -197 q -20 -175 -58 -199 q 31 -95 18 -153 l 115 -95 q 50 -233 107 -182 q -109 -289 -7 -289 q -266 -233 -210 -289 q -333 -95 -324 -182 l -250 -95 z "},"̰":{"ha":0,"x_min":-707,"x_max":-258,"o":"m -707 -136 q -689 -101 -700 -119 q -663 -68 -678 -83 q -629 -45 -648 -54 q -586 -37 -610 -37 q -559 -39 -573 -37 q -532 -47 -546 -42 q -494 -66 -515 -54 q -452 -89 -473 -77 q -412 -108 -431 -100 q -378 -116 -393 -116 q -352 -109 -364 -116 q -329 -90 -340 -102 q -309 -63 -318 -78 q -292 -33 -300 -48 l -258 -105 q -275 -141 -264 -124 q -301 -173 -286 -159 q -336 -196 -317 -187 q -379 -205 -355 -204 q -404 -202 -391 -205 q -431 -193 -417 -199 l -487 -168 q -541 -140 -515 -153 q -587 -126 -566 -127 q -613 -134 -601 -127 q -635 -152 -625 -140 q -654 -177 -645 -163 q -672 -208 -663 -192 l -707 -136 z "},"̱":{"ha":0,"x_min":-333,"x_max":67,"o":"m -333 -95 l 67 -95 l 67 -186 l -333 -186 l -333 -95 z "},"Ơ":{"ha":1010,"x_min":71,"x_max":1018,"o":"m 921 1035 q 960 992 937 1021 q 999 921 983 964 q 999 819 1018 868 q 925 750 979 770 q 838 741 879 733 q 757 771 798 749 q 762 748 760 760 q 768 725 765 737 q 777 494 777 667 q 768 265 777 325 q 733 170 757 204 q 621 49 697 100 q 424 -8 541 -7 q 229 49 307 -7 q 114 170 149 102 l 94 212 q 87 237 90 224 q 81 265 83 250 q 71 494 71 322 q 73 639 71 582 q 81 725 75 696 q 114 819 92 785 q 229 942 149 886 q 424 997 306 994 q 621 942 543 994 q 708 859 675 901 q 798 837 755 840 q 878 847 840 833 q 915 883 903 859 q 917 935 928 908 q 872 997 903 978 l 921 1035 m 221 494 q 224 372 221 421 q 232 297 227 323 q 271 214 243 244 q 334 164 293 182 q 424 142 370 142 q 517 164 478 142 q 576 214 553 182 q 616 297 607 245 q 627 494 627 346 q 625 617 627 568 q 616 693 623 667 q 576 775 607 743 q 517 827 554 806 q 424 847 476 846 q 334 827 371 844 q 271 775 293 806 q 232 693 243 745 q 221 494 221 637 z "},"Ư":{"ha":1032,"x_min":86,"x_max":1042,"o":"m 942 1019 q 982 977 960 1006 q 1019 905 1004 949 q 1021 804 1042 852 q 946 733 1000 755 q 865 724 903 718 q 789 750 827 730 l 789 335 q 688 87 787 180 q 437 -8 589 -7 q 189 87 289 -5 q 86 335 89 178 l 86 989 l 236 989 l 236 351 q 294 197 237 249 q 437 142 350 142 q 582 197 526 142 q 639 351 636 249 l 639 989 l 789 989 l 789 825 q 899 832 850 812 q 938 867 926 843 q 939 920 950 892 q 895 982 925 962 l 942 1019 z "},"ơ":{"ha":811,"x_min":57,"x_max":819,"o":"m 722 787 q 763 745 741 774 q 800 673 785 717 q 801 572 819 621 q 726 501 782 524 q 674 491 699 492 q 627 496 650 490 q 635 433 632 468 q 637 353 637 397 q 621 183 637 241 q 561 82 602 125 q 546 67 554 75 q 528 52 538 58 q 482 22 509 35 q 347 -8 431 -5 q 215 22 267 -7 q 134 82 161 50 q 75 183 93 126 q 57 353 57 239 q 75 524 57 465 q 134 623 94 583 q 215 685 163 657 q 347 713 265 710 q 482 685 432 710 q 561 623 533 657 q 589 590 576 607 q 679 600 639 583 q 717 635 707 611 q 720 688 728 660 q 673 750 703 730 l 722 787 m 496 351 q 494 416 496 389 q 489 461 492 443 q 461 519 484 493 q 415 557 446 542 q 347 571 387 571 q 281 557 310 571 q 233 519 253 543 q 207 461 215 496 q 199 353 199 425 q 207 245 199 279 q 233 184 215 211 q 281 149 254 163 q 347 134 314 134 q 415 149 385 134 q 461 184 446 163 q 489 245 484 214 q 494 289 492 262 q 496 351 496 315 z "},"ư":{"ha":914,"x_min":92,"x_max":922,"o":"m 825 737 q 865 694 842 724 q 903 624 888 665 q 904 522 922 571 q 829 452 885 473 q 738 443 781 433 q 654 478 696 453 l 654 0 l 513 0 l 513 75 l 510 75 q 328 -8 440 -8 q 170 56 239 -5 q 92 236 94 115 l 92 704 l 233 704 l 233 285 q 273 174 233 214 q 374 134 314 134 q 473 174 433 134 q 513 285 513 212 l 513 704 l 654 704 l 654 547 q 782 550 725 528 q 820 585 807 558 q 821 636 832 612 q 777 699 807 679 l 825 737 z "},"˝":{"ha":334,"x_min":-79,"x_max":513,"o":"m 49 997 l 235 997 l 37 794 l -79 794 l 49 997 m 326 997 l 513 997 l 315 794 l 199 794 l 326 997 z "},"ǀ":{"ha":309,"x_min":100,"x_max":208,"o":"m 100 997 l 208 997 l 208 -8 l 100 -8 l 100 997 z "},"ǁ":{"ha":617,"x_min":100,"x_max":517,"o":"m 100 997 l 208 997 l 208 -8 l 100 -8 l 100 997 m 408 997 l 517 997 l 517 -8 l 408 -8 l 408 997 z "},"͏":{"ha":0,"x_min":0,"x_max":0,"o":"z "},"​":{"ha":0,"x_min":0,"x_max":0,"o":"z "},"‌":{"ha":0,"x_min":0,"x_max":0,"o":"z "},"‍":{"ha":0,"x_min":0,"x_max":0,"o":"z "},"℃":{"ha":1288,"x_min":79,"x_max":1286,"o":"m 1286 277 q 1162 65 1254 139 q 939 -8 1068 -8 q 745 49 823 -5 q 629 170 665 101 q 610 212 618 192 q 596 265 602 233 q 586 494 586 325 q 596 725 586 667 q 629 819 607 783 q 745 941 665 888 q 939 997 823 996 q 1173 912 1082 996 q 1286 704 1263 828 l 1128 704 q 1061 806 1109 764 q 939 847 1011 846 q 848 826 886 846 q 786 775 810 806 q 747 693 757 743 q 736 494 736 640 q 747 297 736 349 q 786 214 757 245 q 848 164 810 183 q 939 142 886 142 q 1128 277 1065 142 l 1286 277 m 79 799 q 138 940 81 884 q 278 997 195 996 q 419 940 364 996 q 476 799 475 884 q 419 659 475 715 q 278 600 364 602 q 138 659 195 602 q 79 799 81 715 m 150 799 q 189 709 150 745 q 278 671 224 671 q 370 709 333 671 q 406 799 404 745 q 370 890 404 854 q 278 926 333 925 q 189 890 224 925 q 150 799 150 854 z "},"℉":{"ha":1261,"x_min":79,"x_max":1251,"o":"m 619 989 l 1251 989 l 1251 847 l 769 847 l 769 555 l 1180 555 l 1180 422 l 769 422 l 769 0 l 619 0 l 619 989 m 79 799 q 138 940 81 884 q 278 997 195 996 q 419 940 364 996 q 476 799 475 884 q 419 659 475 715 q 278 600 364 602 q 138 659 195 602 q 79 799 81 715 m 150 799 q 189 709 150 745 q 278 671 224 671 q 370 709 333 671 q 406 799 404 745 q 370 890 404 854 q 278 926 333 925 q 189 890 224 925 q 150 799 150 854 z "},"K":{"ha":875,"x_min":104,"x_max":875,"o":"m 104 989 l 254 989 l 254 479 l 257 479 l 664 989 l 842 989 l 525 599 l 875 0 l 697 0 l 428 484 l 428 484 l 254 301 l 254 0 l 104 0 l 104 989 z "},"Ⅰ":{"ha":358,"x_min":104,"x_max":254,"o":"m 104 989 l 254 989 l 254 0 l 104 0 l 104 989 z "},"Ⅱ":{"ha":716,"x_min":104,"x_max":612,"o":"m 104 989 l 254 989 l 254 0 l 104 0 l 104 989 m 463 989 l 612 989 l 612 0 l 463 0 l 463 989 z "},"Ⅲ":{"ha":1074,"x_min":104,"x_max":970,"o":"m 104 989 l 254 989 l 254 0 l 104 0 l 104 989 m 463 989 l 612 989 l 612 0 l 463 0 l 463 989 m 821 989 l 970 989 l 970 0 l 821 0 l 821 989 z "},"Ⅳ":{"ha":1131,"x_min":104,"x_max":1129,"o":"m 104 989 l 254 989 l 254 0 l 104 0 l 104 989 m 359 989 l 518 989 l 743 236 l 745 236 l 970 989 l 1129 989 l 802 0 l 686 0 l 359 989 z "},"Ⅴ":{"ha":772,"x_min":1,"x_max":771,"o":"m 1 989 l 160 989 l 385 236 l 387 236 l 612 989 l 771 989 l 444 0 l 328 0 l 1 989 z "},"Ⅵ":{"ha":1131,"x_min":1,"x_max":1027,"o":"m 1 989 l 160 989 l 385 236 l 387 236 l 612 989 l 771 989 l 444 0 l 328 0 l 1 989 m 877 989 l 1027 989 l 1027 0 l 877 0 l 877 989 z "},"Ⅶ":{"ha":1489,"x_min":1,"x_max":1385,"o":"m 1 989 l 160 989 l 385 236 l 387 236 l 612 989 l 771 989 l 444 0 l 328 0 l 1 989 m 877 989 l 1027 989 l 1027 0 l 877 0 l 877 989 m 1235 989 l 1385 989 l 1385 0 l 1235 0 l 1235 989 z "},"Ⅷ":{"ha":1847,"x_min":1,"x_max":1743,"o":"m 1 989 l 160 989 l 385 236 l 387 236 l 612 989 l 771 989 l 444 0 l 328 0 l 1 989 m 877 989 l 1027 989 l 1027 0 l 877 0 l 877 989 m 1235 989 l 1385 989 l 1385 0 l 1235 0 l 1235 989 m 1593 989 l 1743 989 l 1743 0 l 1593 0 l 1593 989 z "},"Ⅸ":{"ha":1103,"x_min":104,"x_max":1116,"o":"m 104 989 l 254 989 l 254 0 l 104 0 l 104 989 m 513 0 l 345 0 l 647 507 l 363 989 l 533 989 l 730 646 l 730 646 l 928 989 l 1097 989 l 814 507 l 1116 0 l 947 0 l 730 368 l 513 0 z "},"Ⅹ":{"ha":745,"x_min":-14,"x_max":758,"o":"m 155 0 l -14 0 l 289 507 l 5 989 l 175 989 l 372 646 l 372 646 l 570 989 l 739 989 l 456 507 l 758 0 l 589 0 l 372 368 l 155 0 z "},"Ⅺ":{"ha":1103,"x_min":-14,"x_max":999,"o":"m 155 0 l -14 0 l 289 507 l 5 989 l 175 989 l 372 646 l 372 646 l 570 989 l 739 989 l 456 507 l 758 0 l 589 0 l 372 368 l 155 0 m 849 989 l 999 989 l 999 0 l 849 0 l 849 989 z "},"Ⅻ":{"ha":1461,"x_min":-14,"x_max":1357,"o":"m 155 0 l -14 0 l 289 507 l 5 989 l 175 989 l 372 646 l 372 646 l 570 989 l 739 989 l 456 507 l 758 0 l 589 0 l 372 368 l 155 0 m 849 989 l 999 989 l 999 0 l 849 0 l 849 989 m 1207 989 l 1357 989 l 1357 0 l 1207 0 l 1207 989 z "},"Ⅼ":{"ha":772,"x_min":104,"x_max":736,"o":"m 104 989 l 254 989 l 254 142 l 736 142 l 736 0 l 104 0 l 104 989 z "},"Ⅽ":{"ha":772,"x_min":71,"x_max":771,"o":"m 771 277 q 647 65 739 139 q 424 -8 553 -8 q 229 49 307 -5 q 114 170 150 101 q 94 212 103 192 q 81 265 86 233 q 71 494 71 325 q 81 725 71 667 q 114 819 92 783 q 229 941 150 888 q 424 997 307 996 q 657 912 567 996 q 771 704 747 828 l 612 704 q 546 806 594 764 q 424 847 496 846 q 333 826 371 846 q 271 775 294 806 q 232 693 241 743 q 221 494 221 640 q 232 297 221 349 q 271 214 241 245 q 333 164 294 183 q 424 142 371 142 q 612 277 550 142 l 771 277 z "},"Ⅾ":{"ha":875,"x_min":104,"x_max":804,"o":"m 104 989 l 450 989 q 751 822 651 987 q 797 705 787 766 q 804 494 804 644 q 793 272 804 335 q 777 215 787 240 q 749 164 765 191 q 628 49 705 94 q 440 0 551 0 l 104 0 l 104 989 m 254 142 l 433 142 q 616 228 559 142 q 648 309 642 260 q 654 489 654 357 q 648 673 654 618 q 610 764 640 729 q 433 847 547 850 l 254 847 l 254 142 z "},"Ⅿ":{"ha":1053,"x_min":104,"x_max":949,"o":"m 104 989 l 245 989 l 529 345 l 529 345 l 807 989 l 949 989 l 949 0 l 799 0 l 799 616 l 795 616 l 589 142 l 464 142 l 257 616 l 254 616 l 254 0 l 104 0 l 104 989 z "},"ⅰ":{"ha":333,"x_min":96,"x_max":237,"o":"m 96 704 l 237 704 l 237 0 l 96 0 l 96 704 m 96 989 l 237 989 l 237 847 l 96 847 l 96 989 z "},"ⅱ":{"ha":666,"x_min":96,"x_max":570,"o":"m 96 704 l 237 704 l 237 0 l 96 0 l 96 704 m 96 989 l 237 989 l 237 847 l 96 847 l 96 989 m 429 704 l 570 704 l 570 0 l 429 0 l 429 704 m 429 989 l 570 989 l 570 847 l 429 847 l 429 989 z "},"ⅲ":{"ha":999,"x_min":96,"x_max":903,"o":"m 96 704 l 237 704 l 237 0 l 96 0 l 96 704 m 96 989 l 237 989 l 237 847 l 96 847 l 96 989 m 429 704 l 570 704 l 570 0 l 429 0 l 429 704 m 429 989 l 570 989 l 570 847 l 429 847 l 429 989 m 762 704 l 903 704 l 903 0 l 762 0 l 762 704 m 762 989 l 903 989 l 903 847 l 762 847 l 762 989 z "},"ⅳ":{"ha":949,"x_min":96,"x_max":958,"o":"m 96 704 l 237 704 l 237 0 l 96 0 l 96 704 m 96 989 l 237 989 l 237 847 l 96 847 l 96 989 m 325 704 l 475 704 l 640 211 l 643 211 l 808 704 l 958 704 l 700 0 l 583 0 l 325 704 z "},"ⅴ":{"ha":616,"x_min":-8,"x_max":625,"o":"m -8 704 l 142 704 l 307 211 l 310 211 l 475 704 l 625 704 l 367 0 l 250 0 l -8 704 z "},"ⅵ":{"ha":949,"x_min":-8,"x_max":854,"o":"m -8 704 l 142 704 l 307 211 l 310 211 l 475 704 l 625 704 l 367 0 l 250 0 l -8 704 m 712 704 l 854 704 l 854 0 l 712 0 l 712 704 m 712 989 l 854 989 l 854 847 l 712 847 l 712 989 z "},"ⅶ":{"ha":1282,"x_min":-8,"x_max":1187,"o":"m -8 704 l 142 704 l 307 211 l 310 211 l 475 704 l 625 704 l 367 0 l 250 0 l -8 704 m 712 704 l 854 704 l 854 0 l 712 0 l 712 704 m 712 989 l 854 989 l 854 847 l 712 847 l 712 989 m 1045 704 l 1187 704 l 1187 0 l 1045 0 l 1045 704 m 1045 989 l 1187 989 l 1187 847 l 1045 847 l 1045 989 z "},"ⅷ":{"ha":1615,"x_min":-8,"x_max":1520,"o":"m -8 704 l 142 704 l 307 211 l 310 211 l 475 704 l 625 704 l 367 0 l 250 0 l -8 704 m 712 704 l 854 704 l 854 0 l 712 0 l 712 704 m 712 989 l 854 989 l 854 847 l 712 847 l 712 989 m 1045 704 l 1187 704 l 1187 0 l 1045 0 l 1045 704 m 1045 989 l 1187 989 l 1187 847 l 1045 847 l 1045 989 m 1378 704 l 1520 704 l 1520 0 l 1378 0 l 1378 704 m 1378 989 l 1520 989 l 1520 847 l 1378 847 l 1378 989 z "},"ⅸ":{"ha":1000,"x_min":96,"x_max":985,"o":"m 96 704 l 237 704 l 237 0 l 96 0 l 96 704 m 96 989 l 237 989 l 237 847 l 96 847 l 96 989 m 357 704 l 526 704 l 666 476 l 666 476 l 806 704 l 976 704 l 745 359 l 985 0 l 817 0 l 666 235 l 666 235 l 516 0 l 347 0 l 587 359 l 357 704 z "},"ⅹ":{"ha":667,"x_min":14,"x_max":652,"o":"m 24 704 l 193 704 l 333 476 l 333 476 l 473 704 l 643 704 l 412 359 l 652 0 l 484 0 l 333 235 l 333 235 l 183 0 l 14 0 l 254 359 l 24 704 z "},"ⅺ":{"ha":1000,"x_min":14,"x_max":904,"o":"m 24 704 l 193 704 l 333 476 l 333 476 l 473 704 l 643 704 l 412 359 l 652 0 l 484 0 l 333 235 l 333 235 l 183 0 l 14 0 l 254 359 l 24 704 m 762 704 l 904 704 l 904 0 l 762 0 l 762 704 m 762 989 l 904 989 l 904 847 l 762 847 l 762 989 z "},"ⅻ":{"ha":1333,"x_min":14,"x_max":1237,"o":"m 24 704 l 193 704 l 333 476 l 333 476 l 473 704 l 643 704 l 412 359 l 652 0 l 484 0 l 333 235 l 333 235 l 183 0 l 14 0 l 254 359 l 24 704 m 762 704 l 904 704 l 904 0 l 762 0 l 762 704 m 762 989 l 904 989 l 904 847 l 762 847 l 762 989 m 1095 704 l 1237 704 l 1237 0 l 1095 0 l 1095 704 m 1095 989 l 1237 989 l 1237 847 l 1095 847 l 1095 989 z "},"ⅼ":{"ha":358,"x_min":92,"x_max":335,"o":"m 92 989 l 233 989 l 233 182 q 286 134 233 134 l 335 134 l 335 0 l 272 0 q 144 39 195 0 q 92 171 92 78 l 92 989 z "},"ⅽ":{"ha":616,"x_min":37,"x_max":610,"o":"m 610 114 q 501 28 564 61 q 357 -8 439 -7 q 138 77 232 -8 q 37 351 40 161 q 138 629 40 543 q 357 713 232 714 q 501 679 439 711 q 610 590 564 646 l 505 497 l 505 497 q 362 571 452 568 q 179 351 182 574 q 362 134 182 130 q 505 207 452 135 l 505 207 l 610 114 z "},"ⅾ":{"ha":721,"x_min":92,"x_max":654,"o":"m 513 74 q 330 -8 443 -5 q 221 18 267 -7 q 142 83 174 43 q 103 174 113 117 q 92 353 92 228 q 103 533 92 479 q 142 621 113 587 q 330 713 201 709 q 431 690 385 713 q 513 629 473 667 l 513 629 l 513 989 l 654 989 l 654 0 l 513 0 l 513 74 m 374 571 q 297 554 323 571 q 254 504 268 536 q 237 435 241 472 q 233 353 233 395 q 237 275 233 313 q 254 203 241 235 q 297 153 268 172 q 374 134 323 134 q 453 154 424 134 q 493 205 482 174 q 511 277 507 237 q 513 353 513 315 q 511 431 513 393 q 493 500 507 468 q 453 551 482 532 q 374 571 424 571 z "},"ⅿ":{"ha":1183,"x_min":100,"x_max":1083,"o":"m 100 704 l 241 704 l 241 629 l 244 629 q 428 713 314 713 q 546 688 501 711 q 627 621 590 661 l 627 621 q 848 713 709 714 q 1008 651 936 713 q 1083 468 1080 589 l 1083 0 l 941 0 l 941 419 q 903 532 941 493 q 803 571 864 571 q 703 532 742 571 q 663 419 663 493 l 663 0 l 521 0 l 521 419 q 482 532 521 493 q 382 571 443 571 q 282 532 321 571 q 241 419 241 493 l 241 0 l 100 0 l 100 704 z "},"Đ":{"ha":875,"x_min":0,"x_max":804,"o":"m 104 432 l 0 432 l 0 565 l 104 565 l 104 989 l 450 989 q 751 822 651 987 q 797 705 787 766 q 804 494 804 644 q 793 272 804 335 q 777 215 787 240 q 749 164 765 191 q 628 49 705 94 q 440 0 551 0 l 104 0 l 104 432 m 443 565 l 443 432 l 254 432 l 254 142 l 433 142 q 616 228 559 142 q 648 309 642 260 q 654 489 654 357 q 648 673 654 618 q 610 764 640 729 q 433 847 547 850 l 254 847 l 254 565 l 443 565 z "},"Ĭ":{"ha":358,"x_min":-45,"x_max":403,"o":"m 104 989 l 254 989 l 254 0 l 104 0 l 104 989 m 39 1240 q 87 1161 53 1184 q 179 1137 123 1137 q 268 1160 231 1136 q 319 1240 307 1181 l 403 1240 q 338 1101 395 1152 q 179 1046 281 1046 q 22 1101 79 1046 q -45 1240 -36 1152 l 39 1240 z "},"ĭ":{"ha":334,"x_min":-57,"x_max":391,"o":"m 96 704 l 237 704 l 237 0 l 96 0 l 96 704 m 26 997 q 75 918 41 941 q 167 895 111 895 q 256 917 218 893 q 307 997 294 939 l 391 997 q 326 859 383 909 q 167 803 269 803 q 10 859 66 803 q -57 997 -48 909 l 26 997 z "},"İ":{"ha":358,"x_min":104,"x_max":254,"o":"m 104 989 l 254 989 l 254 0 l 104 0 l 104 989 m 104 1206 l 254 1206 l 254 1057 l 104 1057 l 104 1206 z "},"Ĳ":{"ha":1026,"x_min":104,"x_max":933,"o":"m 104 989 l 254 989 l 254 0 l 104 0 l 104 989 m 480 208 q 534 163 501 180 q 612 142 568 142 q 726 183 672 140 q 768 239 753 204 q 783 322 783 272 l 783 989 l 933 989 l 933 307 q 836 77 930 158 q 616 -8 741 -7 q 359 121 444 -4 l 480 208 l 480 208 z "},"ĳ":{"ha":691,"x_min":96,"x_max":585,"o":"m 96 704 l 237 704 l 237 0 l 96 0 l 96 704 m 96 989 l 237 989 l 237 847 l 96 847 l 96 989 m 443 704 l 585 704 l 585 -87 q 528 -229 583 -176 q 379 -285 471 -283 l 323 -285 l 323 -151 l 363 -151 q 443 -77 441 -151 l 443 704 m 443 989 l 585 989 l 585 847 l 443 847 l 443 989 z "},"Ĵ":{"ha":668,"x_min":1,"x_max":725,"o":"m 122 208 q 176 163 143 180 q 254 142 210 142 q 368 183 314 140 q 410 239 395 204 q 425 322 425 272 l 425 989 l 575 989 l 575 307 q 477 77 572 158 q 258 -8 383 -7 q 1 121 86 -4 l 122 208 l 122 208 m 406 1037 l 272 1037 l 419 1240 l 577 1240 l 725 1037 l 591 1037 l 498 1156 l 406 1037 z "},"ŉ":{"ha":911,"x_min":0,"x_max":778,"o":"m 0 989 l 142 989 l 142 847 l 0 745 l 0 745 l 0 989 m 215 704 l 357 704 l 357 629 l 359 629 q 543 713 429 713 q 703 651 630 713 q 778 468 774 589 l 778 0 l 636 0 l 636 419 q 597 532 636 493 q 497 571 558 571 q 397 532 436 571 q 357 419 357 493 l 357 0 l 215 0 l 215 704 z "},"ǃ":{"ha":358,"x_min":90,"x_max":268,"o":"m 90 989 l 268 989 l 214 244 l 143 244 l 90 989 m 109 142 l 250 142 l 250 0 l 109 0 l 109 142 z "},"Ǆ":{"ha":1568,"x_min":104,"x_max":1523,"o":"m 104 989 l 450 989 q 751 822 651 987 q 797 705 787 766 q 804 494 804 644 q 793 272 804 335 q 777 215 787 240 q 749 164 765 191 q 628 49 705 94 q 440 0 551 0 l 104 0 l 104 989 m 254 142 l 433 142 q 616 228 559 142 q 648 309 642 260 q 654 489 654 357 q 648 673 654 618 q 610 764 640 729 q 433 847 547 850 l 254 847 l 254 142 m 892 125 l 1340 855 l 909 855 l 909 989 l 1523 989 l 1523 876 l 1074 142 l 1523 142 l 1523 0 l 892 0 l 892 125 m 981 1240 l 1114 1240 l 1207 1120 l 1207 1120 l 1300 1240 l 1434 1240 l 1286 1037 l 1128 1037 l 981 1240 z "},"ǅ":{"ha":1492,"x_min":104,"x_max":1446,"o":"m 104 989 l 450 989 q 751 822 651 987 q 797 705 787 766 q 804 494 804 644 q 793 272 804 335 q 777 215 787 240 q 749 164 765 191 q 628 49 705 94 q 440 0 551 0 l 104 0 l 104 989 m 254 142 l 433 142 q 616 228 559 142 q 648 309 642 260 q 654 489 654 357 q 648 673 654 618 q 610 764 640 729 q 433 847 547 850 l 254 847 l 254 142 m 921 113 l 1274 579 l 940 579 l 940 704 l 1446 704 l 1446 591 l 1093 134 l 1446 134 l 1446 0 l 921 0 l 921 113 m 957 997 l 1090 997 l 1183 878 l 1183 878 l 1276 997 l 1410 997 l 1262 794 l 1104 794 l 957 997 z "},"ǆ":{"ha":1337,"x_min":92,"x_max":1292,"o":"m 513 74 q 330 -8 443 -5 q 221 18 267 -7 q 142 83 174 43 q 103 174 113 117 q 92 353 92 228 q 103 533 92 479 q 142 621 113 587 q 330 713 201 709 q 431 690 385 713 q 513 629 473 667 l 513 629 l 513 989 l 654 989 l 654 0 l 513 0 l 513 74 m 374 571 q 297 554 323 571 q 254 504 268 536 q 237 435 241 472 q 233 353 233 395 q 237 275 233 313 q 254 203 241 235 q 297 153 268 172 q 374 134 323 134 q 453 154 424 134 q 493 205 482 174 q 511 277 507 237 q 513 353 513 315 q 511 431 513 393 q 493 500 507 468 q 453 551 482 532 q 374 571 424 571 m 767 113 l 1120 579 l 786 579 l 786 704 l 1292 704 l 1292 591 l 939 134 l 1292 134 l 1292 0 l 767 0 l 767 113 m 803 997 l 937 997 l 1029 878 l 1029 878 l 1122 997 l 1256 997 l 1108 794 l 950 794 l 803 997 z "},"Ǉ":{"ha":1440,"x_min":104,"x_max":1348,"o":"m 104 989 l 254 989 l 254 142 l 736 142 l 736 0 l 104 0 l 104 989 m 895 208 q 949 163 916 180 q 1027 142 982 142 q 1141 183 1086 140 q 1182 239 1167 204 q 1198 322 1198 272 l 1198 989 l 1348 989 l 1348 307 q 1250 77 1345 158 q 1031 -8 1156 -7 q 774 121 859 -4 l 895 208 l 895 208 z "},"ǈ":{"ha":1131,"x_min":104,"x_max":1024,"o":"m 104 989 l 254 989 l 254 142 l 736 142 l 736 0 l 104 0 l 104 989 m 882 704 l 1024 704 l 1024 -87 q 967 -229 1023 -176 q 819 -285 910 -283 l 763 -285 l 763 -151 l 803 -151 q 882 -77 881 -151 l 882 704 m 882 989 l 1024 989 l 1024 847 l 882 847 l 882 989 z "},"ǉ":{"ha":716,"x_min":92,"x_max":610,"o":"m 92 989 l 233 989 l 233 182 q 286 134 233 134 l 335 134 l 335 0 l 272 0 q 144 39 195 0 q 92 171 92 78 l 92 989 m 468 704 l 610 704 l 610 -87 q 553 -229 608 -176 q 404 -285 496 -283 l 349 -285 l 349 -151 l 389 -151 q 468 -77 467 -151 l 468 704 m 468 989 l 610 989 l 610 847 l 468 847 l 468 989 z "},"Ǌ":{"ha":1618,"x_min":104,"x_max":1525,"o":"m 104 989 l 245 989 l 693 286 l 696 286 l 696 989 l 846 989 l 846 0 l 704 0 l 257 703 l 254 703 l 254 0 l 104 0 l 104 989 m 1072 208 q 1126 163 1093 180 q 1204 142 1160 142 q 1318 183 1264 140 q 1360 239 1345 204 q 1375 322 1375 272 l 1375 989 l 1525 989 l 1525 307 q 1428 77 1522 158 q 1208 -8 1333 -7 q 951 121 1036 -4 l 1072 208 l 1072 208 z "},"ǋ":{"ha":1308,"x_min":104,"x_max":1202,"o":"m 104 989 l 245 989 l 693 286 l 696 286 l 696 989 l 846 989 l 846 0 l 704 0 l 257 703 l 254 703 l 254 0 l 104 0 l 104 989 m 1060 704 l 1202 704 l 1202 -87 q 1145 -229 1200 -176 q 996 -285 1088 -283 l 941 -285 l 941 -151 l 981 -151 q 1060 -77 1059 -151 l 1060 704 m 1060 989 l 1202 989 l 1202 847 l 1060 847 l 1060 989 z "},"ǌ":{"ha":1104,"x_min":92,"x_max":998,"o":"m 92 704 l 233 704 l 233 629 l 236 629 q 419 713 306 713 q 579 651 507 713 q 654 468 651 589 l 654 0 l 513 0 l 513 419 q 473 532 513 493 q 374 571 435 571 q 273 532 313 571 q 233 419 233 493 l 233 0 l 92 0 l 92 704 m 856 704 l 998 704 l 998 -87 q 941 -229 996 -176 q 792 -285 884 -283 l 736 -285 l 736 -151 l 777 -151 q 856 -77 854 -151 l 856 704 m 856 989 l 998 989 l 998 847 l 856 847 l 856 989 z "},"Ǎ":{"ha":847,"x_min":1,"x_max":846,"o":"m 568 354 l 425 786 l 422 786 l 279 354 l 568 354 m 611 221 l 236 221 l 160 0 l 1 0 l 361 989 l 486 989 l 846 0 l 688 0 l 611 221 m 197 1240 l 331 1240 l 424 1120 l 424 1120 l 517 1240 l 650 1240 l 503 1037 l 345 1037 l 197 1240 z "},"ǎ":{"ha":694,"x_min":36,"x_max":603,"o":"m 461 62 l 458 62 q 397 9 439 26 q 285 -8 357 -8 q 103 54 167 -7 q 36 207 36 114 q 94 354 36 296 q 265 415 153 414 l 461 415 l 461 489 q 317 579 463 582 q 233 568 264 579 q 183 525 201 555 l 183 525 l 72 610 q 310 713 153 715 q 522 663 443 714 q 603 481 602 610 l 603 0 l 461 0 l 461 62 m 461 298 l 292 298 q 170 214 168 296 q 201 153 170 178 q 302 125 232 125 q 428 146 391 123 q 461 248 461 168 l 461 298 m 107 997 l 241 997 l 334 878 l 334 878 l 427 997 l 560 997 l 412 794 l 254 794 l 107 997 z "},"Ǐ":{"ha":358,"x_min":-47,"x_max":406,"o":"m 104 989 l 254 989 l 254 0 l 104 0 l 104 989 m -47 1240 l 86 1240 l 179 1120 l 179 1120 l 272 1240 l 406 1240 l 258 1037 l 100 1037 l -47 1240 z "},"ǐ":{"ha":334,"x_min":-60,"x_max":393,"o":"m 96 704 l 237 704 l 237 0 l 96 0 l 96 704 m -60 997 l 74 997 l 167 878 l 167 878 l 260 997 l 393 997 l 245 794 l 87 794 l -60 997 z "},"Ǒ":{"ha":847,"x_min":71,"x_max":777,"o":"m 71 494 q 81 725 71 667 q 114 819 92 783 q 229 941 150 888 q 424 997 307 996 q 621 941 542 996 q 733 819 699 888 q 768 725 758 783 q 777 494 777 667 q 768 265 777 325 q 733 170 758 205 q 621 49 699 101 q 424 -8 542 -5 q 229 49 307 -5 q 114 170 150 101 q 94 212 103 192 q 81 265 86 233 q 71 494 71 325 m 221 494 q 232 297 221 349 q 271 214 241 245 q 333 164 294 183 q 424 142 371 142 q 517 164 477 142 q 576 214 554 183 q 616 297 606 245 q 627 494 627 349 q 616 693 627 640 q 576 775 606 743 q 517 826 554 806 q 424 847 477 846 q 333 826 371 846 q 271 775 294 806 q 232 693 241 743 q 221 494 221 640 m 197 1240 l 331 1240 l 424 1120 l 424 1120 l 517 1240 l 650 1240 l 503 1037 l 345 1037 l 197 1240 z "},"ǒ":{"ha":694,"x_min":57,"x_max":637,"o":"m 57 353 q 75 524 57 464 q 134 622 94 582 q 215 685 163 657 q 347 713 267 711 q 482 685 431 711 q 561 622 533 657 q 621 524 603 582 q 637 353 637 464 q 621 183 637 241 q 561 82 603 125 q 528 52 547 66 q 482 22 510 35 q 347 -8 431 -7 q 215 22 267 -7 q 134 82 163 49 q 75 183 94 125 q 57 353 57 241 m 496 351 q 489 461 496 427 q 461 519 482 494 q 415 557 446 543 q 347 571 386 571 q 281 557 311 571 q 233 519 252 543 q 207 461 215 494 q 199 353 199 427 q 207 245 199 279 q 233 184 215 211 q 281 149 252 164 q 347 134 311 134 q 415 149 386 134 q 461 184 446 164 q 489 245 482 211 q 496 351 496 279 m 121 997 l 254 997 l 347 878 l 347 878 l 440 997 l 574 997 l 426 794 l 268 794 l 121 997 z "},"Ǔ":{"ha":875,"x_min":86,"x_max":789,"o":"m 86 989 l 236 989 l 236 351 q 294 197 237 250 q 437 142 350 142 q 582 197 525 142 q 639 351 637 250 l 639 989 l 789 989 l 789 335 q 688 87 786 179 q 437 -8 589 -7 q 189 87 289 -7 q 86 335 87 179 l 86 989 m 211 1240 l 345 1240 l 437 1120 l 437 1120 l 530 1240 l 664 1240 l 516 1037 l 358 1037 l 211 1240 z "},"ǔ":{"ha":746,"x_min":92,"x_max":654,"o":"m 92 704 l 233 704 l 233 285 q 273 174 233 214 q 374 134 313 134 q 473 174 435 134 q 513 285 513 214 l 513 704 l 654 704 l 654 0 l 513 0 l 513 75 l 510 75 q 328 -8 440 -8 q 170 56 240 -7 q 92 236 93 117 l 92 704 m 146 997 l 279 997 l 372 878 l 372 878 l 465 997 l 599 997 l 451 794 l 293 794 l 146 997 z "},"Ǖ":{"ha":875,"x_min":86,"x_max":789,"o":"m 86 989 l 236 989 l 236 351 q 294 197 237 250 q 437 142 350 142 q 582 197 525 142 q 639 351 637 250 l 639 989 l 789 989 l 789 335 q 688 87 786 179 q 437 -8 589 -7 q 189 87 289 -7 q 86 335 87 179 l 86 989 m 484 1206 l 635 1206 l 635 1057 l 484 1057 l 484 1206 m 240 1206 l 390 1206 l 390 1057 l 240 1057 l 240 1206 m 237 1400 l 637 1400 l 637 1308 l 237 1308 l 237 1400 z "},"ǖ":{"ha":746,"x_min":92,"x_max":654,"o":"m 92 704 l 233 704 l 233 285 q 273 174 233 214 q 374 134 313 134 q 473 174 435 134 q 513 285 513 214 l 513 704 l 654 704 l 654 0 l 513 0 l 513 75 l 510 75 q 328 -8 440 -8 q 170 56 240 -7 q 92 236 93 117 l 92 704 m 419 964 l 570 964 l 570 814 l 419 814 l 419 964 m 175 964 l 325 964 l 325 814 l 175 814 l 175 964 m 172 1157 l 572 1157 l 572 1065 l 172 1065 l 172 1157 z "},"Ǘ":{"ha":875,"x_min":86,"x_max":789,"o":"m 86 989 l 236 989 l 236 351 q 294 197 237 250 q 437 142 350 142 q 582 197 525 142 q 639 351 637 250 l 639 989 l 789 989 l 789 335 q 688 87 786 179 q 437 -8 589 -7 q 189 87 289 -7 q 86 335 87 179 l 86 989 m 484 1206 l 635 1206 l 635 1057 l 484 1057 l 484 1206 m 240 1206 l 390 1206 l 390 1057 l 240 1057 l 240 1206 m 465 1462 l 652 1462 l 454 1259 l 338 1259 l 465 1462 z "},"ǘ":{"ha":746,"x_min":92,"x_max":654,"o":"m 92 704 l 233 704 l 233 285 q 273 174 233 214 q 374 134 313 134 q 473 174 435 134 q 513 285 513 214 l 513 704 l 654 704 l 654 0 l 513 0 l 513 75 l 510 75 q 328 -8 440 -8 q 170 56 240 -7 q 92 236 93 117 l 92 704 m 419 964 l 570 964 l 570 814 l 419 814 l 419 964 m 175 964 l 325 964 l 325 814 l 175 814 l 175 964 m 391 1219 l 578 1219 l 380 1017 l 264 1017 l 391 1219 z "},"Ǚ":{"ha":875,"x_min":86,"x_max":789,"o":"m 86 989 l 236 989 l 236 351 q 294 197 237 250 q 437 142 350 142 q 582 197 525 142 q 639 351 637 250 l 639 989 l 789 989 l 789 335 q 688 87 786 179 q 437 -8 589 -7 q 189 87 289 -7 q 86 335 87 179 l 86 989 m 484 1206 l 635 1206 l 635 1057 l 484 1057 l 484 1206 m 240 1206 l 390 1206 l 390 1057 l 240 1057 l 240 1206 m 211 1462 l 345 1462 l 437 1343 l 437 1343 l 530 1462 l 664 1462 l 516 1259 l 358 1259 l 211 1462 z "},"ǚ":{"ha":746,"x_min":92,"x_max":654,"o":"m 92 704 l 233 704 l 233 285 q 273 174 233 214 q 374 134 313 134 q 473 174 435 134 q 513 285 513 214 l 513 704 l 654 704 l 654 0 l 513 0 l 513 75 l 510 75 q 328 -8 440 -8 q 170 56 240 -7 q 92 236 93 117 l 92 704 m 419 964 l 570 964 l 570 814 l 419 814 l 419 964 m 175 964 l 325 964 l 325 814 l 175 814 l 175 964 m 146 1219 l 279 1219 l 372 1100 l 372 1100 l 465 1219 l 599 1219 l 451 1017 l 293 1017 l 146 1219 z "},"Ǜ":{"ha":875,"x_min":86,"x_max":789,"o":"m 86 989 l 236 989 l 236 351 q 294 197 237 250 q 437 142 350 142 q 582 197 525 142 q 639 351 637 250 l 639 989 l 789 989 l 789 335 q 688 87 786 179 q 437 -8 589 -7 q 189 87 289 -7 q 86 335 87 179 l 86 989 m 484 1206 l 635 1206 l 635 1057 l 484 1057 l 484 1206 m 240 1206 l 390 1206 l 390 1057 l 240 1057 l 240 1206 m 235 1462 l 421 1462 l 549 1259 l 432 1259 l 235 1462 z "},"ǜ":{"ha":746,"x_min":92,"x_max":654,"o":"m 92 704 l 233 704 l 233 285 q 273 174 233 214 q 374 134 313 134 q 473 174 435 134 q 513 285 513 214 l 513 704 l 654 704 l 654 0 l 513 0 l 513 75 l 510 75 q 328 -8 440 -8 q 170 56 240 -7 q 92 236 93 117 l 92 704 m 419 964 l 570 964 l 570 814 l 419 814 l 419 964 m 175 964 l 325 964 l 325 814 l 175 814 l 175 964 m 160 1219 l 346 1219 l 473 1017 l 357 1017 l 160 1219 z "},"Ǟ":{"ha":847,"x_min":1,"x_max":846,"o":"m 568 354 l 425 786 l 422 786 l 279 354 l 568 354 m 611 221 l 236 221 l 160 0 l 1 0 l 361 989 l 486 989 l 846 0 l 688 0 l 611 221 m 471 1206 l 621 1206 l 621 1057 l 471 1057 l 471 1206 m 227 1206 l 376 1206 l 376 1057 l 227 1057 l 227 1206 m 224 1400 l 624 1400 l 624 1308 l 224 1308 l 224 1400 z "},"ǟ":{"ha":694,"x_min":36,"x_max":603,"o":"m 461 62 l 458 62 q 397 9 439 26 q 285 -8 357 -8 q 103 54 167 -7 q 36 207 36 114 q 94 354 36 296 q 265 415 153 414 l 461 415 l 461 489 q 317 579 463 582 q 233 568 264 579 q 183 525 201 555 l 183 525 l 72 610 q 310 713 153 715 q 522 663 443 714 q 603 481 602 610 l 603 0 l 461 0 l 461 62 m 461 298 l 292 298 q 170 214 168 296 q 201 153 170 178 q 302 125 232 125 q 428 146 391 123 q 461 248 461 168 l 461 298 m 395 964 l 546 964 l 546 814 l 395 814 l 395 964 m 151 964 l 301 964 l 301 814 l 151 814 l 151 964 m 149 1157 l 549 1157 l 549 1065 l 149 1065 l 149 1157 z "},"Ǡ":{"ha":847,"x_min":1,"x_max":846,"o":"m 568 354 l 425 786 l 422 786 l 279 354 l 568 354 m 611 221 l 236 221 l 160 0 l 1 0 l 361 989 l 486 989 l 846 0 l 688 0 l 611 221 m 349 1206 l 498 1206 l 498 1057 l 349 1057 l 349 1206 m 224 1400 l 624 1400 l 624 1308 l 224 1308 l 224 1400 z "},"ǡ":{"ha":694,"x_min":36,"x_max":603,"o":"m 461 62 l 458 62 q 397 9 439 26 q 285 -8 357 -8 q 103 54 167 -7 q 36 207 36 114 q 94 354 36 296 q 265 415 153 414 l 461 415 l 461 489 q 317 579 463 582 q 233 568 264 579 q 183 525 201 555 l 183 525 l 72 610 q 310 713 153 715 q 522 663 443 714 q 603 481 602 610 l 603 0 l 461 0 l 461 62 m 461 298 l 292 298 q 170 214 168 296 q 201 153 170 178 q 302 125 232 125 q 428 146 391 123 q 461 248 461 168 l 461 298 m 275 964 l 425 964 l 425 814 l 275 814 l 275 964 m 150 1157 l 550 1157 l 550 1065 l 150 1065 l 150 1157 z "},"Ǣ":{"ha":1260,"x_min":-16,"x_max":1223,"o":"m 591 221 l 262 221 l 143 0 l -16 0 l 522 989 l 1223 989 l 1223 847 l 742 847 l 742 565 l 1153 565 l 1153 432 l 742 432 l 742 142 l 1223 142 l 1223 0 l 591 0 l 591 221 m 591 354 l 591 855 l 589 855 l 333 354 l 591 354 m 555 1177 l 956 1177 l 956 1086 l 555 1086 l 555 1177 z "},"ǣ":{"ha":1080,"x_min":26,"x_max":1023,"o":"m 62 610 q 300 713 143 715 q 529 623 465 714 l 529 623 q 619 689 562 665 q 733 713 675 713 q 937 633 854 711 q 1023 415 1022 554 l 1023 298 l 585 298 q 633 170 585 214 q 753 125 679 125 q 907 193 839 125 l 907 193 l 1010 106 q 755 -8 901 -9 q 621 16 680 -8 q 510 100 559 39 l 510 100 q 410 17 469 40 q 286 -8 349 -8 q 101 47 174 -7 q 26 207 28 103 q 82 351 26 290 q 237 415 135 414 l 452 415 l 452 489 q 307 579 453 582 q 224 568 254 579 q 174 525 192 555 l 174 525 l 62 610 m 282 298 q 160 214 158 296 q 192 153 160 178 q 293 125 222 125 q 418 146 382 123 q 452 248 452 168 l 452 298 l 282 298 m 882 415 q 838 539 879 497 q 733 579 797 579 q 629 539 669 579 q 585 415 589 497 l 882 415 m 325 935 l 725 935 l 725 843 l 325 843 l 325 935 z "},"Ǧ":{"ha":847,"x_min":71,"x_max":777,"o":"m 425 545 l 777 545 l 777 343 q 675 94 774 195 q 424 -8 575 -5 q 229 49 307 -5 q 114 170 150 101 q 94 212 103 192 q 81 265 86 233 q 71 494 71 325 q 81 725 71 667 q 114 819 92 783 q 229 941 150 888 q 424 997 307 996 q 657 912 567 996 q 771 704 747 828 l 612 704 q 546 806 594 764 q 424 847 496 846 q 333 826 371 846 q 271 775 294 806 q 232 693 241 743 q 221 494 221 640 q 232 297 221 349 q 271 214 241 245 q 333 164 294 183 q 424 142 371 142 q 568 201 511 142 q 627 351 625 258 l 627 403 l 425 403 l 425 545 m 197 1240 l 331 1240 l 424 1120 l 424 1120 l 517 1240 l 650 1240 l 503 1037 l 345 1037 l 197 1240 z "},"ǧ":{"ha":721,"x_min":66,"x_max":629,"o":"m 488 74 q 306 -8 418 -5 q 192 21 237 -7 q 119 78 144 47 q 79 163 92 113 q 66 351 66 212 q 79 543 66 493 q 119 627 92 593 q 192 686 144 660 q 306 713 237 711 q 488 629 411 713 l 488 629 l 488 704 l 629 704 l 629 17 q 538 -216 627 -142 q 323 -293 448 -293 q 79 -175 180 -290 l 189 -87 l 189 -87 q 252 -130 216 -113 q 326 -151 288 -150 q 443 -111 399 -151 q 488 1 486 -71 l 488 74 m 208 351 q 214 240 208 271 q 236 187 218 208 q 279 153 250 168 q 349 134 307 134 q 418 153 390 134 q 460 187 446 168 q 484 240 477 208 q 488 351 488 271 q 484 465 488 433 q 460 517 477 497 q 418 554 446 536 q 349 571 390 570 q 279 554 307 570 q 236 517 250 536 q 214 465 218 497 q 208 351 208 433 m 121 997 l 254 997 l 347 878 l 347 878 l 440 997 l 574 997 l 426 794 l 268 794 l 121 997 z "},"Ǩ":{"ha":875,"x_min":104,"x_max":875,"o":"m 104 989 l 254 989 l 254 479 l 257 479 l 664 989 l 842 989 l 525 599 l 875 0 l 697 0 l 428 484 l 428 484 l 254 301 l 254 0 l 104 0 l 104 989 m 221 1240 l 355 1240 l 448 1120 l 448 1120 l 541 1240 l 674 1240 l 526 1037 l 368 1037 l 221 1240 z "},"ǩ":{"ha":721,"x_min":92,"x_max":709,"o":"m 92 989 l 233 989 l 233 374 l 236 374 l 507 704 l 676 704 l 433 429 l 709 0 l 532 0 l 345 329 l 345 329 l 233 203 l 233 0 l 92 0 l 92 989 m 164 1240 l 298 1240 l 391 1120 l 391 1120 l 484 1240 l 617 1240 l 469 1037 l 311 1037 l 164 1240 z "},"Ǫ":{"ha":847,"x_min":71,"x_max":777,"o":"m 572 -281 q 518 -303 553 -292 q 437 -314 484 -314 q 341 -278 380 -314 q 302 -184 302 -243 q 335 -84 302 -125 q 416 -8 368 -43 q 229 49 306 -4 q 114 170 149 102 l 94 212 q 87 237 90 224 q 81 265 83 250 q 71 494 71 322 q 73 639 71 582 q 81 725 75 696 q 114 819 92 785 q 229 942 149 886 q 424 997 306 994 q 621 942 543 994 q 733 819 699 888 q 768 725 757 786 q 777 494 777 667 q 768 265 777 325 q 733 170 757 204 q 621 49 697 100 q 498 0 567 12 q 434 -86 457 -43 q 411 -175 411 -129 q 431 -223 411 -203 q 479 -243 452 -243 q 553 -222 525 -243 l 572 -281 m 221 494 q 224 372 221 421 q 232 297 227 323 q 271 214 243 244 q 334 164 293 182 q 424 142 370 142 q 517 164 478 142 q 576 214 553 182 q 616 297 607 245 q 627 494 627 346 q 625 617 627 568 q 616 693 623 667 q 576 775 607 743 q 517 827 554 806 q 424 847 476 846 q 334 827 371 844 q 271 775 293 806 q 232 693 243 745 q 221 494 221 637 z "},"ǫ":{"ha":694,"x_min":57,"x_max":637,"o":"m 496 -281 q 441 -303 476 -292 q 361 -314 407 -314 q 266 -278 304 -314 q 227 -184 227 -243 q 259 -84 227 -125 q 340 -8 292 -43 q 271 1 301 -5 q 215 22 240 7 q 134 82 161 50 q 75 183 93 126 q 57 353 57 239 q 75 524 57 465 q 134 623 94 583 q 215 685 163 657 q 347 713 265 710 q 482 685 432 710 q 561 623 533 657 q 621 524 602 583 q 637 353 637 463 q 621 183 637 241 q 561 82 602 125 q 546 67 554 75 q 528 52 538 58 q 482 22 509 35 q 453 9 468 16 q 424 0 439 3 q 358 -86 380 -43 q 335 -175 335 -129 q 355 -223 335 -203 q 403 -243 375 -243 q 476 -222 449 -243 l 496 -281 m 496 351 q 494 416 496 389 q 489 461 492 443 q 461 519 484 493 q 415 557 446 542 q 347 571 387 571 q 281 557 310 571 q 233 519 253 543 q 207 461 215 496 q 199 353 199 425 q 207 245 199 279 q 233 184 215 211 q 281 149 254 163 q 347 134 314 134 q 415 149 385 134 q 461 184 446 163 q 489 245 484 214 q 494 289 492 262 q 496 351 496 315 z "},"Ǭ":{"ha":847,"x_min":71,"x_max":777,"o":"m 572 -281 q 518 -303 553 -292 q 437 -314 484 -314 q 341 -278 380 -314 q 302 -184 302 -243 q 335 -84 302 -125 q 416 -8 368 -43 q 229 49 306 -4 q 114 170 149 102 l 94 212 q 87 237 90 224 q 81 265 83 250 q 71 494 71 322 q 73 639 71 582 q 81 725 75 696 q 114 819 92 785 q 229 942 149 886 q 424 997 306 994 q 621 942 543 994 q 733 819 699 888 q 768 725 757 786 q 777 494 777 667 q 768 265 777 325 q 733 170 757 204 q 621 49 697 100 q 498 0 567 12 q 434 -86 457 -43 q 411 -175 411 -129 q 431 -223 411 -203 q 479 -243 452 -243 q 553 -222 525 -243 l 572 -281 m 221 494 q 224 372 221 421 q 232 297 227 323 q 271 214 243 244 q 334 164 293 182 q 424 142 370 142 q 517 164 478 142 q 576 214 553 182 q 616 297 607 245 q 627 494 627 346 q 625 617 627 568 q 616 693 623 667 q 576 775 607 743 q 517 827 554 806 q 424 847 476 846 q 334 827 371 844 q 271 775 293 806 q 232 693 243 745 q 221 494 221 637 m 224 1177 l 624 1177 l 624 1086 l 224 1086 l 224 1177 z "},"ǭ":{"ha":694,"x_min":57,"x_max":637,"o":"m 496 -281 q 441 -303 476 -292 q 361 -314 407 -314 q 266 -278 304 -314 q 227 -184 227 -243 q 259 -84 227 -125 q 340 -8 292 -43 q 271 1 301 -5 q 215 22 240 7 q 134 82 161 50 q 75 183 93 126 q 57 353 57 239 q 75 524 57 465 q 134 623 94 583 q 215 685 163 657 q 347 713 265 710 q 482 685 432 710 q 561 623 533 657 q 621 524 602 583 q 637 353 637 463 q 621 183 637 241 q 561 82 602 125 q 546 67 554 75 q 528 52 538 58 q 482 22 509 35 q 453 9 468 16 q 424 0 439 3 q 358 -86 380 -43 q 335 -175 335 -129 q 355 -223 335 -203 q 403 -243 375 -243 q 476 -222 449 -243 l 496 -281 m 496 351 q 494 416 496 389 q 489 461 492 443 q 461 519 484 493 q 415 557 446 542 q 347 571 387 571 q 281 557 310 571 q 233 519 253 543 q 207 461 215 496 q 199 353 199 425 q 207 245 199 279 q 233 184 215 211 q 281 149 254 163 q 347 134 314 134 q 415 149 385 134 q 461 184 446 163 q 489 245 484 214 q 494 289 492 262 q 496 351 496 315 m 150 935 l 550 935 l 550 843 l 150 843 l 150 935 z "},"Ǳ":{"ha":1568,"x_min":104,"x_max":1523,"o":"m 104 989 l 450 989 q 751 822 651 987 q 797 705 787 766 q 804 494 804 644 q 793 272 804 335 q 777 215 787 240 q 749 164 765 191 q 628 49 705 94 q 440 0 551 0 l 104 0 l 104 989 m 254 142 l 433 142 q 616 228 559 142 q 648 309 642 260 q 654 489 654 357 q 648 673 654 618 q 610 764 640 729 q 433 847 547 850 l 254 847 l 254 142 m 892 125 l 1340 855 l 909 855 l 909 989 l 1523 989 l 1523 876 l 1074 142 l 1523 142 l 1523 0 l 892 0 l 892 125 z "},"ǲ":{"ha":1491,"x_min":104,"x_max":1446,"o":"m 104 989 l 450 989 q 751 822 651 987 q 797 705 787 766 q 804 494 804 644 q 793 272 804 335 q 777 215 787 240 q 749 164 765 191 q 628 49 705 94 q 440 0 551 0 l 104 0 l 104 989 m 254 142 l 433 142 q 616 228 559 142 q 648 309 642 260 q 654 489 654 357 q 648 673 654 618 q 610 764 640 729 q 433 847 547 850 l 254 847 l 254 142 m 921 113 l 1274 579 l 940 579 l 940 704 l 1446 704 l 1446 591 l 1093 134 l 1446 134 l 1446 0 l 921 0 l 921 113 z "},"ǳ":{"ha":1337,"x_min":92,"x_max":1292,"o":"m 513 74 q 330 -8 443 -5 q 221 18 267 -7 q 142 83 174 43 q 103 174 113 117 q 92 353 92 228 q 103 533 92 479 q 142 621 113 587 q 330 713 201 709 q 431 690 385 713 q 513 629 473 667 l 513 629 l 513 989 l 654 989 l 654 0 l 513 0 l 513 74 m 374 571 q 297 554 323 571 q 254 504 268 536 q 237 435 241 472 q 233 353 233 395 q 237 275 233 313 q 254 203 241 235 q 297 153 268 172 q 374 134 323 134 q 453 154 424 134 q 493 205 482 174 q 511 277 507 237 q 513 353 513 315 q 511 431 513 393 q 493 500 507 468 q 453 551 482 532 q 374 571 424 571 m 767 113 l 1120 579 l 786 579 l 786 704 l 1292 704 l 1292 591 l 939 134 l 1292 134 l 1292 0 l 767 0 l 767 113 z "},"Ǵ":{"ha":847,"x_min":71,"x_max":777,"o":"m 425 545 l 777 545 l 777 343 q 675 94 774 195 q 424 -8 575 -5 q 229 49 307 -5 q 114 170 150 101 q 94 212 103 192 q 81 265 86 233 q 71 494 71 325 q 81 725 71 667 q 114 819 92 783 q 229 941 150 888 q 424 997 307 996 q 657 912 567 996 q 771 704 747 828 l 612 704 q 546 806 594 764 q 424 847 496 846 q 333 826 371 846 q 271 775 294 806 q 232 693 241 743 q 221 494 221 640 q 232 297 221 349 q 271 214 241 245 q 333 164 294 183 q 424 142 371 142 q 568 201 511 142 q 627 351 625 258 l 627 403 l 425 403 l 425 545 m 451 1240 l 637 1240 l 440 1037 l 323 1037 l 451 1240 z "},"ǵ":{"ha":721,"x_min":66,"x_max":629,"o":"m 488 74 q 306 -8 418 -5 q 192 21 237 -7 q 119 78 144 47 q 79 163 92 113 q 66 351 66 212 q 79 543 66 493 q 119 627 92 593 q 192 686 144 660 q 306 713 237 711 q 488 629 411 713 l 488 629 l 488 704 l 629 704 l 629 17 q 538 -216 627 -142 q 323 -293 448 -293 q 79 -175 180 -290 l 189 -87 l 189 -87 q 252 -130 216 -113 q 326 -151 288 -150 q 443 -111 399 -151 q 488 1 486 -71 l 488 74 m 208 351 q 214 240 208 271 q 236 187 218 208 q 279 153 250 168 q 349 134 307 134 q 418 153 390 134 q 460 187 446 168 q 484 240 477 208 q 488 351 488 271 q 484 465 488 433 q 460 517 477 497 q 418 554 446 536 q 349 571 390 570 q 279 554 307 570 q 236 517 250 536 q 214 465 218 497 q 208 351 208 433 m 373 997 l 559 997 l 362 794 l 245 794 l 373 997 z "},"Ǹ":{"ha":950,"x_min":104,"x_max":846,"o":"m 104 989 l 245 989 l 693 286 l 696 286 l 696 989 l 846 989 l 846 0 l 704 0 l 257 703 l 254 703 l 254 0 l 104 0 l 104 989 m 262 1240 l 448 1240 l 576 1037 l 459 1037 l 262 1240 z "},"ǹ":{"ha":746,"x_min":92,"x_max":654,"o":"m 92 704 l 233 704 l 233 629 l 236 629 q 419 713 306 713 q 579 651 507 713 q 654 468 651 589 l 654 0 l 513 0 l 513 419 q 473 532 513 493 q 374 571 435 571 q 273 532 313 571 q 233 419 233 493 l 233 0 l 92 0 l 92 704 m 160 997 l 346 997 l 473 794 l 357 794 l 160 997 z "},"Ǻ":{"ha":847,"x_min":1,"x_max":846,"o":"m 568 354 l 425 786 l 422 786 l 279 354 l 568 354 m 611 221 l 236 221 l 160 0 l 1 0 l 361 989 l 486 989 l 846 0 l 688 0 l 611 221 m 281 1160 q 323 1262 281 1222 q 424 1303 364 1301 q 526 1262 486 1301 q 567 1160 566 1222 q 526 1059 566 1100 q 424 1017 486 1017 q 323 1059 364 1017 q 281 1160 281 1100 m 336 1160 q 363 1098 336 1123 q 424 1072 387 1072 q 486 1098 463 1072 q 511 1160 510 1123 q 486 1222 510 1198 q 424 1247 463 1246 q 363 1222 387 1246 q 336 1160 336 1198 m 454 1546 l 640 1546 l 443 1343 l 326 1343 l 454 1546 z "},"ǻ":{"ha":694,"x_min":36,"x_max":603,"o":"m 461 62 l 458 62 q 397 9 439 26 q 285 -8 357 -8 q 103 54 167 -7 q 36 207 36 114 q 94 354 36 296 q 265 415 153 414 l 461 415 l 461 489 q 317 579 463 582 q 233 568 264 579 q 183 525 201 555 l 183 525 l 72 610 q 310 713 153 715 q 522 663 443 714 q 603 481 602 610 l 603 0 l 461 0 l 461 62 m 461 298 l 292 298 q 170 214 168 296 q 201 153 170 178 q 302 125 232 125 q 428 146 391 123 q 461 248 461 168 l 461 298 m 373 1311 l 559 1311 l 362 1108 l 245 1108 l 373 1311 m 210 917 q 252 1019 210 979 q 353 1060 293 1058 q 455 1019 415 1058 q 496 917 494 979 q 455 817 494 857 q 353 774 415 774 q 252 817 293 774 q 210 917 210 857 m 265 917 q 292 855 265 880 q 353 829 316 829 q 415 855 391 829 q 440 917 439 880 q 415 979 439 956 q 353 1004 391 1003 q 292 979 316 1003 q 265 917 265 956 z "},"Ǽ":{"ha":1260,"x_min":-16,"x_max":1223,"o":"m 591 221 l 262 221 l 143 0 l -16 0 l 522 989 l 1223 989 l 1223 847 l 742 847 l 742 565 l 1153 565 l 1153 432 l 742 432 l 742 142 l 1223 142 l 1223 0 l 591 0 l 591 221 m 591 354 l 591 855 l 589 855 l 333 354 l 591 354 m 658 1240 l 844 1240 l 647 1037 l 530 1037 l 658 1240 z "},"ǽ":{"ha":1080,"x_min":26,"x_max":1023,"o":"m 62 610 q 300 713 143 715 q 529 623 465 714 l 529 623 q 619 689 562 665 q 733 713 675 713 q 937 633 854 711 q 1023 415 1022 554 l 1023 298 l 585 298 q 633 170 585 214 q 753 125 679 125 q 907 193 839 125 l 907 193 l 1010 106 q 755 -8 901 -9 q 621 16 680 -8 q 510 100 559 39 l 510 100 q 410 17 469 40 q 286 -8 349 -8 q 101 47 174 -7 q 26 207 28 103 q 82 351 26 290 q 237 415 135 414 l 452 415 l 452 489 q 307 579 453 582 q 224 568 254 579 q 174 525 192 555 l 174 525 l 62 610 m 282 298 q 160 214 158 296 q 192 153 160 178 q 293 125 222 125 q 418 146 382 123 q 452 248 452 168 l 452 298 l 282 298 m 882 415 q 838 539 879 497 q 733 579 797 579 q 629 539 669 579 q 585 415 589 497 l 882 415 m 579 997 l 766 997 l 568 794 l 452 794 l 579 997 z "},"Ǿ":{"ha":847,"x_min":71,"x_max":777,"o":"m 163 103 q 114 170 132 139 q 94 212 103 192 q 81 265 86 233 q 71 494 71 325 q 81 725 71 667 q 114 819 92 783 q 229 941 150 888 q 424 997 307 996 q 627 936 545 996 l 627 936 l 694 1058 l 694 1058 l 758 1023 l 684 888 q 733 819 715 854 q 768 725 758 783 q 777 494 777 667 q 768 265 777 325 q 733 170 758 205 q 621 49 699 101 q 424 -8 542 -5 q 220 56 301 -7 l 220 56 l 150 -69 l 150 -69 l 86 -35 l 163 103 m 551 802 q 424 847 503 846 q 333 826 371 846 q 271 775 294 806 q 232 693 241 743 q 221 494 221 640 q 227 333 221 386 q 245 253 232 279 l 245 253 l 551 802 m 294 191 q 424 142 340 143 q 517 164 477 142 q 576 214 554 183 q 616 297 606 245 q 627 494 627 349 q 622 660 627 607 q 600 739 616 713 l 600 739 l 294 191 m 451 1240 l 637 1240 l 440 1037 l 323 1037 l 451 1240 z "},"ǿ":{"ha":694,"x_min":56,"x_max":637,"o":"m 420 553 q 347 571 389 571 q 281 557 311 571 q 233 519 252 543 q 207 461 215 494 q 199 353 199 427 q 204 260 199 292 q 221 205 208 227 l 221 205 l 420 553 m 144 72 q 74 189 92 121 q 57 353 56 257 q 75 524 57 464 q 134 622 94 582 q 215 685 163 657 q 347 713 267 711 q 493 676 437 711 l 554 782 l 554 782 l 615 746 l 550 633 q 618 530 597 590 q 633 456 629 500 q 637 353 637 412 q 621 183 637 241 q 561 82 603 125 q 528 52 547 66 q 482 22 510 35 q 347 -8 431 -7 q 203 29 257 -7 l 203 29 l 140 -78 l 140 -78 l 79 -41 l 144 72 m 273 153 q 347 134 307 134 q 415 149 386 134 q 461 184 446 164 q 489 245 482 211 q 496 351 496 279 q 492 447 496 414 q 473 500 486 479 l 473 500 l 273 153 m 373 997 l 559 997 l 362 794 l 245 794 l 373 997 z "},"Ȁ":{"ha":847,"x_min":1,"x_max":846,"o":"m 568 354 l 425 786 l 422 786 l 279 354 l 568 354 m 611 221 l 236 221 l 160 0 l 1 0 l 361 989 l 486 989 l 846 0 l 688 0 l 611 221 m 310 1240 l 496 1240 l 623 1037 l 507 1037 l 310 1240 m 57 1240 l 243 1240 l 370 1037 l 254 1037 l 57 1240 z "},"ȁ":{"ha":694,"x_min":22,"x_max":603,"o":"m 461 62 l 458 62 q 397 9 439 26 q 285 -8 357 -8 q 103 54 167 -7 q 36 207 36 114 q 94 354 36 296 q 265 415 153 414 l 461 415 l 461 489 q 317 579 463 582 q 233 568 264 579 q 183 525 201 555 l 183 525 l 72 610 q 310 713 153 715 q 522 663 443 714 q 603 481 602 610 l 603 0 l 461 0 l 461 62 m 461 298 l 292 298 q 170 214 168 296 q 201 153 170 178 q 302 125 232 125 q 428 146 391 123 q 461 248 461 168 l 461 298 m 275 997 l 461 997 l 589 794 l 472 794 l 275 997 m 22 997 l 208 997 l 336 794 l 219 794 l 22 997 z "},"Ȃ":{"ha":847,"x_min":1,"x_max":846,"o":"m 568 354 l 425 786 l 422 786 l 279 354 l 568 354 m 611 221 l 236 221 l 160 0 l 1 0 l 361 989 l 486 989 l 846 0 l 688 0 l 611 221 m 199 1046 q 267 1184 208 1133 q 423 1240 323 1240 q 583 1184 526 1240 q 647 1046 640 1133 l 564 1046 q 512 1126 551 1104 q 423 1148 475 1149 q 332 1124 368 1148 q 283 1046 297 1101 l 199 1046 z "},"ȃ":{"ha":694,"x_min":36,"x_max":603,"o":"m 461 62 l 458 62 q 397 9 439 26 q 285 -8 357 -8 q 103 54 167 -7 q 36 207 36 114 q 94 354 36 296 q 265 415 153 414 l 461 415 l 461 489 q 317 579 463 582 q 233 568 264 579 q 183 525 201 555 l 183 525 l 72 610 q 310 713 153 715 q 522 663 443 714 q 603 481 602 610 l 603 0 l 461 0 l 461 62 m 461 298 l 292 298 q 170 214 168 296 q 201 153 170 178 q 302 125 232 125 q 428 146 391 123 q 461 248 461 168 l 461 298 m 126 803 q 193 941 135 890 q 350 997 250 997 q 509 941 452 997 q 574 803 566 890 l 490 803 q 439 883 477 861 q 350 905 401 907 q 258 882 294 905 q 210 803 224 859 l 126 803 z "},"Ȅ":{"ha":772,"x_min":82,"x_max":736,"o":"m 104 989 l 736 989 l 736 847 l 254 847 l 254 565 l 665 565 l 665 432 l 254 432 l 254 142 l 736 142 l 736 0 l 104 0 l 104 989 m 335 1240 l 521 1240 l 648 1037 l 532 1037 l 335 1240 m 82 1240 l 268 1240 l 395 1037 l 279 1037 l 82 1240 z "},"ȅ":{"ha":694,"x_min":-5,"x_max":637,"o":"m 199 298 q 248 170 199 214 q 367 125 293 125 q 521 193 453 125 l 521 193 l 623 106 q 370 -8 515 -9 q 261 8 314 -8 q 210 32 235 17 q 160 64 183 45 q 87 174 115 103 q 57 350 57 241 q 83 524 57 454 q 151 635 110 594 q 245 694 193 676 q 347 713 297 713 q 551 633 468 711 q 637 415 636 554 l 637 298 l 199 298 m 496 415 q 452 539 493 497 q 347 579 411 579 q 243 539 283 579 q 199 415 203 497 l 496 415 m 248 997 l 433 997 l 561 794 l 444 794 l 248 997 m -5 997 l 180 997 l 308 794 l 191 794 l -5 997 z "},"Ȇ":{"ha":772,"x_min":104,"x_max":736,"o":"m 104 989 l 736 989 l 736 847 l 254 847 l 254 565 l 665 565 l 665 432 l 254 432 l 254 142 l 736 142 l 736 0 l 104 0 l 104 989 m 207 1046 q 274 1184 216 1133 q 431 1240 330 1240 q 590 1184 533 1240 q 654 1046 647 1133 l 571 1046 q 519 1126 558 1104 q 431 1148 482 1149 q 339 1124 375 1148 q 290 1046 304 1101 l 207 1046 z "},"ȇ":{"ha":694,"x_min":57,"x_max":637,"o":"m 199 298 q 248 170 199 214 q 367 125 293 125 q 521 193 453 125 l 521 193 l 623 106 q 370 -8 515 -9 q 261 8 314 -8 q 210 32 235 17 q 160 64 183 45 q 87 174 115 103 q 57 350 57 241 q 83 524 57 454 q 151 635 110 594 q 245 694 193 676 q 347 713 297 713 q 551 633 468 711 q 637 415 636 554 l 637 298 l 199 298 m 496 415 q 452 539 493 497 q 347 579 411 579 q 243 539 283 579 q 199 415 203 497 l 496 415 m 123 803 q 191 941 132 890 q 347 997 247 997 q 507 941 450 997 q 571 803 564 890 l 488 803 q 436 883 475 861 q 347 905 399 907 q 256 882 292 905 q 207 803 221 859 l 123 803 z "},"Ȉ":{"ha":358,"x_min":-159,"x_max":407,"o":"m 104 989 l 254 989 l 254 0 l 104 0 l 104 989 m 94 1240 l 279 1240 l 407 1037 l 290 1037 l 94 1240 m -159 1240 l 26 1240 l 154 1037 l 37 1037 l -159 1240 z "},"ȉ":{"ha":334,"x_min":-172,"x_max":394,"o":"m 96 704 l 237 704 l 237 0 l 96 0 l 96 704 m 81 997 l 267 997 l 394 794 l 277 794 l 81 997 m -172 997 l 14 997 l 141 794 l 24 794 l -172 997 z "},"Ȋ":{"ha":358,"x_min":-45,"x_max":403,"o":"m 104 989 l 254 989 l 254 0 l 104 0 l 104 989 m -45 1046 q 22 1184 -36 1133 q 179 1240 79 1240 q 338 1184 281 1240 q 403 1046 395 1133 l 319 1046 q 268 1126 307 1104 q 179 1148 231 1149 q 87 1124 123 1148 q 39 1046 53 1101 l -45 1046 z "},"ȋ":{"ha":334,"x_min":-58,"x_max":390,"o":"m 96 704 l 237 704 l 237 0 l 96 0 l 96 704 m -58 803 q 9 941 -49 890 q 166 997 66 997 q 326 941 269 997 q 390 803 382 890 l 307 803 q 255 883 294 861 q 166 905 218 907 q 75 882 111 905 q 26 803 40 859 l -58 803 z "},"Ȍ":{"ha":847,"x_min":71,"x_max":777,"o":"m 71 494 q 81 725 71 667 q 114 819 92 783 q 229 941 150 888 q 424 997 307 996 q 621 941 542 996 q 733 819 699 888 q 768 725 758 783 q 777 494 777 667 q 768 265 777 325 q 733 170 758 205 q 621 49 699 101 q 424 -8 542 -5 q 229 49 307 -5 q 114 170 150 101 q 94 212 103 192 q 81 265 86 233 q 71 494 71 325 m 221 494 q 232 297 221 349 q 271 214 241 245 q 333 164 294 183 q 424 142 371 142 q 517 164 477 142 q 576 214 554 183 q 616 297 606 245 q 627 494 627 349 q 616 693 627 640 q 576 775 606 743 q 517 826 554 806 q 424 847 477 846 q 333 826 371 846 q 271 775 294 806 q 232 693 241 743 q 221 494 221 640 m 338 1240 l 524 1240 l 651 1037 l 534 1037 l 338 1240 m 85 1240 l 271 1240 l 398 1037 l 281 1037 l 85 1240 z "},"ȍ":{"ha":694,"x_min":9,"x_max":637,"o":"m 57 353 q 75 524 57 464 q 134 622 94 582 q 215 685 163 657 q 347 713 267 711 q 482 685 431 711 q 561 622 533 657 q 621 524 603 582 q 637 353 637 464 q 621 183 637 241 q 561 82 603 125 q 528 52 547 66 q 482 22 510 35 q 347 -8 431 -7 q 215 22 267 -7 q 134 82 163 49 q 75 183 94 125 q 57 353 57 241 m 496 351 q 489 461 496 427 q 461 519 482 494 q 415 557 446 543 q 347 571 386 571 q 281 557 311 571 q 233 519 252 543 q 207 461 215 494 q 199 353 199 427 q 207 245 199 279 q 233 184 215 211 q 281 149 252 164 q 347 134 311 134 q 415 149 386 134 q 461 184 446 164 q 489 245 482 211 q 496 351 496 279 m 262 997 l 448 997 l 575 794 l 458 794 l 262 997 m 9 997 l 195 997 l 322 794 l 205 794 l 9 997 z "},"Ȏ":{"ha":847,"x_min":71,"x_max":777,"o":"m 71 494 q 81 725 71 667 q 114 819 92 783 q 229 941 150 888 q 424 997 307 996 q 621 941 542 996 q 733 819 699 888 q 768 725 758 783 q 777 494 777 667 q 768 265 777 325 q 733 170 758 205 q 621 49 699 101 q 424 -8 542 -5 q 229 49 307 -5 q 114 170 150 101 q 94 212 103 192 q 81 265 86 233 q 71 494 71 325 m 221 494 q 232 297 221 349 q 271 214 241 245 q 333 164 294 183 q 424 142 371 142 q 517 164 477 142 q 576 214 554 183 q 616 297 606 245 q 627 494 627 349 q 616 693 627 640 q 576 775 606 743 q 517 826 554 806 q 424 847 477 846 q 333 826 371 846 q 271 775 294 806 q 232 693 241 743 q 221 494 221 640 m 202 1046 q 269 1184 211 1133 q 426 1240 326 1240 q 585 1184 528 1240 q 650 1046 642 1133 l 566 1046 q 515 1126 553 1104 q 426 1148 477 1149 q 334 1124 370 1148 q 286 1046 300 1101 l 202 1046 z "},"ȏ":{"ha":694,"x_min":57,"x_max":637,"o":"m 57 353 q 75 524 57 464 q 134 622 94 582 q 215 685 163 657 q 347 713 267 711 q 482 685 431 711 q 561 622 533 657 q 621 524 603 582 q 637 353 637 464 q 621 183 637 241 q 561 82 603 125 q 528 52 547 66 q 482 22 510 35 q 347 -8 431 -7 q 215 22 267 -7 q 134 82 163 49 q 75 183 94 125 q 57 353 57 241 m 496 351 q 489 461 496 427 q 461 519 482 494 q 415 557 446 543 q 347 571 386 571 q 281 557 311 571 q 233 519 252 543 q 207 461 215 494 q 199 353 199 427 q 207 245 199 279 q 233 184 215 211 q 281 149 252 164 q 347 134 311 134 q 415 149 386 134 q 461 184 446 164 q 489 245 482 211 q 496 351 496 279 m 123 803 q 191 941 132 890 q 347 997 247 997 q 507 941 450 997 q 571 803 564 890 l 488 803 q 436 883 475 861 q 347 905 399 907 q 256 882 292 905 q 207 803 221 859 l 123 803 z "},"Ȑ":{"ha":847,"x_min":31,"x_max":828,"o":"m 254 555 l 481 555 q 607 604 565 557 q 648 713 648 648 q 599 825 647 790 q 489 855 561 855 l 254 855 l 254 555 m 104 989 l 490 989 q 692 924 614 989 q 790 713 786 850 q 599 439 787 511 l 828 0 l 650 0 l 446 422 l 254 422 l 254 0 l 104 0 l 104 989 m 283 1240 l 469 1240 l 597 1037 l 480 1037 l 283 1240 m 31 1240 l 216 1240 l 344 1037 l 227 1037 l 31 1240 z "},"ȑ":{"ha":541,"x_min":-37,"x_max":567,"o":"m 92 704 l 233 704 l 233 629 l 236 629 q 419 713 306 713 q 567 659 504 711 l 464 536 l 464 536 q 371 571 419 571 q 278 536 317 571 q 233 424 235 501 l 233 0 l 92 0 l 92 704 m 216 997 l 401 997 l 529 794 l 412 794 l 216 997 m -37 997 l 149 997 l 276 794 l 159 794 l -37 997 z "},"Ȓ":{"ha":847,"x_min":104,"x_max":828,"o":"m 254 555 l 481 555 q 607 604 565 557 q 648 713 648 648 q 599 825 647 790 q 489 855 561 855 l 254 855 l 254 555 m 104 989 l 490 989 q 692 924 614 989 q 790 713 786 850 q 599 439 787 511 l 828 0 l 650 0 l 446 422 l 254 422 l 254 0 l 104 0 l 104 989 m 176 1046 q 243 1184 185 1133 q 400 1240 300 1240 q 559 1184 503 1240 q 624 1046 616 1133 l 541 1046 q 489 1126 528 1104 q 400 1148 452 1149 q 309 1124 345 1148 q 260 1046 274 1101 l 176 1046 z "},"ȓ":{"ha":541,"x_min":92,"x_max":567,"o":"m 92 704 l 233 704 l 233 629 l 236 629 q 419 713 306 713 q 567 659 504 711 l 464 536 l 464 536 q 371 571 419 571 q 278 536 317 571 q 233 424 235 501 l 233 0 l 92 0 l 92 704 m 105 803 q 172 941 114 890 q 329 997 229 997 q 488 941 431 997 q 553 803 545 890 l 469 803 q 418 883 456 861 q 329 905 380 907 q 237 882 273 905 q 189 803 203 859 l 105 803 z "},"Ȕ":{"ha":875,"x_min":86,"x_max":789,"o":"m 86 989 l 236 989 l 236 351 q 294 197 237 250 q 437 142 350 142 q 582 197 525 142 q 639 351 637 250 l 639 989 l 789 989 l 789 335 q 688 87 786 179 q 437 -8 589 -7 q 189 87 289 -7 q 86 335 87 179 l 86 989 m 352 1240 l 538 1240 l 665 1037 l 549 1037 l 352 1240 m 99 1240 l 285 1240 l 412 1037 l 296 1037 l 99 1240 z "},"ȕ":{"ha":746,"x_min":29,"x_max":654,"o":"m 92 704 l 233 704 l 233 285 q 273 174 233 214 q 374 134 313 134 q 473 174 435 134 q 513 285 513 214 l 513 704 l 654 704 l 654 0 l 513 0 l 513 75 l 510 75 q 328 -8 440 -8 q 170 56 240 -7 q 92 236 93 117 l 92 704 m 282 997 l 468 997 l 595 794 l 479 794 l 282 997 m 29 997 l 215 997 l 342 794 l 226 794 l 29 997 z "},"Ȗ":{"ha":875,"x_min":86,"x_max":789,"o":"m 86 989 l 236 989 l 236 351 q 294 197 237 250 q 437 142 350 142 q 582 197 525 142 q 639 351 637 250 l 639 989 l 789 989 l 789 335 q 688 87 786 179 q 437 -8 589 -7 q 189 87 289 -7 q 86 335 87 179 l 86 989 m 214 1046 q 281 1184 222 1133 q 437 1240 337 1240 q 597 1184 540 1240 q 661 1046 654 1133 l 578 1046 q 526 1126 565 1104 q 437 1148 489 1149 q 346 1124 382 1148 q 297 1046 311 1101 l 214 1046 z "},"ȗ":{"ha":746,"x_min":92,"x_max":654,"o":"m 92 704 l 233 704 l 233 285 q 273 174 233 214 q 374 134 313 134 q 473 174 435 134 q 513 285 513 214 l 513 704 l 654 704 l 654 0 l 513 0 l 513 75 l 510 75 q 328 -8 440 -8 q 170 56 240 -7 q 92 236 93 117 l 92 704 m 144 803 q 211 941 153 890 q 368 997 267 997 q 527 941 470 997 q 591 803 584 890 l 508 803 q 456 883 495 861 q 368 905 419 907 q 276 882 312 905 q 227 803 241 859 l 144 803 z "},"Ș":{"ha":797,"x_min":18,"x_max":743,"o":"m 117 240 q 397 142 235 143 q 593 279 590 144 q 464 412 594 390 q 333 431 404 420 q 139 525 205 452 q 71 708 71 600 q 157 917 71 838 q 393 997 240 996 q 714 895 578 993 l 631 771 l 631 771 q 386 847 519 844 q 271 812 317 847 q 221 705 222 777 q 254 628 221 663 q 361 579 288 593 q 472 564 401 572 q 677 464 611 545 q 743 279 743 385 q 396 -8 736 -4 q 18 127 176 -8 l 117 240 l 117 240 m 317 -52 l 459 -52 l 459 -221 l 317 -323 l 317 -52 z "},"ș":{"ha":667,"x_min":14,"x_max":615,"o":"m 113 215 q 335 125 199 125 q 435 149 396 125 q 473 215 473 172 q 450 268 473 253 q 387 285 427 283 l 262 296 q 118 355 174 304 q 60 496 61 406 q 136 659 61 604 q 322 713 210 713 q 410 707 371 713 q 482 688 448 700 q 599 616 547 661 l 511 514 l 511 514 q 425 562 471 543 q 322 579 380 579 q 229 555 256 579 q 201 494 201 532 q 222 453 200 471 q 294 428 243 433 l 411 419 q 570 353 521 411 q 615 208 615 296 q 532 50 614 106 q 323 -8 450 -7 q 14 118 151 -8 l 113 215 l 113 215 m 264 -52 l 406 -52 l 406 -221 l 264 -323 l 264 -52 z "},"Ț":{"ha":694,"x_min":1,"x_max":693,"o":"m 272 855 l 1 855 l 1 989 l 693 989 l 693 855 l 422 855 l 422 0 l 272 0 l 272 855 m 276 -52 l 418 -52 l 418 -221 l 276 -323 l 276 -52 z "},"ț":{"ha":386,"x_min":29,"x_max":345,"o":"m 100 918 l 241 918 l 241 704 l 345 704 l 345 596 l 241 596 l 241 186 q 292 134 240 132 l 345 134 l 345 0 l 271 0 q 149 46 196 0 q 100 174 100 90 l 100 596 l 29 596 l 29 704 l 100 704 l 100 918 m 169 -52 l 311 -52 l 311 -221 l 169 -323 l 169 -52 z "},"Ȟ":{"ha":900,"x_min":104,"x_max":795,"o":"m 646 432 l 254 432 l 254 0 l 104 0 l 104 989 l 254 989 l 254 565 l 646 565 l 646 989 l 795 989 l 795 0 l 646 0 l 646 432 m 224 1240 l 357 1240 l 450 1120 l 450 1120 l 543 1240 l 677 1240 l 529 1037 l 371 1037 l 224 1240 z "},"ȟ":{"ha":746,"x_min":92,"x_max":654,"o":"m 92 989 l 233 989 l 233 629 l 236 629 q 419 713 306 713 q 579 651 507 713 q 654 468 651 589 l 654 0 l 513 0 l 513 419 q 473 532 513 493 q 374 571 435 571 q 273 532 313 571 q 233 419 233 493 l 233 0 l 92 0 l 92 989 m 164 1240 l 298 1240 l 391 1120 l 391 1120 l 484 1240 l 617 1240 l 469 1037 l 311 1037 l 164 1240 z "},"Ȧ":{"ha":847,"x_min":1,"x_max":846,"o":"m 568 354 l 425 786 l 422 786 l 279 354 l 568 354 m 611 221 l 236 221 l 160 0 l 1 0 l 361 989 l 486 989 l 846 0 l 688 0 l 611 221 m 349 1206 l 498 1206 l 498 1057 l 349 1057 l 349 1206 z "},"ȧ":{"ha":694,"x_min":36,"x_max":603,"o":"m 461 62 l 458 62 q 397 9 439 26 q 285 -8 357 -8 q 103 54 167 -7 q 36 207 36 114 q 94 354 36 296 q 265 415 153 414 l 461 415 l 461 489 q 317 579 463 582 q 233 568 264 579 q 183 525 201 555 l 183 525 l 72 610 q 310 713 153 715 q 522 663 443 714 q 603 481 602 610 l 603 0 l 461 0 l 461 62 m 461 298 l 292 298 q 170 214 168 296 q 201 153 170 178 q 302 125 232 125 q 428 146 391 123 q 461 248 461 168 l 461 298 m 275 964 l 425 964 l 425 814 l 275 814 l 275 964 z "},"Ȩ":{"ha":772,"x_min":104,"x_max":736,"o":"m 104 989 l 736 989 l 736 847 l 254 847 l 254 566 l 665 566 l 665 432 l 254 432 l 254 142 l 736 142 l 736 0 l 475 0 l 414 -83 l 416 -83 q 454 -78 429 -78 q 545 -109 514 -78 q 576 -183 576 -140 q 526 -281 575 -249 q 406 -314 476 -314 q 265 -281 339 -313 l 290 -222 q 387 -243 339 -241 q 468 -184 465 -243 q 449 -146 468 -158 q 400 -134 429 -134 q 347 -149 375 -132 l 317 -122 l 404 0 l 104 0 l 104 989 z "},"ȩ":{"ha":694,"x_min":57,"x_max":637,"o":"m 199 298 q 248 170 199 214 q 367 125 294 125 q 521 193 453 125 l 624 106 q 396 -7 526 1 l 340 -83 l 343 -83 q 380 -78 355 -78 q 471 -109 440 -78 q 503 -183 503 -140 q 453 -281 501 -249 q 332 -314 403 -314 q 192 -281 265 -313 l 216 -222 q 314 -243 265 -241 q 395 -184 392 -243 q 375 -146 395 -158 q 326 -134 355 -134 q 273 -149 301 -132 l 243 -122 l 326 -5 q 293 0 310 -3 q 261 8 277 3 q 210 32 237 16 q 160 64 184 43 q 87 174 114 106 q 57 350 57 240 q 83 524 57 457 q 151 635 111 597 q 245 694 192 675 q 347 713 296 713 q 551 633 468 710 q 637 415 635 555 l 637 298 l 199 298 m 496 415 q 452 539 493 496 q 347 579 411 579 q 243 539 283 579 q 199 415 203 496 l 496 415 z "},"Ȫ":{"ha":847,"x_min":71,"x_max":777,"o":"m 71 494 q 81 725 71 667 q 114 819 92 783 q 229 941 150 888 q 424 997 307 996 q 621 941 542 996 q 733 819 699 888 q 768 725 758 783 q 777 494 777 667 q 768 265 777 325 q 733 170 758 205 q 621 49 699 101 q 424 -8 542 -5 q 229 49 307 -5 q 114 170 150 101 q 94 212 103 192 q 81 265 86 233 q 71 494 71 325 m 221 494 q 232 297 221 349 q 271 214 241 245 q 333 164 294 183 q 424 142 371 142 q 517 164 477 142 q 576 214 554 183 q 616 297 606 245 q 627 494 627 349 q 616 693 627 640 q 576 775 606 743 q 517 826 554 806 q 424 847 477 846 q 333 826 371 846 q 271 775 294 806 q 232 693 241 743 q 221 494 221 640 m 473 1206 l 624 1206 l 624 1057 l 473 1057 l 473 1206 m 229 1206 l 379 1206 l 379 1057 l 229 1057 l 229 1206 m 227 1400 l 627 1400 l 627 1308 l 227 1308 l 227 1400 z "},"ȫ":{"ha":694,"x_min":57,"x_max":637,"o":"m 57 353 q 75 524 57 464 q 134 622 94 582 q 215 685 163 657 q 347 713 267 711 q 482 685 431 711 q 561 622 533 657 q 621 524 603 582 q 637 353 637 464 q 621 183 637 241 q 561 82 603 125 q 528 52 547 66 q 482 22 510 35 q 347 -8 431 -7 q 215 22 267 -7 q 134 82 163 49 q 75 183 94 125 q 57 353 57 241 m 496 351 q 489 461 496 427 q 461 519 482 494 q 415 557 446 543 q 347 571 386 571 q 281 557 311 571 q 233 519 252 543 q 207 461 215 494 q 199 353 199 427 q 207 245 199 279 q 233 184 215 211 q 281 149 252 164 q 347 134 311 134 q 415 149 386 134 q 461 184 446 164 q 489 245 482 211 q 496 351 496 279 m 394 964 l 545 964 l 545 814 l 394 814 l 394 964 m 150 964 l 300 964 l 300 814 l 150 814 l 150 964 m 147 1157 l 547 1157 l 547 1065 l 147 1065 l 147 1157 z "},"Ȭ":{"ha":847,"x_min":71,"x_max":777,"o":"m 71 494 q 81 725 71 667 q 114 819 92 783 q 229 941 150 888 q 424 997 307 996 q 621 941 542 996 q 733 819 699 888 q 768 725 758 783 q 777 494 777 667 q 768 265 777 325 q 733 170 758 205 q 621 49 699 101 q 424 -8 542 -5 q 229 49 307 -5 q 114 170 150 101 q 94 212 103 192 q 81 265 86 233 q 71 494 71 325 m 221 494 q 232 297 221 349 q 271 214 241 245 q 333 164 294 183 q 424 142 371 142 q 517 164 477 142 q 576 214 554 183 q 616 297 606 245 q 627 494 627 349 q 616 693 627 640 q 576 775 606 743 q 517 826 554 806 q 424 847 477 846 q 333 826 371 846 q 271 775 294 806 q 232 693 241 743 q 221 494 221 640 m 179 1051 q 232 1169 191 1124 q 336 1212 272 1212 q 387 1205 363 1212 q 436 1187 412 1198 q 484 1169 461 1176 q 525 1160 504 1160 q 566 1172 546 1158 q 590 1221 583 1184 l 673 1221 q 628 1109 664 1155 q 521 1059 591 1061 q 469 1069 496 1059 q 416 1086 441 1076 q 321 1111 364 1109 q 285 1100 306 1111 q 262 1051 262 1086 l 179 1051 m 227 1400 l 627 1400 l 627 1308 l 227 1308 l 227 1400 z "},"ȭ":{"ha":694,"x_min":57,"x_max":637,"o":"m 57 353 q 75 524 57 464 q 134 622 94 582 q 215 685 163 657 q 347 713 267 711 q 482 685 431 711 q 561 622 533 657 q 621 524 603 582 q 637 353 637 464 q 621 183 637 241 q 561 82 603 125 q 528 52 547 66 q 482 22 510 35 q 347 -8 431 -7 q 215 22 267 -7 q 134 82 163 49 q 75 183 94 125 q 57 353 57 241 m 496 351 q 489 461 496 427 q 461 519 482 494 q 415 557 446 543 q 347 571 386 571 q 281 557 311 571 q 233 519 252 543 q 207 461 215 494 q 199 353 199 427 q 207 245 199 279 q 233 184 215 211 q 281 149 252 164 q 347 134 311 134 q 415 149 386 134 q 461 184 446 164 q 489 245 482 211 q 496 351 496 279 m 100 808 q 153 926 111 882 q 257 969 193 969 q 308 962 283 969 q 357 945 333 956 q 404 926 382 933 q 446 917 425 917 q 486 929 467 916 q 511 978 504 941 l 594 978 q 549 867 585 912 q 441 817 512 818 q 390 826 416 817 q 337 843 362 833 q 241 868 285 867 q 205 857 227 868 q 183 808 183 843 l 100 808 m 147 1157 l 547 1157 l 547 1065 l 147 1065 l 147 1157 z "},"Ȯ":{"ha":847,"x_min":71,"x_max":777,"o":"m 71 494 q 81 725 71 667 q 114 819 92 783 q 229 941 150 888 q 424 997 307 996 q 621 941 542 996 q 733 819 699 888 q 768 725 758 783 q 777 494 777 667 q 768 265 777 325 q 733 170 758 205 q 621 49 699 101 q 424 -8 542 -5 q 229 49 307 -5 q 114 170 150 101 q 94 212 103 192 q 81 265 86 233 q 71 494 71 325 m 221 494 q 232 297 221 349 q 271 214 241 245 q 333 164 294 183 q 424 142 371 142 q 517 164 477 142 q 576 214 554 183 q 616 297 606 245 q 627 494 627 349 q 616 693 627 640 q 576 775 606 743 q 517 826 554 806 q 424 847 477 846 q 333 826 371 846 q 271 775 294 806 q 232 693 241 743 q 221 494 221 640 m 351 1206 l 501 1206 l 501 1057 l 351 1057 l 351 1206 z "},"ȯ":{"ha":694,"x_min":57,"x_max":637,"o":"m 57 353 q 75 524 57 464 q 134 622 94 582 q 215 685 163 657 q 347 713 267 711 q 482 685 431 711 q 561 622 533 657 q 621 524 603 582 q 637 353 637 464 q 621 183 637 241 q 561 82 603 125 q 528 52 547 66 q 482 22 510 35 q 347 -8 431 -7 q 215 22 267 -7 q 134 82 163 49 q 75 183 94 125 q 57 353 57 241 m 496 351 q 489 461 496 427 q 461 519 482 494 q 415 557 446 543 q 347 571 386 571 q 281 557 311 571 q 233 519 252 543 q 207 461 215 494 q 199 353 199 427 q 207 245 199 279 q 233 184 215 211 q 281 149 252 164 q 347 134 311 134 q 415 149 386 134 q 461 184 446 164 q 489 245 482 211 q 496 351 496 279 m 272 964 l 422 964 l 422 814 l 272 814 l 272 964 z "},"Ȱ":{"ha":847,"x_min":71,"x_max":777,"o":"m 71 494 q 81 725 71 667 q 114 819 92 783 q 229 941 150 888 q 424 997 307 996 q 621 941 542 996 q 733 819 699 888 q 768 725 758 783 q 777 494 777 667 q 768 265 777 325 q 733 170 758 205 q 621 49 699 101 q 424 -8 542 -5 q 229 49 307 -5 q 114 170 150 101 q 94 212 103 192 q 81 265 86 233 q 71 494 71 325 m 221 494 q 232 297 221 349 q 271 214 241 245 q 333 164 294 183 q 424 142 371 142 q 517 164 477 142 q 576 214 554 183 q 616 297 606 245 q 627 494 627 349 q 616 693 627 640 q 576 775 606 743 q 517 826 554 806 q 424 847 477 846 q 333 826 371 846 q 271 775 294 806 q 232 693 241 743 q 221 494 221 640 m 351 1206 l 501 1206 l 501 1057 l 351 1057 l 351 1206 m 227 1400 l 627 1400 l 627 1308 l 227 1308 l 227 1400 z "},"ȱ":{"ha":694,"x_min":57,"x_max":637,"o":"m 57 353 q 75 524 57 464 q 134 622 94 582 q 215 685 163 657 q 347 713 267 711 q 482 685 431 711 q 561 622 533 657 q 621 524 603 582 q 637 353 637 464 q 621 183 637 241 q 561 82 603 125 q 528 52 547 66 q 482 22 510 35 q 347 -8 431 -7 q 215 22 267 -7 q 134 82 163 49 q 75 183 94 125 q 57 353 57 241 m 496 351 q 489 461 496 427 q 461 519 482 494 q 415 557 446 543 q 347 571 386 571 q 281 557 311 571 q 233 519 252 543 q 207 461 215 494 q 199 353 199 427 q 207 245 199 279 q 233 184 215 211 q 281 149 252 164 q 347 134 311 134 q 415 149 386 134 q 461 184 446 164 q 489 245 482 211 q 496 351 496 279 m 272 964 l 422 964 l 422 814 l 272 814 l 272 964 m 147 1157 l 547 1157 l 547 1065 l 147 1065 l 147 1157 z "},"Ȳ":{"ha":694,"x_min":-21,"x_max":715,"o":"m 277 407 l -21 989 l 138 989 l 347 550 l 347 550 l 557 989 l 715 989 l 418 407 l 418 0 l 277 0 l 277 407 m 147 1177 l 547 1177 l 547 1086 l 147 1086 l 147 1177 z "},"ȳ":{"ha":616,"x_min":-9,"x_max":627,"o":"m -9 704 l 140 704 l 307 211 l 310 211 l 476 704 l 627 704 l 323 -146 q 243 -256 294 -225 q 125 -285 191 -285 l 78 -285 l 78 -151 l 119 -151 q 171 -136 147 -151 q 204 -90 195 -121 l 243 28 l -9 704 m 109 935 l 509 935 l 509 843 l 109 843 l 109 935 z "},"ʻ":{"ha":333,"x_min":96,"x_max":237,"o":"m 96 886 l 237 989 l 237 989 l 237 745 l 96 745 l 96 886 z "},"ʼ":{"ha":333,"x_min":96,"x_max":237,"o":"m 96 989 l 237 989 l 237 847 l 96 745 l 96 745 l 96 989 z "},"ˮ":{"ha":463,"x_min":53,"x_max":410,"o":"m 53 989 l 195 989 l 195 847 l 53 745 l 53 745 l 53 989 m 268 989 l 410 989 l 410 847 l 268 745 l 268 745 l 268 989 z "},"ӏ":{"ha":358,"x_min":0,"x_max":0,"o":""},"Ḁ":{"ha":847,"x_min":1,"x_max":846,"o":"m 568 354 l 425 786 l 422 786 l 279 354 l 568 354 m 611 221 l 236 221 l 160 0 l 1 0 l 361 989 l 486 989 l 846 0 l 688 0 l 611 221 m 281 -180 q 323 -78 281 -118 q 424 -37 364 -39 q 526 -78 486 -39 q 567 -180 566 -118 q 526 -281 566 -240 q 424 -323 486 -323 q 323 -281 364 -323 q 281 -180 281 -240 m 336 -180 q 363 -242 336 -217 q 424 -268 387 -268 q 486 -242 463 -268 q 511 -180 510 -217 q 486 -118 510 -142 q 424 -93 463 -94 q 363 -118 387 -94 q 336 -180 336 -142 z "},"ḁ":{"ha":694,"x_min":36,"x_max":603,"o":"m 461 62 l 458 62 q 397 9 439 26 q 285 -8 357 -8 q 103 54 167 -7 q 36 207 36 114 q 94 354 36 296 q 265 415 153 414 l 461 415 l 461 489 q 317 579 463 582 q 233 568 264 579 q 183 525 201 555 l 183 525 l 72 610 q 310 713 153 715 q 522 663 443 714 q 603 481 602 610 l 603 0 l 461 0 l 461 62 m 461 298 l 292 298 q 170 214 168 296 q 201 153 170 178 q 302 125 232 125 q 428 146 391 123 q 461 248 461 168 l 461 298 m 207 -180 q 250 -78 207 -118 q 350 -37 290 -39 q 452 -78 412 -39 q 493 -180 492 -118 q 452 -281 492 -240 q 350 -323 412 -323 q 250 -281 290 -323 q 207 -180 207 -240 m 262 -180 q 289 -242 262 -217 q 350 -268 313 -268 q 412 -242 389 -268 q 437 -180 436 -217 q 412 -118 436 -142 q 350 -93 389 -94 q 289 -118 313 -94 q 262 -180 262 -142 z "},"Ḃ":{"ha":847,"x_min":104,"x_max":795,"o":"m 104 989 l 488 989 q 707 916 633 987 q 781 724 781 843 q 751 607 782 663 q 707 557 736 581 q 635 511 677 532 l 635 509 q 757 424 715 488 q 795 281 795 358 q 715 78 794 153 q 521 0 637 0 l 104 0 l 104 989 m 254 439 l 254 142 l 485 142 q 607 187 568 143 q 646 290 646 231 q 607 395 646 351 q 485 439 568 437 l 254 439 m 254 855 l 254 572 l 471 572 q 591 615 553 572 q 631 714 631 654 q 591 815 631 774 q 471 855 553 854 l 254 855 m 355 1206 l 505 1206 l 505 1057 l 355 1057 l 355 1206 z "},"ḃ":{"ha":721,"x_min":92,"x_max":654,"o":"m 92 989 l 233 989 l 233 629 l 233 629 q 318 690 272 667 q 415 713 361 713 q 604 621 545 709 q 644 533 633 587 q 654 353 654 479 q 644 174 654 228 q 604 83 633 117 q 528 18 575 43 q 415 -8 481 -7 q 233 74 304 -5 l 233 74 l 233 0 l 92 0 l 92 989 m 372 571 q 297 551 325 571 q 254 500 268 532 q 237 431 241 468 q 233 353 233 393 q 237 277 233 315 q 254 205 241 237 q 297 154 268 174 q 372 134 325 134 q 452 153 422 134 q 493 203 481 172 q 511 275 507 235 q 513 353 513 313 q 511 435 513 395 q 493 504 507 472 q 452 554 481 536 q 372 571 422 571 m 297 1206 l 447 1206 l 447 1057 l 297 1057 l 297 1206 z "},"Ḅ":{"ha":847,"x_min":104,"x_max":795,"o":"m 104 989 l 488 989 q 707 916 633 987 q 781 724 781 843 q 751 607 782 663 q 707 557 736 581 q 635 511 677 532 l 635 509 q 757 424 715 488 q 795 281 795 358 q 715 78 794 153 q 521 0 637 0 l 104 0 l 104 989 m 254 439 l 254 142 l 485 142 q 607 187 568 143 q 646 290 646 231 q 607 395 646 351 q 485 439 568 437 l 254 439 m 254 855 l 254 572 l 471 572 q 591 615 553 572 q 631 714 631 654 q 591 815 631 774 q 471 855 553 854 l 254 855 m 355 -52 l 505 -52 l 505 -201 l 355 -201 l 355 -52 z "},"ḅ":{"ha":721,"x_min":92,"x_max":654,"o":"m 92 989 l 233 989 l 233 629 l 233 629 q 318 690 272 667 q 415 713 361 713 q 604 621 545 709 q 644 533 633 587 q 654 353 654 479 q 644 174 654 228 q 604 83 633 117 q 528 18 575 43 q 415 -8 481 -7 q 233 74 304 -5 l 233 74 l 233 0 l 92 0 l 92 989 m 372 571 q 297 551 325 571 q 254 500 268 532 q 237 431 241 468 q 233 353 233 393 q 237 277 233 315 q 254 205 241 237 q 297 154 268 174 q 372 134 325 134 q 452 153 422 134 q 493 203 481 172 q 511 275 507 235 q 513 353 513 313 q 511 435 513 395 q 493 504 507 472 q 452 554 481 536 q 372 571 422 571 m 297 -52 l 447 -52 l 447 -201 l 297 -201 l 297 -52 z "},"Ḇ":{"ha":847,"x_min":104,"x_max":795,"o":"m 104 989 l 488 989 q 707 916 633 987 q 781 724 781 843 q 751 607 782 663 q 707 557 736 581 q 635 511 677 532 l 635 509 q 757 424 715 488 q 795 281 795 358 q 715 78 794 153 q 521 0 637 0 l 104 0 l 104 989 m 254 439 l 254 142 l 485 142 q 607 187 568 143 q 646 290 646 231 q 607 395 646 351 q 485 439 568 437 l 254 439 m 254 855 l 254 572 l 471 572 q 591 615 553 572 q 631 714 631 654 q 591 815 631 774 q 471 855 553 854 l 254 855 m 231 -81 l 631 -81 l 631 -172 l 231 -172 l 231 -81 z "},"ḇ":{"ha":721,"x_min":92,"x_max":654,"o":"m 92 989 l 233 989 l 233 629 l 233 629 q 318 690 272 667 q 415 713 361 713 q 604 621 545 709 q 644 533 633 587 q 654 353 654 479 q 644 174 654 228 q 604 83 633 117 q 528 18 575 43 q 415 -8 481 -7 q 233 74 304 -5 l 233 74 l 233 0 l 92 0 l 92 989 m 372 571 q 297 551 325 571 q 254 500 268 532 q 237 431 241 468 q 233 353 233 393 q 237 277 233 315 q 254 205 241 237 q 297 154 268 174 q 372 134 325 134 q 452 153 422 134 q 493 203 481 172 q 511 275 507 235 q 513 353 513 313 q 511 435 513 395 q 493 504 507 472 q 452 554 481 536 q 372 571 422 571 m 172 -81 l 572 -81 l 572 -172 l 172 -172 l 172 -81 z "},"Ḉ":{"ha":772,"x_min":71,"x_max":771,"o":"m 403 -8 q 222 54 294 1 q 114 170 150 107 q 94 212 103 192 q 81 265 86 233 q 71 494 71 325 q 81 725 71 667 q 114 819 92 783 q 229 941 150 888 q 424 997 307 996 q 657 912 567 996 q 771 704 747 828 l 612 704 q 546 806 594 764 q 424 847 496 846 q 333 826 371 846 q 271 775 294 806 q 232 693 241 743 q 221 494 221 640 q 232 297 221 349 q 271 214 241 245 q 333 164 294 183 q 424 142 371 142 q 612 277 550 142 l 771 277 q 475 -5 707 26 l 416 -83 l 419 -83 q 457 -78 435 -78 q 547 -109 515 -78 q 579 -183 579 -139 q 529 -281 578 -250 q 408 -314 479 -314 q 268 -281 340 -313 l 293 -222 q 390 -243 340 -241 q 471 -184 468 -243 q 452 -146 471 -158 q 403 -134 432 -134 q 350 -149 376 -132 l 319 -122 l 403 -8 m 431 1240 l 618 1240 l 420 1037 l 304 1037 l 431 1240 z "},"ḉ":{"ha":616,"x_min":37,"x_max":610,"o":"m 332 -8 q 127 85 214 -1 q 37 351 39 171 q 138 629 40 543 q 357 713 232 714 q 501 679 439 711 q 610 590 564 646 l 505 497 l 505 497 q 362 571 452 568 q 179 351 182 574 q 362 134 182 130 q 505 207 452 135 l 505 207 l 610 114 q 404 -7 532 20 l 346 -83 l 349 -83 q 386 -78 364 -78 q 476 -109 444 -78 q 509 -183 509 -139 q 458 -281 507 -250 q 338 -314 408 -314 q 197 -281 269 -313 l 222 -222 q 319 -243 269 -241 q 400 -184 397 -243 q 380 -146 400 -158 q 332 -134 361 -134 q 279 -149 306 -132 l 249 -122 l 332 -8 m 375 997 l 562 997 l 364 794 l 248 794 l 375 997 z "},"Ḋ":{"ha":875,"x_min":104,"x_max":804,"o":"m 104 989 l 450 989 q 751 822 651 987 q 797 705 787 766 q 804 494 804 644 q 793 272 804 335 q 777 215 787 240 q 749 164 765 191 q 628 49 705 94 q 440 0 551 0 l 104 0 l 104 989 m 254 142 l 433 142 q 616 228 559 142 q 648 309 642 260 q 654 489 654 357 q 648 673 654 618 q 610 764 640 729 q 433 847 547 850 l 254 847 l 254 142 m 345 1206 l 494 1206 l 494 1057 l 345 1057 l 345 1206 z "},"ḋ":{"ha":721,"x_min":92,"x_max":654,"o":"m 513 74 q 330 -8 443 -5 q 221 18 267 -7 q 142 83 174 43 q 103 174 113 117 q 92 353 92 228 q 103 533 92 479 q 142 621 113 587 q 330 713 201 709 q 431 690 385 713 q 513 629 473 667 l 513 629 l 513 989 l 654 989 l 654 0 l 513 0 l 513 74 m 374 571 q 297 554 323 571 q 254 504 268 536 q 237 435 241 472 q 233 353 233 395 q 237 275 233 313 q 254 203 241 235 q 297 153 268 172 q 374 134 323 134 q 453 154 424 134 q 493 205 482 174 q 511 277 507 237 q 513 353 513 315 q 511 431 513 393 q 493 500 507 468 q 453 551 482 532 q 374 571 424 571 m 298 1206 l 448 1206 l 448 1057 l 298 1057 l 298 1206 z "},"Ḍ":{"ha":875,"x_min":104,"x_max":804,"o":"m 104 989 l 450 989 q 751 822 651 987 q 797 705 787 766 q 804 494 804 644 q 793 272 804 335 q 777 215 787 240 q 749 164 765 191 q 628 49 705 94 q 440 0 551 0 l 104 0 l 104 989 m 254 142 l 433 142 q 616 228 559 142 q 648 309 642 260 q 654 489 654 357 q 648 673 654 618 q 610 764 640 729 q 433 847 547 850 l 254 847 l 254 142 m 345 -52 l 494 -52 l 494 -201 l 345 -201 l 345 -52 z "},"ḍ":{"ha":721,"x_min":92,"x_max":654,"o":"m 513 74 q 330 -8 443 -5 q 221 18 267 -7 q 142 83 174 43 q 103 174 113 117 q 92 353 92 228 q 103 533 92 479 q 142 621 113 587 q 330 713 201 709 q 431 690 385 713 q 513 629 473 667 l 513 629 l 513 989 l 654 989 l 654 0 l 513 0 l 513 74 m 374 571 q 297 554 323 571 q 254 504 268 536 q 237 435 241 472 q 233 353 233 395 q 237 275 233 313 q 254 203 241 235 q 297 153 268 172 q 374 134 323 134 q 453 154 424 134 q 493 205 482 174 q 511 277 507 237 q 513 353 513 315 q 511 431 513 393 q 493 500 507 468 q 453 551 482 532 q 374 571 424 571 m 298 -52 l 448 -52 l 448 -201 l 298 -201 l 298 -52 z "},"Ḏ":{"ha":875,"x_min":104,"x_max":804,"o":"m 104 989 l 450 989 q 751 822 651 987 q 797 705 787 766 q 804 494 804 644 q 793 272 804 335 q 777 215 787 240 q 749 164 765 191 q 628 49 705 94 q 440 0 551 0 l 104 0 l 104 989 m 254 142 l 433 142 q 616 228 559 142 q 648 309 642 260 q 654 489 654 357 q 648 673 654 618 q 610 764 640 729 q 433 847 547 850 l 254 847 l 254 142 m 220 -81 l 620 -81 l 620 -172 l 220 -172 l 220 -81 z "},"ḏ":{"ha":721,"x_min":92,"x_max":654,"o":"m 513 74 q 330 -8 443 -5 q 221 18 267 -7 q 142 83 174 43 q 103 174 113 117 q 92 353 92 228 q 103 533 92 479 q 142 621 113 587 q 330 713 201 709 q 431 690 385 713 q 513 629 473 667 l 513 629 l 513 989 l 654 989 l 654 0 l 513 0 l 513 74 m 374 571 q 297 554 323 571 q 254 504 268 536 q 237 435 241 472 q 233 353 233 395 q 237 275 233 313 q 254 203 241 235 q 297 153 268 172 q 374 134 323 134 q 453 154 424 134 q 493 205 482 174 q 511 277 507 237 q 513 353 513 315 q 511 431 513 393 q 493 500 507 468 q 453 551 482 532 q 374 571 424 571 m 172 -81 l 572 -81 l 572 -172 l 172 -172 l 172 -81 z "},"Ḑ":{"ha":875,"x_min":104,"x_max":804,"o":"m 104 989 l 450 989 q 751 822 651 987 q 797 705 787 766 q 804 494 804 644 q 793 272 804 335 q 777 215 787 240 q 749 164 765 191 q 628 49 705 94 q 440 0 551 0 l 104 0 l 104 989 m 254 142 l 433 142 q 616 228 559 142 q 648 309 642 260 q 654 489 654 357 q 648 673 654 618 q 610 764 640 729 q 433 847 547 850 l 254 847 l 254 142 m 349 -52 l 491 -52 l 491 -221 l 349 -323 l 349 -52 z "},"ḑ":{"ha":721,"x_min":92,"x_max":654,"o":"m 513 74 q 330 -8 443 -5 q 221 18 267 -7 q 142 83 174 43 q 103 174 113 117 q 92 353 92 228 q 103 533 92 479 q 142 621 113 587 q 330 713 201 709 q 431 690 385 713 q 513 629 473 667 l 513 629 l 513 989 l 654 989 l 654 0 l 513 0 l 513 74 m 374 571 q 297 554 323 571 q 254 504 268 536 q 237 435 241 472 q 233 353 233 395 q 237 275 233 313 q 254 203 241 235 q 297 153 268 172 q 374 134 323 134 q 453 154 424 134 q 493 205 482 174 q 511 277 507 237 q 513 353 513 315 q 511 431 513 393 q 493 500 507 468 q 453 551 482 532 q 374 571 424 571 m 304 -52 l 446 -52 l 446 -221 l 304 -323 l 304 -52 z "},"Ḓ":{"ha":875,"x_min":104,"x_max":804,"o":"m 104 989 l 450 989 q 751 822 651 987 q 797 705 787 766 q 804 494 804 644 q 793 272 804 335 q 777 215 787 240 q 749 164 765 191 q 628 49 705 94 q 440 0 551 0 l 104 0 l 104 989 m 254 142 l 433 142 q 616 228 559 142 q 648 309 642 260 q 654 489 654 357 q 648 673 654 618 q 610 764 640 729 q 433 847 547 850 l 254 847 l 254 142 m 327 -254 l 193 -254 l 340 -52 l 498 -52 l 646 -254 l 513 -254 l 420 -135 l 327 -254 z "},"ḓ":{"ha":721,"x_min":92,"x_max":654,"o":"m 513 74 q 330 -8 443 -5 q 221 18 267 -7 q 142 83 174 43 q 103 174 113 117 q 92 353 92 228 q 103 533 92 479 q 142 621 113 587 q 330 713 201 709 q 431 690 385 713 q 513 629 473 667 l 513 629 l 513 989 l 654 989 l 654 0 l 513 0 l 513 74 m 374 571 q 297 554 323 571 q 254 504 268 536 q 237 435 241 472 q 233 353 233 395 q 237 275 233 313 q 254 203 241 235 q 297 153 268 172 q 374 134 323 134 q 453 154 424 134 q 493 205 482 174 q 511 277 507 237 q 513 353 513 315 q 511 431 513 393 q 493 500 507 468 q 453 551 482 532 q 374 571 424 571 m 279 -254 l 146 -254 l 293 -52 l 451 -52 l 599 -254 l 465 -254 l 372 -135 l 279 -254 z "},"Ḕ":{"ha":772,"x_min":104,"x_max":736,"o":"m 104 989 l 736 989 l 736 847 l 254 847 l 254 565 l 665 565 l 665 432 l 254 432 l 254 142 l 736 142 l 736 0 l 104 0 l 104 989 m 231 1177 l 631 1177 l 631 1086 l 231 1086 l 231 1177 m 224 1462 l 410 1462 l 537 1259 l 420 1259 l 224 1462 z "},"ḕ":{"ha":694,"x_min":57,"x_max":637,"o":"m 199 298 q 248 170 199 214 q 367 125 293 125 q 521 193 453 125 l 521 193 l 623 106 q 370 -8 515 -9 q 261 8 314 -8 q 210 32 235 17 q 160 64 183 45 q 87 174 115 103 q 57 350 57 241 q 83 524 57 454 q 151 635 110 594 q 245 694 193 676 q 347 713 297 713 q 551 633 468 711 q 637 415 636 554 l 637 298 l 199 298 m 496 415 q 452 539 493 497 q 347 579 411 579 q 243 539 283 579 q 199 415 203 497 l 496 415 m 147 935 l 547 935 l 547 843 l 147 843 l 147 935 m 143 1219 l 329 1219 l 456 1017 l 340 1017 l 143 1219 z "},"Ḗ":{"ha":772,"x_min":104,"x_max":736,"o":"m 104 989 l 736 989 l 736 847 l 254 847 l 254 565 l 665 565 l 665 432 l 254 432 l 254 142 l 736 142 l 736 0 l 104 0 l 104 989 m 231 1177 l 631 1177 l 631 1086 l 231 1086 l 231 1177 m 454 1459 l 640 1459 l 443 1257 l 326 1257 l 454 1459 z "},"ḗ":{"ha":694,"x_min":57,"x_max":637,"o":"m 199 298 q 248 170 199 214 q 367 125 293 125 q 521 193 453 125 l 521 193 l 623 106 q 370 -8 515 -9 q 261 8 314 -8 q 210 32 235 17 q 160 64 183 45 q 87 174 115 103 q 57 350 57 241 q 83 524 57 454 q 151 635 110 594 q 245 694 193 676 q 347 713 297 713 q 551 633 468 711 q 637 415 636 554 l 637 298 l 199 298 m 496 415 q 452 539 493 497 q 347 579 411 579 q 243 539 283 579 q 199 415 203 497 l 496 415 m 147 935 l 547 935 l 547 843 l 147 843 l 147 935 m 373 1219 l 559 1219 l 362 1017 l 245 1017 l 373 1219 z "},"Ḙ":{"ha":772,"x_min":104,"x_max":736,"o":"m 104 989 l 736 989 l 736 847 l 254 847 l 254 565 l 665 565 l 665 432 l 254 432 l 254 142 l 736 142 l 736 0 l 104 0 l 104 989 m 338 -254 l 204 -254 l 351 -52 l 509 -52 l 657 -254 l 524 -254 l 431 -135 l 338 -254 z "},"ḙ":{"ha":694,"x_min":57,"x_max":637,"o":"m 199 298 q 248 170 199 214 q 367 125 293 125 q 521 193 453 125 l 521 193 l 623 106 q 370 -8 515 -9 q 261 8 314 -8 q 210 32 235 17 q 160 64 183 45 q 87 174 115 103 q 57 350 57 241 q 83 524 57 454 q 151 635 110 594 q 245 694 193 676 q 347 713 297 713 q 551 633 468 711 q 637 415 636 554 l 637 298 l 199 298 m 496 415 q 452 539 493 497 q 347 579 411 579 q 243 539 283 579 q 199 415 203 497 l 496 415 m 256 -254 l 122 -254 l 269 -52 l 427 -52 l 575 -254 l 441 -254 l 349 -135 l 256 -254 z "},"Ḛ":{"ha":772,"x_min":104,"x_max":736,"o":"m 104 989 l 736 989 l 736 847 l 254 847 l 254 565 l 665 565 l 665 432 l 254 432 l 254 142 l 736 142 l 736 0 l 104 0 l 104 989 m 183 -221 q 236 -103 195 -148 q 340 -60 276 -60 q 391 -67 367 -60 q 440 -85 416 -74 q 488 -103 465 -96 q 529 -113 508 -113 q 570 -100 550 -114 q 594 -52 587 -88 l 677 -52 q 632 -163 668 -117 q 525 -213 595 -212 q 473 -203 500 -213 q 420 -186 446 -196 q 325 -161 368 -163 q 289 -172 310 -161 q 267 -221 267 -186 l 183 -221 z "},"ḛ":{"ha":694,"x_min":57,"x_max":637,"o":"m 199 298 q 248 170 199 214 q 367 125 293 125 q 521 193 453 125 l 521 193 l 623 106 q 370 -8 515 -9 q 261 8 314 -8 q 210 32 235 17 q 160 64 183 45 q 87 174 115 103 q 57 350 57 241 q 83 524 57 454 q 151 635 110 594 q 245 694 193 676 q 347 713 297 713 q 551 633 468 711 q 637 415 636 554 l 637 298 l 199 298 m 496 415 q 452 539 493 497 q 347 579 411 579 q 243 539 283 579 q 199 415 203 497 l 496 415 m 101 -221 q 154 -103 113 -148 q 258 -60 194 -60 q 309 -67 285 -60 q 358 -85 334 -74 q 406 -103 383 -96 q 447 -113 426 -113 q 488 -100 468 -114 q 512 -52 505 -88 l 595 -52 q 550 -163 586 -117 q 443 -213 513 -212 q 391 -203 418 -213 q 338 -186 363 -196 q 243 -161 286 -163 q 207 -172 228 -161 q 184 -221 184 -186 l 101 -221 z "},"Ḝ":{"ha":772,"x_min":104,"x_max":736,"o":"m 104 989 l 736 989 l 736 847 l 254 847 l 254 566 l 665 566 l 665 432 l 254 432 l 254 142 l 736 142 l 736 0 l 475 0 l 414 -83 l 416 -83 q 454 -78 429 -78 q 545 -109 514 -78 q 576 -183 576 -140 q 526 -281 575 -249 q 406 -314 476 -314 q 265 -281 339 -313 l 290 -222 q 387 -243 339 -241 q 468 -184 465 -243 q 449 -146 468 -158 q 400 -134 429 -134 q 347 -149 375 -132 l 317 -122 l 404 0 l 104 0 l 104 989 m 290 1240 q 339 1161 304 1184 q 431 1137 375 1137 q 519 1160 482 1136 q 571 1240 558 1181 l 654 1240 q 590 1101 647 1152 q 431 1046 533 1046 q 274 1101 330 1046 q 207 1240 216 1152 l 290 1240 z "},"ḝ":{"ha":694,"x_min":57,"x_max":637,"o":"m 199 298 q 248 170 199 214 q 367 125 294 125 q 521 193 453 125 l 624 106 q 396 -7 526 1 l 340 -83 l 343 -83 q 380 -78 355 -78 q 471 -109 440 -78 q 503 -183 503 -140 q 453 -281 501 -249 q 332 -314 403 -314 q 192 -281 265 -313 l 216 -222 q 314 -243 265 -241 q 395 -184 392 -243 q 375 -146 395 -158 q 326 -134 355 -134 q 273 -149 301 -132 l 243 -122 l 326 -5 q 293 0 310 -3 q 261 8 277 3 q 210 32 237 16 q 160 64 184 43 q 87 174 114 106 q 57 350 57 240 q 83 524 57 457 q 151 635 111 597 q 245 694 192 675 q 347 713 296 713 q 551 633 468 710 q 637 415 635 555 l 637 298 l 199 298 m 496 415 q 452 539 493 496 q 347 579 411 579 q 243 539 283 579 q 199 415 203 496 l 496 415 m 207 997 q 256 918 221 941 q 347 895 292 895 q 436 917 399 893 q 488 997 475 939 l 571 997 q 507 859 564 909 q 347 803 450 803 q 191 859 247 803 q 123 997 132 909 l 207 997 z "},"Ḟ":{"ha":746,"x_min":104,"x_max":736,"o":"m 104 989 l 736 989 l 736 847 l 254 847 l 254 555 l 665 555 l 665 422 l 254 422 l 254 0 l 104 0 l 104 989 m 354 1206 l 504 1206 l 504 1057 l 354 1057 l 354 1206 z "},"ḟ":{"ha":386,"x_min":43,"x_max":397,"o":"m 114 596 l 43 596 l 43 704 l 114 704 l 114 797 q 170 945 114 897 q 306 989 224 989 l 397 989 l 397 855 l 317 855 q 256 797 253 857 l 256 704 l 397 704 l 397 596 l 256 596 l 256 0 l 114 0 l 114 596 m 208 1206 l 358 1206 l 358 1057 l 208 1057 l 208 1206 z "},"Ḡ":{"ha":847,"x_min":71,"x_max":777,"o":"m 425 545 l 777 545 l 777 343 q 675 94 774 195 q 424 -8 575 -5 q 229 49 307 -5 q 114 170 150 101 q 94 212 103 192 q 81 265 86 233 q 71 494 71 325 q 81 725 71 667 q 114 819 92 783 q 229 941 150 888 q 424 997 307 996 q 657 912 567 996 q 771 704 747 828 l 612 704 q 546 806 594 764 q 424 847 496 846 q 333 826 371 846 q 271 775 294 806 q 232 693 241 743 q 221 494 221 640 q 232 297 221 349 q 271 214 241 245 q 333 164 294 183 q 424 142 371 142 q 568 201 511 142 q 627 351 625 258 l 627 403 l 425 403 l 425 545 m 224 1177 l 624 1177 l 624 1086 l 224 1086 l 224 1177 z "},"ḡ":{"ha":721,"x_min":66,"x_max":629,"o":"m 488 74 q 306 -8 418 -5 q 192 21 237 -7 q 119 78 144 47 q 79 163 92 113 q 66 351 66 212 q 79 543 66 493 q 119 627 92 593 q 192 686 144 660 q 306 713 237 711 q 488 629 411 713 l 488 629 l 488 704 l 629 704 l 629 17 q 538 -216 627 -142 q 323 -293 448 -293 q 79 -175 180 -290 l 189 -87 l 189 -87 q 252 -130 216 -113 q 326 -151 288 -150 q 443 -111 399 -151 q 488 1 486 -71 l 488 74 m 208 351 q 214 240 208 271 q 236 187 218 208 q 279 153 250 168 q 349 134 307 134 q 418 153 390 134 q 460 187 446 168 q 484 240 477 208 q 488 351 488 271 q 484 465 488 433 q 460 517 477 497 q 418 554 446 536 q 349 571 390 570 q 279 554 307 570 q 236 517 250 536 q 214 465 218 497 q 208 351 208 433 m 147 935 l 547 935 l 547 843 l 147 843 l 147 935 z "},"Ḣ":{"ha":900,"x_min":104,"x_max":795,"o":"m 646 432 l 254 432 l 254 0 l 104 0 l 104 989 l 254 989 l 254 565 l 646 565 l 646 989 l 795 989 l 795 0 l 646 0 l 646 432 m 375 1206 l 525 1206 l 525 1057 l 375 1057 l 375 1206 z "},"ḣ":{"ha":746,"x_min":92,"x_max":654,"o":"m 92 989 l 233 989 l 233 629 l 236 629 q 419 713 306 713 q 579 651 507 713 q 654 468 651 589 l 654 0 l 513 0 l 513 419 q 473 532 513 493 q 374 571 435 571 q 273 532 313 571 q 233 419 233 493 l 233 0 l 92 0 l 92 989 m 296 1206 l 446 1206 l 446 1057 l 296 1057 l 296 1206 z "},"Ḥ":{"ha":900,"x_min":104,"x_max":795,"o":"m 646 432 l 254 432 l 254 0 l 104 0 l 104 989 l 254 989 l 254 565 l 646 565 l 646 989 l 795 989 l 795 0 l 646 0 l 646 432 m 374 -52 l 524 -52 l 524 -201 l 374 -201 l 374 -52 z "},"ḥ":{"ha":746,"x_min":92,"x_max":654,"o":"m 92 989 l 233 989 l 233 629 l 236 629 q 419 713 306 713 q 579 651 507 713 q 654 468 651 589 l 654 0 l 513 0 l 513 419 q 473 532 513 493 q 374 571 435 571 q 273 532 313 571 q 233 419 233 493 l 233 0 l 92 0 l 92 989 m 297 -52 l 447 -52 l 447 -201 l 297 -201 l 297 -52 z "},"Ḧ":{"ha":900,"x_min":104,"x_max":795,"o":"m 646 432 l 254 432 l 254 0 l 104 0 l 104 989 l 254 989 l 254 565 l 646 565 l 646 989 l 795 989 l 795 0 l 646 0 l 646 432 m 497 1206 l 648 1206 l 648 1057 l 497 1057 l 497 1206 m 253 1206 l 403 1206 l 403 1057 l 253 1057 l 253 1206 z "},"ḧ":{"ha":746,"x_min":92,"x_max":654,"o":"m 92 989 l 233 989 l 233 629 l 236 629 q 419 713 306 713 q 579 651 507 713 q 654 468 651 589 l 654 0 l 513 0 l 513 419 q 473 532 513 493 q 374 571 435 571 q 273 532 313 571 q 233 419 233 493 l 233 0 l 92 0 l 92 989 m 419 1206 l 570 1206 l 570 1057 l 419 1057 l 419 1206 m 175 1206 l 325 1206 l 325 1057 l 175 1057 l 175 1206 z "},"Ḩ":{"ha":900,"x_min":7,"x_max":796,"o":"m 104 0 l 104 989 l 254 989 l 254 566 l 646 566 l 646 989 l 796 989 l 796 0 l 646 0 l 646 432 l 254 432 l 254 0 l 216 0 l 155 -83 l 158 -83 q 196 -78 171 -78 q 286 -109 256 -78 q 318 -183 318 -140 q 268 -281 317 -249 q 147 -314 218 -314 q 7 -281 81 -313 l 32 -222 q 129 -243 81 -241 q 210 -184 207 -243 q 191 -146 210 -158 q 142 -134 171 -134 q 89 -149 117 -132 l 58 -122 l 146 0 l 104 0 z "},"ḩ":{"ha":746,"x_min":7,"x_max":654,"o":"m 92 989 l 233 989 l 233 629 l 236 629 q 419 713 304 713 q 579 652 505 713 q 654 468 652 589 l 654 0 l 513 0 l 513 419 q 473 532 513 493 q 374 571 435 571 q 273 532 313 571 q 233 419 233 492 l 233 0 l 216 0 l 155 -83 l 158 -83 q 196 -78 171 -78 q 286 -109 256 -78 q 318 -183 318 -140 q 268 -281 317 -249 q 147 -314 218 -314 q 7 -281 81 -313 l 32 -222 q 129 -243 81 -241 q 210 -184 207 -243 q 191 -146 210 -158 q 142 -134 171 -134 q 89 -149 117 -132 l 58 -122 l 146 0 l 92 0 l 92 989 z "},"Ḫ":{"ha":900,"x_min":104,"x_max":795,"o":"m 646 432 l 254 432 l 254 0 l 104 0 l 104 989 l 254 989 l 254 565 l 646 565 l 646 989 l 795 989 l 795 0 l 646 0 l 646 432 m 309 -52 q 357 -130 323 -107 q 449 -154 393 -154 q 538 -132 500 -155 q 589 -52 576 -110 l 673 -52 q 608 -190 665 -139 q 449 -245 551 -245 q 292 -190 349 -245 q 225 -52 234 -139 l 309 -52 z "},"ḫ":{"ha":746,"x_min":92,"x_max":654,"o":"m 92 989 l 233 989 l 233 629 l 236 629 q 419 713 306 713 q 579 651 507 713 q 654 468 651 589 l 654 0 l 513 0 l 513 419 q 473 532 513 493 q 374 571 435 571 q 273 532 313 571 q 233 419 233 493 l 233 0 l 92 0 l 92 989 m 232 -52 q 281 -130 246 -107 q 372 -154 317 -154 q 461 -132 424 -155 q 513 -52 500 -110 l 596 -52 q 532 -190 589 -139 q 372 -245 475 -245 q 216 -190 272 -245 q 149 -52 157 -139 l 232 -52 z "},"Ḭ":{"ha":358,"x_min":-68,"x_max":426,"o":"m 104 989 l 254 989 l 254 0 l 104 0 l 104 989 m -68 -221 q -16 -103 -57 -148 q 89 -60 24 -60 q 140 -67 115 -60 q 189 -85 165 -74 q 236 -103 214 -96 q 277 -113 256 -113 q 318 -100 298 -114 q 342 -52 336 -88 l 426 -52 q 380 -163 416 -117 q 273 -213 344 -212 q 222 -203 248 -213 q 169 -186 194 -196 q 73 -161 117 -163 q 37 -172 58 -161 q 15 -221 15 -186 l -68 -221 z "},"ḭ":{"ha":334,"x_min":-81,"x_max":414,"o":"m 96 704 l 237 704 l 237 0 l 96 0 l 96 704 m 96 989 l 237 989 l 237 847 l 96 847 l 96 989 m -81 -221 q -28 -103 -69 -148 q 77 -60 12 -60 q 127 -67 103 -60 q 176 -85 153 -74 q 224 -103 201 -96 q 265 -113 244 -113 q 306 -100 286 -114 q 330 -52 323 -88 l 414 -52 q 368 -163 404 -117 q 261 -213 332 -212 q 210 -203 236 -213 q 157 -186 182 -196 q 61 -161 104 -163 q 25 -172 46 -161 q 3 -221 3 -186 l -81 -221 z "},"Ḯ":{"ha":358,"x_min":-18,"x_max":386,"o":"m 104 989 l 254 989 l 254 0 l 104 0 l 104 989 m 226 1206 l 376 1206 l 376 1057 l 226 1057 l 226 1206 m -18 1206 l 132 1206 l 132 1057 l -18 1057 l -18 1206 m 199 1462 l 386 1462 l 189 1259 l 72 1259 l 199 1462 z "},"ḯ":{"ha":334,"x_min":-31,"x_max":374,"o":"m 96 704 l 237 704 l 237 0 l 96 0 l 96 704 m 214 964 l 364 964 l 364 814 l 214 814 l 214 964 m -31 964 l 119 964 l 119 814 l -31 814 l -31 964 m 187 1259 l 374 1259 l 176 1057 l 60 1057 l 187 1259 z "},"Ḱ":{"ha":875,"x_min":104,"x_max":875,"o":"m 104 989 l 254 989 l 254 479 l 257 479 l 664 989 l 842 989 l 525 599 l 875 0 l 697 0 l 428 484 l 428 484 l 254 301 l 254 0 l 104 0 l 104 989 m 488 1240 l 675 1240 l 477 1037 l 361 1037 l 488 1240 z "},"ḱ":{"ha":721,"x_min":92,"x_max":709,"o":"m 92 989 l 233 989 l 233 374 l 236 374 l 507 704 l 676 704 l 433 429 l 709 0 l 532 0 l 345 329 l 345 329 l 233 203 l 233 0 l 92 0 l 92 989 m 414 1240 l 600 1240 l 403 1037 l 286 1037 l 414 1240 z "},"Ḳ":{"ha":875,"x_min":104,"x_max":875,"o":"m 104 989 l 254 989 l 254 479 l 257 479 l 664 989 l 842 989 l 525 599 l 875 0 l 697 0 l 428 484 l 428 484 l 254 301 l 254 0 l 104 0 l 104 989 m 374 -52 l 524 -52 l 524 -201 l 374 -201 l 374 -52 z "},"ḳ":{"ha":721,"x_min":92,"x_max":709,"o":"m 92 989 l 233 989 l 233 374 l 236 374 l 507 704 l 676 704 l 433 429 l 709 0 l 532 0 l 345 329 l 345 329 l 233 203 l 233 0 l 92 0 l 92 989 m 297 -52 l 447 -52 l 447 -201 l 297 -201 l 297 -52 z "},"Ḵ":{"ha":875,"x_min":104,"x_max":875,"o":"m 104 989 l 254 989 l 254 479 l 257 479 l 664 989 l 842 989 l 525 599 l 875 0 l 697 0 l 428 484 l 428 484 l 254 301 l 254 0 l 104 0 l 104 989 m 249 -81 l 649 -81 l 649 -172 l 249 -172 l 249 -81 z "},"ḵ":{"ha":721,"x_min":92,"x_max":709,"o":"m 92 989 l 233 989 l 233 374 l 236 374 l 507 704 l 676 704 l 433 429 l 709 0 l 532 0 l 345 329 l 345 329 l 233 203 l 233 0 l 92 0 l 92 989 m 200 -81 l 600 -81 l 600 -172 l 200 -172 l 200 -81 z "},"Ḷ":{"ha":772,"x_min":104,"x_max":736,"o":"m 104 989 l 254 989 l 254 142 l 736 142 l 736 0 l 104 0 l 104 989 m 346 -52 l 496 -52 l 496 -201 l 346 -201 l 346 -52 z "},"ḷ":{"ha":358,"x_min":92,"x_max":335,"o":"m 92 989 l 233 989 l 233 182 q 286 134 233 134 l 335 134 l 335 0 l 272 0 q 144 39 195 0 q 92 171 92 78 l 92 989 m 139 -52 l 289 -52 l 289 -201 l 139 -201 l 139 -52 z "},"Ḹ":{"ha":772,"x_min":-20,"x_max":736,"o":"m 104 989 l 254 989 l 254 142 l 736 142 l 736 0 l 104 0 l 104 989 m 347 -52 l 497 -52 l 497 -201 l 347 -201 l 347 -52 m -20 1177 l 380 1177 l 380 1086 l -20 1086 l -20 1177 z "},"ḹ":{"ha":358,"x_min":-32,"x_max":368,"o":"m 92 989 l 233 989 l 233 182 q 286 134 233 134 l 335 134 l 335 0 l 272 0 q 144 39 195 0 q 92 171 92 78 l 92 989 m 139 -52 l 289 -52 l 289 -201 l 139 -201 l 139 -52 m -32 1177 l 368 1177 l 368 1086 l -32 1086 l -32 1177 z "},"Ḻ":{"ha":772,"x_min":104,"x_max":736,"o":"m 104 989 l 254 989 l 254 142 l 736 142 l 736 0 l 104 0 l 104 989 m 222 -81 l 623 -81 l 623 -172 l 222 -172 l 222 -81 z "},"ḻ":{"ha":358,"x_min":13,"x_max":413,"o":"m 92 989 l 233 989 l 233 182 q 286 134 233 134 l 335 134 l 335 0 l 272 0 q 144 39 195 0 q 92 171 92 78 l 92 989 m 13 -82 l 413 -82 l 413 -174 l 13 -174 l 13 -82 z "},"Ḽ":{"ha":772,"x_min":104,"x_max":736,"o":"m 104 989 l 254 989 l 254 142 l 736 142 l 736 0 l 104 0 l 104 989 m 330 -254 l 196 -254 l 343 -52 l 501 -52 l 649 -254 l 515 -254 l 422 -135 l 330 -254 z "},"ḽ":{"ha":358,"x_min":-14,"x_max":439,"o":"m 92 989 l 233 989 l 233 182 q 286 134 233 134 l 335 134 l 335 0 l 272 0 q 144 39 195 0 q 92 171 92 78 l 92 989 m 120 -254 l -14 -254 l 134 -52 l 292 -52 l 439 -254 l 306 -254 l 213 -135 l 120 -254 z "},"Ḿ":{"ha":1053,"x_min":104,"x_max":949,"o":"m 104 989 l 245 989 l 529 345 l 529 345 l 807 989 l 949 989 l 949 0 l 799 0 l 799 616 l 795 616 l 589 142 l 464 142 l 257 616 l 254 616 l 254 0 l 104 0 l 104 989 m 583 1240 l 770 1240 l 572 1037 l 456 1037 l 583 1240 z "},"ḿ":{"ha":1183,"x_min":100,"x_max":1083,"o":"m 100 704 l 241 704 l 241 629 l 244 629 q 428 713 314 713 q 546 688 501 711 q 627 621 590 661 l 627 621 q 848 713 709 714 q 1008 651 936 713 q 1083 468 1080 589 l 1083 0 l 941 0 l 941 419 q 903 532 941 493 q 803 571 864 571 q 703 532 742 571 q 663 419 663 493 l 663 0 l 521 0 l 521 419 q 482 532 521 493 q 382 571 443 571 q 282 532 321 571 q 241 419 241 493 l 241 0 l 100 0 l 100 704 m 647 997 l 833 997 l 636 794 l 519 794 l 647 997 z "},"Ṁ":{"ha":1053,"x_min":104,"x_max":949,"o":"m 104 989 l 245 989 l 529 345 l 529 345 l 807 989 l 949 989 l 949 0 l 799 0 l 799 616 l 795 616 l 589 142 l 464 142 l 257 616 l 254 616 l 254 0 l 104 0 l 104 989 m 454 1206 l 604 1206 l 604 1057 l 454 1057 l 454 1206 z "},"ṁ":{"ha":1183,"x_min":100,"x_max":1083,"o":"m 100 704 l 241 704 l 241 629 l 244 629 q 428 713 314 713 q 546 688 501 711 q 627 621 590 661 l 627 621 q 848 713 709 714 q 1008 651 936 713 q 1083 468 1080 589 l 1083 0 l 941 0 l 941 419 q 903 532 941 493 q 803 571 864 571 q 703 532 742 571 q 663 419 663 493 l 663 0 l 521 0 l 521 419 q 482 532 521 493 q 382 571 443 571 q 282 532 321 571 q 241 419 241 493 l 241 0 l 100 0 l 100 704 m 518 964 l 668 964 l 668 814 l 518 814 l 518 964 z "},"Ṃ":{"ha":1053,"x_min":104,"x_max":949,"o":"m 104 989 l 245 989 l 529 345 l 529 345 l 807 989 l 949 989 l 949 0 l 799 0 l 799 616 l 795 616 l 589 142 l 464 142 l 257 616 l 254 616 l 254 0 l 104 0 l 104 989 m 454 -52 l 604 -52 l 604 -201 l 454 -201 l 454 -52 z "},"ṃ":{"ha":1183,"x_min":100,"x_max":1083,"o":"m 100 704 l 241 704 l 241 629 l 244 629 q 428 713 314 713 q 546 688 501 711 q 627 621 590 661 l 627 621 q 848 713 709 714 q 1008 651 936 713 q 1083 468 1080 589 l 1083 0 l 941 0 l 941 419 q 903 532 941 493 q 803 571 864 571 q 703 532 742 571 q 663 419 663 493 l 663 0 l 521 0 l 521 419 q 482 532 521 493 q 382 571 443 571 q 282 532 321 571 q 241 419 241 493 l 241 0 l 100 0 l 100 704 m 518 -52 l 668 -52 l 668 -201 l 518 -201 l 518 -52 z "},"Ṅ":{"ha":950,"x_min":104,"x_max":846,"o":"m 104 989 l 245 989 l 693 286 l 696 286 l 696 989 l 846 989 l 846 0 l 704 0 l 257 703 l 254 703 l 254 0 l 104 0 l 104 989 m 400 1206 l 550 1206 l 550 1057 l 400 1057 l 400 1206 z "},"ṅ":{"ha":746,"x_min":92,"x_max":654,"o":"m 92 704 l 233 704 l 233 629 l 236 629 q 419 713 306 713 q 579 651 507 713 q 654 468 651 589 l 654 0 l 513 0 l 513 419 q 473 532 513 493 q 374 571 435 571 q 273 532 313 571 q 233 419 233 493 l 233 0 l 92 0 l 92 704 m 297 964 l 447 964 l 447 814 l 297 814 l 297 964 z "},"Ṇ":{"ha":950,"x_min":104,"x_max":846,"o":"m 104 989 l 245 989 l 693 286 l 696 286 l 696 989 l 846 989 l 846 0 l 704 0 l 257 703 l 254 703 l 254 0 l 104 0 l 104 989 m 400 -52 l 550 -52 l 550 -201 l 400 -201 l 400 -52 z "},"ṇ":{"ha":746,"x_min":92,"x_max":654,"o":"m 92 704 l 233 704 l 233 629 l 236 629 q 419 713 306 713 q 579 651 507 713 q 654 468 651 589 l 654 0 l 513 0 l 513 419 q 473 532 513 493 q 374 571 435 571 q 273 532 313 571 q 233 419 233 493 l 233 0 l 92 0 l 92 704 m 297 -52 l 447 -52 l 447 -201 l 297 -201 l 297 -52 z "},"Ṉ":{"ha":950,"x_min":104,"x_max":846,"o":"m 104 989 l 245 989 l 693 286 l 696 286 l 696 989 l 846 989 l 846 0 l 704 0 l 257 703 l 254 703 l 254 0 l 104 0 l 104 989 m 275 -81 l 675 -81 l 675 -172 l 275 -172 l 275 -81 z "},"ṉ":{"ha":746,"x_min":92,"x_max":654,"o":"m 92 704 l 233 704 l 233 629 l 236 629 q 419 713 306 713 q 579 651 507 713 q 654 468 651 589 l 654 0 l 513 0 l 513 419 q 473 532 513 493 q 374 571 435 571 q 273 532 313 571 q 233 419 233 493 l 233 0 l 92 0 l 92 704 m 172 -81 l 572 -81 l 572 -172 l 172 -172 l 172 -81 z "},"Ṋ":{"ha":950,"x_min":104,"x_max":846,"o":"m 104 989 l 245 989 l 693 286 l 696 286 l 696 989 l 846 989 l 846 0 l 704 0 l 257 703 l 254 703 l 254 0 l 104 0 l 104 989 m 382 -254 l 249 -254 l 396 -52 l 554 -52 l 702 -254 l 568 -254 l 475 -135 l 382 -254 z "},"ṋ":{"ha":746,"x_min":92,"x_max":654,"o":"m 92 704 l 233 704 l 233 629 l 236 629 q 419 713 306 713 q 579 651 507 713 q 654 468 651 589 l 654 0 l 513 0 l 513 419 q 473 532 513 493 q 374 571 435 571 q 273 532 313 571 q 233 419 233 493 l 233 0 l 92 0 l 92 704 m 279 -283 l 146 -283 l 293 -81 l 451 -81 l 599 -283 l 465 -283 l 372 -164 l 279 -283 z "},"Ṍ":{"ha":847,"x_min":71,"x_max":777,"o":"m 71 494 q 81 725 71 667 q 114 819 92 783 q 229 941 150 888 q 424 997 307 996 q 621 941 542 996 q 733 819 699 888 q 768 725 758 783 q 777 494 777 667 q 768 265 777 325 q 733 170 758 205 q 621 49 699 101 q 424 -8 542 -5 q 229 49 307 -5 q 114 170 150 101 q 94 212 103 192 q 81 265 86 233 q 71 494 71 325 m 221 494 q 232 297 221 349 q 271 214 241 245 q 333 164 294 183 q 424 142 371 142 q 517 164 477 142 q 576 214 554 183 q 616 297 606 245 q 627 494 627 349 q 616 693 627 640 q 576 775 606 743 q 517 826 554 806 q 424 847 477 846 q 333 826 371 846 q 271 775 294 806 q 232 693 241 743 q 221 494 221 640 m 179 1051 q 232 1169 191 1124 q 336 1212 272 1212 q 387 1205 363 1212 q 436 1187 412 1198 q 484 1169 461 1176 q 525 1160 504 1160 q 566 1172 546 1158 q 590 1221 583 1184 l 673 1221 q 628 1109 664 1155 q 521 1059 591 1061 q 469 1069 496 1059 q 416 1086 441 1076 q 321 1111 364 1109 q 285 1100 306 1111 q 262 1051 262 1086 l 179 1051 m 451 1462 l 637 1462 l 440 1259 l 323 1259 l 451 1462 z "},"ṍ":{"ha":694,"x_min":57,"x_max":637,"o":"m 57 353 q 75 524 57 464 q 134 622 94 582 q 215 685 163 657 q 347 713 267 711 q 482 685 431 711 q 561 622 533 657 q 621 524 603 582 q 637 353 637 464 q 621 183 637 241 q 561 82 603 125 q 528 52 547 66 q 482 22 510 35 q 347 -8 431 -7 q 215 22 267 -7 q 134 82 163 49 q 75 183 94 125 q 57 353 57 241 m 496 351 q 489 461 496 427 q 461 519 482 494 q 415 557 446 543 q 347 571 386 571 q 281 557 311 571 q 233 519 252 543 q 207 461 215 494 q 199 353 199 427 q 207 245 199 279 q 233 184 215 211 q 281 149 252 164 q 347 134 311 134 q 415 149 386 134 q 461 184 446 164 q 489 245 482 211 q 496 351 496 279 m 100 808 q 153 926 111 882 q 257 969 193 969 q 308 962 283 969 q 357 945 333 956 q 404 926 382 933 q 446 917 425 917 q 486 929 467 916 q 511 978 504 941 l 594 978 q 549 867 585 912 q 441 817 512 818 q 390 826 416 817 q 337 843 362 833 q 241 868 285 867 q 205 857 227 868 q 183 808 183 843 l 100 808 m 373 1219 l 559 1219 l 362 1017 l 245 1017 l 373 1219 z "},"Ṏ":{"ha":847,"x_min":71,"x_max":777,"o":"m 71 494 q 81 725 71 667 q 114 819 92 783 q 229 941 150 888 q 424 997 307 996 q 621 941 542 996 q 733 819 699 888 q 768 725 758 783 q 777 494 777 667 q 768 265 777 325 q 733 170 758 205 q 621 49 699 101 q 424 -8 542 -5 q 229 49 307 -5 q 114 170 150 101 q 94 212 103 192 q 81 265 86 233 q 71 494 71 325 m 221 494 q 232 297 221 349 q 271 214 241 245 q 333 164 294 183 q 424 142 371 142 q 517 164 477 142 q 576 214 554 183 q 616 297 606 245 q 627 494 627 349 q 616 693 627 640 q 576 775 606 743 q 517 826 554 806 q 424 847 477 846 q 333 826 371 846 q 271 775 294 806 q 232 693 241 743 q 221 494 221 640 m 179 1051 q 232 1169 191 1124 q 336 1212 272 1212 q 387 1205 363 1212 q 436 1187 412 1198 q 484 1169 461 1176 q 525 1160 504 1160 q 566 1172 546 1158 q 590 1221 583 1184 l 673 1221 q 628 1109 664 1155 q 521 1059 591 1061 q 469 1069 496 1059 q 416 1086 441 1076 q 321 1111 364 1109 q 285 1100 306 1111 q 262 1051 262 1086 l 179 1051 m 473 1429 l 624 1429 l 624 1279 l 473 1279 l 473 1429 m 229 1429 l 379 1429 l 379 1279 l 229 1279 l 229 1429 z "},"ṏ":{"ha":694,"x_min":57,"x_max":637,"o":"m 57 353 q 75 524 57 464 q 134 622 94 582 q 215 685 163 657 q 347 713 267 711 q 482 685 431 711 q 561 622 533 657 q 621 524 603 582 q 637 353 637 464 q 621 183 637 241 q 561 82 603 125 q 528 52 547 66 q 482 22 510 35 q 347 -8 431 -7 q 215 22 267 -7 q 134 82 163 49 q 75 183 94 125 q 57 353 57 241 m 496 351 q 489 461 496 427 q 461 519 482 494 q 415 557 446 543 q 347 571 386 571 q 281 557 311 571 q 233 519 252 543 q 207 461 215 494 q 199 353 199 427 q 207 245 199 279 q 233 184 215 211 q 281 149 252 164 q 347 134 311 134 q 415 149 386 134 q 461 184 446 164 q 489 245 482 211 q 496 351 496 279 m 100 808 q 153 926 111 882 q 257 969 193 969 q 308 962 283 969 q 357 945 333 956 q 404 926 382 933 q 446 917 425 917 q 486 929 467 916 q 511 978 504 941 l 594 978 q 549 867 585 912 q 441 817 512 818 q 390 826 416 817 q 337 843 362 833 q 241 868 285 867 q 205 857 227 868 q 183 808 183 843 l 100 808 m 394 1186 l 545 1186 l 545 1036 l 394 1036 l 394 1186 m 150 1186 l 300 1186 l 300 1036 l 150 1036 l 150 1186 z "},"Ṑ":{"ha":847,"x_min":71,"x_max":777,"o":"m 71 494 q 81 725 71 667 q 114 819 92 783 q 229 941 150 888 q 424 997 307 996 q 621 941 542 996 q 733 819 699 888 q 768 725 758 783 q 777 494 777 667 q 768 265 777 325 q 733 170 758 205 q 621 49 699 101 q 424 -8 542 -5 q 229 49 307 -5 q 114 170 150 101 q 94 212 103 192 q 81 265 86 233 q 71 494 71 325 m 221 494 q 232 297 221 349 q 271 214 241 245 q 333 164 294 183 q 424 142 371 142 q 517 164 477 142 q 576 214 554 183 q 616 297 606 245 q 627 494 627 349 q 616 693 627 640 q 576 775 606 743 q 517 826 554 806 q 424 847 477 846 q 333 826 371 846 q 271 775 294 806 q 232 693 241 743 q 221 494 221 640 m 227 1177 l 627 1177 l 627 1086 l 227 1086 l 227 1177 m 221 1462 l 407 1462 l 534 1259 l 418 1259 l 221 1462 z "},"ṑ":{"ha":694,"x_min":57,"x_max":637,"o":"m 57 353 q 75 524 57 464 q 134 622 94 582 q 215 685 163 657 q 347 713 267 711 q 482 685 431 711 q 561 622 533 657 q 621 524 603 582 q 637 353 637 464 q 621 183 637 241 q 561 82 603 125 q 528 52 547 66 q 482 22 510 35 q 347 -8 431 -7 q 215 22 267 -7 q 134 82 163 49 q 75 183 94 125 q 57 353 57 241 m 496 351 q 489 461 496 427 q 461 519 482 494 q 415 557 446 543 q 347 571 386 571 q 281 557 311 571 q 233 519 252 543 q 207 461 215 494 q 199 353 199 427 q 207 245 199 279 q 233 184 215 211 q 281 149 252 164 q 347 134 311 134 q 415 149 386 134 q 461 184 446 164 q 489 245 482 211 q 496 351 496 279 m 147 935 l 547 935 l 547 843 l 147 843 l 147 935 m 143 1219 l 329 1219 l 456 1017 l 340 1017 l 143 1219 z "},"Ṓ":{"ha":847,"x_min":71,"x_max":777,"o":"m 71 494 q 81 725 71 667 q 114 819 92 783 q 229 941 150 888 q 424 997 307 996 q 621 941 542 996 q 733 819 699 888 q 768 725 758 783 q 777 494 777 667 q 768 265 777 325 q 733 170 758 205 q 621 49 699 101 q 424 -8 542 -5 q 229 49 307 -5 q 114 170 150 101 q 94 212 103 192 q 81 265 86 233 q 71 494 71 325 m 221 494 q 232 297 221 349 q 271 214 241 245 q 333 164 294 183 q 424 142 371 142 q 517 164 477 142 q 576 214 554 183 q 616 297 606 245 q 627 494 627 349 q 616 693 627 640 q 576 775 606 743 q 517 826 554 806 q 424 847 477 846 q 333 826 371 846 q 271 775 294 806 q 232 693 241 743 q 221 494 221 640 m 227 1177 l 627 1177 l 627 1086 l 227 1086 l 227 1177 m 451 1462 l 637 1462 l 440 1259 l 323 1259 l 451 1462 z "},"ṓ":{"ha":694,"x_min":57,"x_max":637,"o":"m 57 353 q 75 524 57 464 q 134 622 94 582 q 215 685 163 657 q 347 713 267 711 q 482 685 431 711 q 561 622 533 657 q 621 524 603 582 q 637 353 637 464 q 621 183 637 241 q 561 82 603 125 q 528 52 547 66 q 482 22 510 35 q 347 -8 431 -7 q 215 22 267 -7 q 134 82 163 49 q 75 183 94 125 q 57 353 57 241 m 496 351 q 489 461 496 427 q 461 519 482 494 q 415 557 446 543 q 347 571 386 571 q 281 557 311 571 q 233 519 252 543 q 207 461 215 494 q 199 353 199 427 q 207 245 199 279 q 233 184 215 211 q 281 149 252 164 q 347 134 311 134 q 415 149 386 134 q 461 184 446 164 q 489 245 482 211 q 496 351 496 279 m 147 935 l 547 935 l 547 843 l 147 843 l 147 935 m 373 1219 l 559 1219 l 362 1017 l 245 1017 l 373 1219 z "},"Ṕ":{"ha":823,"x_min":104,"x_max":791,"o":"m 254 528 l 476 528 q 602 579 559 529 q 642 688 642 628 q 625 771 642 737 q 578 819 608 802 q 471 847 532 848 l 254 847 l 254 528 m 104 989 l 463 989 q 575 978 521 989 q 685 920 629 964 q 761 825 732 886 q 791 684 791 765 q 714 484 791 574 q 482 386 635 389 l 254 386 l 254 0 l 104 0 l 104 989 m 454 1240 l 640 1240 l 443 1037 l 326 1037 l 454 1240 z "},"ṕ":{"ha":721,"x_min":92,"x_max":654,"o":"m 92 704 l 233 704 l 233 631 l 233 631 q 415 713 304 709 q 604 621 545 709 q 644 533 633 587 q 654 351 654 479 q 644 172 654 227 q 604 83 633 118 q 528 18 575 43 q 415 -8 481 -7 q 318 16 361 -8 q 233 75 272 37 l 233 75 l 233 -285 l 92 -285 l 92 704 m 372 134 q 452 153 422 134 q 493 203 481 172 q 511 273 507 235 q 513 351 513 311 q 511 433 513 393 q 493 504 507 473 q 452 554 481 536 q 372 571 422 571 q 297 551 325 571 q 254 500 268 532 q 237 431 241 468 q 233 351 233 391 q 237 277 233 314 q 254 205 241 237 q 297 154 268 174 q 372 134 325 134 m 414 997 l 600 997 l 403 794 l 286 794 l 414 997 z "},"Ṗ":{"ha":823,"x_min":104,"x_max":791,"o":"m 254 528 l 476 528 q 602 579 559 529 q 642 688 642 628 q 625 771 642 737 q 578 819 608 802 q 471 847 532 848 l 254 847 l 254 528 m 104 989 l 463 989 q 575 978 521 989 q 685 920 629 964 q 761 825 732 886 q 791 684 791 765 q 714 484 791 574 q 482 386 635 389 l 254 386 l 254 0 l 104 0 l 104 989 m 353 1206 l 503 1206 l 503 1057 l 353 1057 l 353 1206 z "},"ṗ":{"ha":721,"x_min":92,"x_max":654,"o":"m 92 704 l 233 704 l 233 631 l 233 631 q 415 713 304 709 q 604 621 545 709 q 644 533 633 587 q 654 351 654 479 q 644 172 654 227 q 604 83 633 118 q 528 18 575 43 q 415 -8 481 -7 q 318 16 361 -8 q 233 75 272 37 l 233 75 l 233 -285 l 92 -285 l 92 704 m 372 134 q 452 153 422 134 q 493 203 481 172 q 511 273 507 235 q 513 351 513 311 q 511 433 513 393 q 493 504 507 473 q 452 554 481 536 q 372 571 422 571 q 297 551 325 571 q 254 500 268 532 q 237 431 241 468 q 233 351 233 391 q 237 277 233 314 q 254 205 241 237 q 297 154 268 174 q 372 134 325 134 m 298 964 l 448 964 l 448 814 l 298 814 l 298 964 z "},"Ṙ":{"ha":847,"x_min":104,"x_max":828,"o":"m 254 555 l 481 555 q 607 604 565 557 q 648 713 648 648 q 599 825 647 790 q 489 855 561 855 l 254 855 l 254 555 m 104 989 l 490 989 q 692 924 614 989 q 790 713 786 850 q 599 439 787 511 l 828 0 l 650 0 l 446 422 l 254 422 l 254 0 l 104 0 l 104 989 m 325 1206 l 475 1206 l 475 1057 l 325 1057 l 325 1206 z "},"ṙ":{"ha":541,"x_min":92,"x_max":567,"o":"m 92 704 l 233 704 l 233 629 l 236 629 q 419 713 306 713 q 567 659 504 711 l 464 536 l 464 536 q 371 571 419 571 q 278 536 317 571 q 233 424 235 501 l 233 0 l 92 0 l 92 704 m 254 964 l 404 964 l 404 814 l 254 814 l 254 964 z "},"Ṛ":{"ha":847,"x_min":104,"x_max":828,"o":"m 254 555 l 481 555 q 607 604 565 557 q 648 713 648 648 q 599 825 647 790 q 489 855 561 855 l 254 855 l 254 555 m 104 989 l 490 989 q 692 924 614 989 q 790 713 786 850 q 599 439 787 511 l 828 0 l 650 0 l 446 422 l 254 422 l 254 0 l 104 0 l 104 989 m 367 -52 l 517 -52 l 517 -201 l 367 -201 l 367 -52 z "},"ṛ":{"ha":541,"x_min":92,"x_max":567,"o":"m 92 704 l 233 704 l 233 629 l 236 629 q 419 713 306 713 q 567 659 504 711 l 464 536 l 464 536 q 371 571 419 571 q 278 536 317 571 q 233 424 235 501 l 233 0 l 92 0 l 92 704 m 92 -52 l 241 -52 l 241 -201 l 92 -201 l 92 -52 z "},"Ṝ":{"ha":847,"x_min":104,"x_max":828,"o":"m 254 555 l 481 555 q 607 604 565 557 q 648 713 648 648 q 599 825 647 790 q 489 855 561 855 l 254 855 l 254 555 m 104 989 l 490 989 q 692 924 614 989 q 790 713 786 850 q 599 439 787 511 l 828 0 l 650 0 l 446 422 l 254 422 l 254 0 l 104 0 l 104 989 m 200 1177 l 600 1177 l 600 1086 l 200 1086 l 200 1177 m 367 -52 l 517 -52 l 517 -201 l 367 -201 l 367 -52 z "},"ṝ":{"ha":541,"x_min":92,"x_max":567,"o":"m 92 704 l 233 704 l 233 629 l 236 629 q 419 713 306 713 q 567 659 504 711 l 464 536 l 464 536 q 371 571 419 571 q 278 536 317 571 q 233 424 235 501 l 233 0 l 92 0 l 92 704 m 130 935 l 530 935 l 530 843 l 130 843 l 130 935 m 92 -52 l 241 -52 l 241 -201 l 92 -201 l 92 -52 z "},"Ṟ":{"ha":847,"x_min":104,"x_max":828,"o":"m 254 555 l 481 555 q 607 604 565 557 q 648 713 648 648 q 599 825 647 790 q 489 855 561 855 l 254 855 l 254 555 m 104 989 l 490 989 q 692 924 614 989 q 790 713 786 850 q 599 439 787 511 l 828 0 l 650 0 l 446 422 l 254 422 l 254 0 l 104 0 l 104 989 m 252 -81 l 652 -81 l 652 -172 l 252 -172 l 252 -81 z "},"ṟ":{"ha":541,"x_min":-35,"x_max":567,"o":"m 92 704 l 233 704 l 233 629 l 236 629 q 419 713 306 713 q 567 659 504 711 l 464 536 l 464 536 q 371 571 419 571 q 278 536 317 571 q 233 424 235 501 l 233 0 l 92 0 l 92 704 m -35 -81 l 366 -81 l 366 -172 l -35 -172 l -35 -81 z "},"Ṡ":{"ha":798,"x_min":18,"x_max":743,"o":"m 117 240 q 397 142 235 143 q 593 279 590 144 q 464 412 594 390 q 333 431 404 420 q 139 525 205 452 q 71 708 71 600 q 157 917 71 838 q 393 997 240 996 q 714 895 578 993 l 631 771 l 631 771 q 386 847 519 844 q 271 812 317 847 q 221 705 222 777 q 254 628 221 663 q 361 579 288 593 q 472 564 401 572 q 677 464 611 545 q 743 279 743 385 q 396 -8 736 -4 q 18 127 176 -8 l 117 240 l 117 240 m 314 1206 l 464 1206 l 464 1057 l 314 1057 l 314 1206 z "},"ṡ":{"ha":667,"x_min":14,"x_max":615,"o":"m 113 215 q 335 125 199 125 q 435 149 396 125 q 473 215 473 172 q 450 268 473 253 q 387 285 427 283 l 262 296 q 118 355 174 304 q 60 496 61 406 q 136 659 61 604 q 322 713 210 713 q 410 707 371 713 q 482 688 448 700 q 599 616 547 661 l 511 514 l 511 514 q 425 562 471 543 q 322 579 380 579 q 229 555 256 579 q 201 494 201 532 q 222 453 200 471 q 294 428 243 433 l 411 419 q 570 353 521 411 q 615 208 615 296 q 532 50 614 106 q 323 -8 450 -7 q 14 118 151 -8 l 113 215 l 113 215 m 261 964 l 411 964 l 411 814 l 261 814 l 261 964 z "},"Ṣ":{"ha":798,"x_min":18,"x_max":743,"o":"m 117 240 q 397 142 235 143 q 593 279 590 144 q 464 412 594 390 q 333 431 404 420 q 139 525 205 452 q 71 708 71 600 q 157 917 71 838 q 393 997 240 996 q 714 895 578 993 l 631 771 l 631 771 q 386 847 519 844 q 271 812 317 847 q 221 705 222 777 q 254 628 221 663 q 361 579 288 593 q 472 564 401 572 q 677 464 611 545 q 743 279 743 385 q 396 -8 736 -4 q 18 127 176 -8 l 117 240 l 117 240 m 314 -52 l 464 -52 l 464 -201 l 314 -201 l 314 -52 z "},"ṣ":{"ha":667,"x_min":14,"x_max":615,"o":"m 113 215 q 335 125 199 125 q 435 149 396 125 q 473 215 473 172 q 450 268 473 253 q 387 285 427 283 l 262 296 q 118 355 174 304 q 60 496 61 406 q 136 659 61 604 q 322 713 210 713 q 410 707 371 713 q 482 688 448 700 q 599 616 547 661 l 511 514 l 511 514 q 425 562 471 543 q 322 579 380 579 q 229 555 256 579 q 201 494 201 532 q 222 453 200 471 q 294 428 243 433 l 411 419 q 570 353 521 411 q 615 208 615 296 q 532 50 614 106 q 323 -8 450 -7 q 14 118 151 -8 l 113 215 l 113 215 m 261 -52 l 411 -52 l 411 -201 l 261 -201 l 261 -52 z "},"Ṥ":{"ha":798,"x_min":18,"x_max":743,"o":"m 117 240 q 397 142 235 143 q 593 279 590 144 q 464 412 594 390 q 333 431 404 420 q 139 525 205 452 q 71 708 71 600 q 157 917 71 838 q 393 997 240 996 q 714 895 578 993 l 631 771 l 631 771 q 386 847 519 844 q 271 812 317 847 q 221 705 222 777 q 254 628 221 663 q 361 579 288 593 q 472 564 401 572 q 677 464 611 545 q 743 279 743 385 q 396 -8 736 -4 q 18 127 176 -8 l 117 240 l 117 240 m 212 1345 l 362 1345 l 362 1196 l 212 1196 l 212 1345 m 429 1240 l 616 1240 l 418 1037 l 302 1037 l 429 1240 z "},"ṥ":{"ha":667,"x_min":14,"x_max":615,"o":"m 113 215 q 335 125 199 125 q 435 149 396 125 q 473 215 473 172 q 450 268 473 253 q 387 285 427 283 l 262 296 q 118 355 174 304 q 60 496 61 406 q 136 659 61 604 q 322 713 210 713 q 410 707 371 713 q 482 688 448 700 q 599 616 547 661 l 511 514 l 511 514 q 425 562 471 543 q 322 579 380 579 q 229 555 256 579 q 201 494 201 532 q 222 453 200 471 q 294 428 243 433 l 411 419 q 570 353 521 411 q 615 208 615 296 q 532 50 614 106 q 323 -8 450 -7 q 14 118 151 -8 l 113 215 l 113 215 m 363 997 l 550 997 l 353 794 l 236 794 l 363 997 m 136 1103 l 286 1103 l 286 953 l 136 953 l 136 1103 z "},"Ṧ":{"ha":798,"x_min":18,"x_max":743,"o":"m 117 240 q 397 142 235 143 q 593 279 590 144 q 464 412 594 390 q 333 431 404 420 q 139 525 205 452 q 71 708 71 600 q 157 917 71 838 q 393 997 240 996 q 714 895 578 993 l 631 771 l 631 771 q 386 847 519 844 q 271 812 317 847 q 221 705 222 777 q 254 628 221 663 q 361 579 288 593 q 472 564 401 572 q 677 464 611 545 q 743 279 743 385 q 396 -8 736 -4 q 18 127 176 -8 l 117 240 l 117 240 m 163 1240 l 296 1240 l 389 1120 l 389 1120 l 482 1240 l 616 1240 l 468 1037 l 310 1037 l 163 1240 m 314 1429 l 464 1429 l 464 1279 l 314 1279 l 314 1429 z "},"ṧ":{"ha":667,"x_min":14,"x_max":615,"o":"m 113 215 q 335 125 199 125 q 435 149 396 125 q 473 215 473 172 q 450 268 473 253 q 387 285 427 283 l 262 296 q 118 355 174 304 q 60 496 61 406 q 136 659 61 604 q 322 713 210 713 q 410 707 371 713 q 482 688 448 700 q 599 616 547 661 l 511 514 l 511 514 q 425 562 471 543 q 322 579 380 579 q 229 555 256 579 q 201 494 201 532 q 222 453 200 471 q 294 428 243 433 l 411 419 q 570 353 521 411 q 615 208 615 296 q 532 50 614 106 q 323 -8 450 -7 q 14 118 151 -8 l 113 215 l 113 215 m 110 997 l 243 997 l 336 878 l 336 878 l 429 997 l 563 997 l 415 794 l 257 794 l 110 997 m 261 1186 l 411 1186 l 411 1036 l 261 1036 l 261 1186 z "},"Ṩ":{"ha":798,"x_min":18,"x_max":743,"o":"m 117 240 q 397 142 235 143 q 593 279 590 144 q 464 412 594 390 q 333 431 404 420 q 139 525 205 452 q 71 708 71 600 q 157 917 71 838 q 393 997 240 996 q 714 895 578 993 l 631 771 l 631 771 q 386 847 519 844 q 271 812 317 847 q 221 705 222 777 q 254 628 221 663 q 361 579 288 593 q 472 564 401 572 q 677 464 611 545 q 743 279 743 385 q 396 -8 736 -4 q 18 127 176 -8 l 117 240 l 117 240 m 314 -52 l 464 -52 l 464 -201 l 314 -201 l 314 -52 m 314 1206 l 464 1206 l 464 1057 l 314 1057 l 314 1206 z "},"ṩ":{"ha":667,"x_min":14,"x_max":615,"o":"m 113 215 q 335 125 199 125 q 435 149 396 125 q 473 215 473 172 q 450 268 473 253 q 387 285 427 283 l 262 296 q 118 355 174 304 q 60 496 61 406 q 136 659 61 604 q 322 713 210 713 q 410 707 371 713 q 482 688 448 700 q 599 616 547 661 l 511 514 l 511 514 q 425 562 471 543 q 322 579 380 579 q 229 555 256 579 q 201 494 201 532 q 222 453 200 471 q 294 428 243 433 l 411 419 q 570 353 521 411 q 615 208 615 296 q 532 50 614 106 q 323 -8 450 -7 q 14 118 151 -8 l 113 215 l 113 215 m 261 -52 l 411 -52 l 411 -201 l 261 -201 l 261 -52 m 261 964 l 411 964 l 411 814 l 261 814 l 261 964 z "},"Ṫ":{"ha":694,"x_min":1,"x_max":693,"o":"m 272 855 l 1 855 l 1 989 l 693 989 l 693 855 l 422 855 l 422 0 l 272 0 l 272 855 m 272 1206 l 422 1206 l 422 1057 l 272 1057 l 272 1206 z "},"ṫ":{"ha":386,"x_min":29,"x_max":345,"o":"m 100 918 l 241 918 l 241 704 l 345 704 l 345 596 l 241 596 l 241 186 q 292 134 240 132 l 345 134 l 345 0 l 271 0 q 149 46 196 0 q 100 174 100 90 l 100 596 l 29 596 l 29 704 l 100 704 l 100 918 m 96 1206 l 245 1206 l 245 1057 l 96 1057 l 96 1206 z "},"Ṭ":{"ha":694,"x_min":1,"x_max":693,"o":"m 272 855 l 1 855 l 1 989 l 693 989 l 693 855 l 422 855 l 422 0 l 272 0 l 272 855 m 272 -52 l 422 -52 l 422 -201 l 272 -201 l 272 -52 z "},"ṭ":{"ha":386,"x_min":29,"x_max":345,"o":"m 100 918 l 241 918 l 241 704 l 345 704 l 345 596 l 241 596 l 241 186 q 292 134 240 132 l 345 134 l 345 0 l 271 0 q 149 46 196 0 q 100 174 100 90 l 100 596 l 29 596 l 29 704 l 100 704 l 100 918 m 111 -52 l 261 -52 l 261 -201 l 111 -201 l 111 -52 z "},"Ṯ":{"ha":694,"x_min":1,"x_max":693,"o":"m 272 855 l 1 855 l 1 989 l 693 989 l 693 855 l 422 855 l 422 0 l 272 0 l 272 855 m 147 -81 l 547 -81 l 547 -172 l 147 -172 l 147 -81 z "},"ṯ":{"ha":386,"x_min":17,"x_max":417,"o":"m 100 918 l 241 918 l 241 704 l 345 704 l 345 596 l 241 596 l 241 186 q 292 134 240 132 l 345 134 l 345 0 l 271 0 q 149 46 196 0 q 100 174 100 90 l 100 596 l 29 596 l 29 704 l 100 704 l 100 918 m 17 -81 l 417 -81 l 417 -172 l 17 -172 l 17 -81 z "}}}
